%TF.GenerationSoftware,KiCad,Pcbnew,5.1.9*%
%TF.CreationDate,2021-11-11T19:59:09-07:00*%
%TF.ProjectId,pirate-board,70697261-7465-42d6-926f-6172642e6b69,v1.1*%
%TF.SameCoordinates,Original*%
%TF.FileFunction,Copper,L2,Bot*%
%TF.FilePolarity,Positive*%
%FSLAX46Y46*%
G04 Gerber Fmt 4.6, Leading zero omitted, Abs format (unit mm)*
G04 Created by KiCad (PCBNEW 5.1.9) date 2021-11-11 19:59:09*
%MOMM*%
%LPD*%
G01*
G04 APERTURE LIST*
%TA.AperFunction,ComponentPad*%
%ADD10C,1.500000*%
%TD*%
%TA.AperFunction,ComponentPad*%
%ADD11C,3.000000*%
%TD*%
%TA.AperFunction,ComponentPad*%
%ADD12R,1.500000X1.500000*%
%TD*%
%TA.AperFunction,ComponentPad*%
%ADD13C,3.800000*%
%TD*%
%TA.AperFunction,ComponentPad*%
%ADD14R,3.800000X3.800000*%
%TD*%
%TA.AperFunction,ComponentPad*%
%ADD15C,4.000000*%
%TD*%
%TA.AperFunction,ComponentPad*%
%ADD16R,1.350000X1.350000*%
%TD*%
%TA.AperFunction,ComponentPad*%
%ADD17O,1.350000X1.350000*%
%TD*%
%TA.AperFunction,ComponentPad*%
%ADD18R,1.700000X1.700000*%
%TD*%
%TA.AperFunction,ComponentPad*%
%ADD19O,1.700000X1.700000*%
%TD*%
%TA.AperFunction,ViaPad*%
%ADD20C,0.762000*%
%TD*%
%TA.AperFunction,Conductor*%
%ADD21C,0.254000*%
%TD*%
%TA.AperFunction,Conductor*%
%ADD22C,0.100000*%
%TD*%
G04 APERTURE END LIST*
D10*
%TO.P,J6,8*%
%TO.N,GND*%
X176610000Y-74280000D03*
%TO.P,J6,7*%
%TO.N,Net-(J1-Pad3)*%
X176610000Y-76780000D03*
%TO.P,J6,6*%
%TO.N,Net-(J1-Pad2)*%
X176610000Y-78780000D03*
%TO.P,J6,5*%
%TO.N,VCC*%
X176610000Y-81280000D03*
D11*
%TO.P,J6,9*%
%TO.N,Net-(J6-Pad9)*%
X179320000Y-71210000D03*
X179320000Y-84350000D03*
D10*
%TO.P,J6,4*%
%TO.N,GND*%
X173990000Y-74280000D03*
%TO.P,J6,3*%
%TO.N,Net-(J1-Pad3)*%
X173990000Y-76780000D03*
%TO.P,J6,2*%
%TO.N,Net-(J1-Pad2)*%
X173990000Y-78780000D03*
D12*
%TO.P,J6,1*%
%TO.N,VCC*%
X173990000Y-81280000D03*
D11*
%TO.P,J6,9*%
%TO.N,Net-(J6-Pad9)*%
X173640000Y-84350000D03*
X173640000Y-71210000D03*
%TD*%
D13*
%TO.P,J3,2*%
%TO.N,GND*%
X143880000Y-121840000D03*
D14*
%TO.P,J3,1*%
%TO.N,VCC*%
X143880000Y-116840000D03*
%TD*%
D15*
%TO.P,J2,2*%
%TO.N,GND*%
X151130000Y-121840000D03*
D14*
%TO.P,J2,1*%
%TO.N,VCC*%
X151130000Y-116840000D03*
%TD*%
D10*
%TO.P,J1,8*%
%TO.N,GND*%
X176610000Y-93330000D03*
%TO.P,J1,7*%
%TO.N,Net-(J1-Pad3)*%
X176610000Y-95830000D03*
%TO.P,J1,6*%
%TO.N,Net-(J1-Pad2)*%
X176610000Y-97830000D03*
%TO.P,J1,5*%
%TO.N,VCC*%
X176610000Y-100330000D03*
D11*
%TO.P,J1,9*%
%TO.N,Net-(J1-Pad9)*%
X179320000Y-90260000D03*
X179320000Y-103400000D03*
D10*
%TO.P,J1,4*%
%TO.N,GND*%
X173990000Y-93330000D03*
%TO.P,J1,3*%
%TO.N,Net-(J1-Pad3)*%
X173990000Y-95830000D03*
%TO.P,J1,2*%
%TO.N,Net-(J1-Pad2)*%
X173990000Y-97830000D03*
D12*
%TO.P,J1,1*%
%TO.N,VCC*%
X173990000Y-100330000D03*
D11*
%TO.P,J1,9*%
%TO.N,Net-(J1-Pad9)*%
X173640000Y-103400000D03*
X173640000Y-90260000D03*
%TD*%
%TO.P,J4,9*%
%TO.N,Net-(J4-Pad9)*%
X173640000Y-109310000D03*
X173640000Y-122450000D03*
D12*
%TO.P,J4,1*%
%TO.N,VCC*%
X173990000Y-119380000D03*
D10*
%TO.P,J4,2*%
%TO.N,Net-(J1-Pad2)*%
X173990000Y-116880000D03*
%TO.P,J4,3*%
%TO.N,Net-(J1-Pad3)*%
X173990000Y-114880000D03*
%TO.P,J4,4*%
%TO.N,GND*%
X173990000Y-112380000D03*
D11*
%TO.P,J4,9*%
%TO.N,Net-(J4-Pad9)*%
X179320000Y-122450000D03*
X179320000Y-109310000D03*
D10*
%TO.P,J4,5*%
%TO.N,VCC*%
X176610000Y-119380000D03*
%TO.P,J4,6*%
%TO.N,Net-(J1-Pad2)*%
X176610000Y-116880000D03*
%TO.P,J4,7*%
%TO.N,Net-(J1-Pad3)*%
X176610000Y-114880000D03*
%TO.P,J4,8*%
%TO.N,GND*%
X176610000Y-112380000D03*
%TD*%
D16*
%TO.P,J5,1*%
%TO.N,Net-(J5-Pad1)*%
X158750000Y-120650000D03*
D17*
%TO.P,J5,2*%
%TO.N,Net-(J5-Pad2)*%
X160750000Y-120650000D03*
%TO.P,J5,3*%
%TO.N,Net-(J5-Pad3)*%
X162750000Y-120650000D03*
%TO.P,J5,4*%
%TO.N,GND*%
X164750000Y-120650000D03*
%TD*%
D18*
%TO.P,J7,1*%
%TO.N,Net-(J5-Pad3)*%
X134620000Y-120650000D03*
D19*
%TO.P,J7,2*%
%TO.N,VCC*%
X132080000Y-120650000D03*
%TO.P,J7,3*%
%TO.N,Net-(J7-Pad3)*%
X134620000Y-118110000D03*
%TO.P,J7,4*%
%TO.N,VCC*%
X132080000Y-118110000D03*
%TO.P,J7,5*%
%TO.N,Net-(J7-Pad5)*%
X134620000Y-115570000D03*
%TO.P,J7,6*%
%TO.N,GND*%
X132080000Y-115570000D03*
%TO.P,J7,7*%
%TO.N,Net-(J7-Pad7)*%
X134620000Y-113030000D03*
%TO.P,J7,8*%
%TO.N,Net-(J7-Pad8)*%
X132080000Y-113030000D03*
%TO.P,J7,9*%
%TO.N,GND*%
X134620000Y-110490000D03*
%TO.P,J7,10*%
%TO.N,Net-(J7-Pad10)*%
X132080000Y-110490000D03*
%TO.P,J7,11*%
%TO.N,Net-(D2-Pad2)*%
X134620000Y-107950000D03*
%TO.P,J7,12*%
%TO.N,Net-(J7-Pad12)*%
X132080000Y-107950000D03*
%TO.P,J7,13*%
%TO.N,Net-(J7-Pad13)*%
X134620000Y-105410000D03*
%TO.P,J7,14*%
%TO.N,Net-(J7-Pad14)*%
X132080000Y-105410000D03*
%TO.P,J7,15*%
%TO.N,Net-(J7-Pad15)*%
X134620000Y-102870000D03*
%TO.P,J7,16*%
%TO.N,Net-(J7-Pad16)*%
X132080000Y-102870000D03*
%TO.P,J7,17*%
%TO.N,Net-(J7-Pad17)*%
X134620000Y-100330000D03*
%TO.P,J7,18*%
%TO.N,Net-(J7-Pad18)*%
X132080000Y-100330000D03*
%TO.P,J7,19*%
%TO.N,Net-(J7-Pad19)*%
X134620000Y-97790000D03*
%TO.P,J7,20*%
%TO.N,Net-(J7-Pad20)*%
X132080000Y-97790000D03*
%TO.P,J7,21*%
%TO.N,Net-(J7-Pad21)*%
X134620000Y-95250000D03*
%TO.P,J7,22*%
%TO.N,Net-(J7-Pad22)*%
X132080000Y-95250000D03*
%TO.P,J7,23*%
%TO.N,Net-(J7-Pad23)*%
X134620000Y-92710000D03*
%TO.P,J7,24*%
%TO.N,Net-(J7-Pad24)*%
X132080000Y-92710000D03*
%TO.P,J7,25*%
%TO.N,Net-(J7-Pad25)*%
X134620000Y-90170000D03*
%TO.P,J7,26*%
%TO.N,Net-(J7-Pad26)*%
X132080000Y-90170000D03*
%TO.P,J7,27*%
%TO.N,Net-(J7-Pad27)*%
X134620000Y-87630000D03*
%TO.P,J7,28*%
%TO.N,Net-(J7-Pad28)*%
X132080000Y-87630000D03*
%TO.P,J7,29*%
%TO.N,Net-(J7-Pad29)*%
X134620000Y-85090000D03*
%TO.P,J7,30*%
%TO.N,Net-(J7-Pad30)*%
X132080000Y-85090000D03*
%TO.P,J7,31*%
%TO.N,Net-(J7-Pad31)*%
X134620000Y-82550000D03*
%TO.P,J7,32*%
%TO.N,Net-(J7-Pad32)*%
X132080000Y-82550000D03*
%TO.P,J7,33*%
%TO.N,Net-(J7-Pad33)*%
X134620000Y-80010000D03*
%TO.P,J7,34*%
%TO.N,Net-(J7-Pad34)*%
X132080000Y-80010000D03*
%TO.P,J7,35*%
%TO.N,Net-(J7-Pad35)*%
X134620000Y-77470000D03*
%TO.P,J7,36*%
%TO.N,Net-(J7-Pad36)*%
X132080000Y-77470000D03*
%TO.P,J7,37*%
%TO.N,Net-(J7-Pad37)*%
X134620000Y-74930000D03*
%TO.P,J7,38*%
%TO.N,Net-(J7-Pad38)*%
X132080000Y-74930000D03*
%TO.P,J7,39*%
%TO.N,Net-(J7-Pad39)*%
X134620000Y-72390000D03*
%TO.P,J7,40*%
%TO.N,Net-(J7-Pad40)*%
X132080000Y-72390000D03*
%TD*%
D20*
%TO.N,Net-(J1-Pad2)*%
X170434000Y-90170000D03*
%TO.N,Net-(J5-Pad3)*%
X166878000Y-101346000D03*
X161544000Y-92964000D03*
%TO.N,Net-(J5-Pad1)*%
X165100000Y-96520000D03*
%TO.N,Net-(J5-Pad2)*%
X162560000Y-95250000D03*
X159774079Y-106925921D03*
%TD*%
D21*
%TO.N,Net-(J1-Pad2)*%
X170434000Y-82336000D02*
X173990000Y-78780000D01*
X170434000Y-90170000D02*
X170434000Y-82336000D01*
X173990000Y-78780000D02*
X176610000Y-78780000D01*
X173990000Y-116880000D02*
X176610000Y-116880000D01*
X175284781Y-107479058D02*
X171450000Y-103644277D01*
X175284781Y-114879058D02*
X175284781Y-107479058D01*
X176610000Y-116204277D02*
X175284781Y-114879058D01*
X176610000Y-116880000D02*
X176610000Y-116204277D01*
X171450000Y-100370000D02*
X173990000Y-97830000D01*
X171450000Y-103644277D02*
X171450000Y-100370000D01*
%TO.N,Net-(J1-Pad3)*%
X173990000Y-76780000D02*
X176610000Y-76780000D01*
X173046000Y-95830000D02*
X173990000Y-95830000D01*
X168656000Y-91440000D02*
X173046000Y-95830000D01*
X168656000Y-82114000D02*
X168656000Y-91440000D01*
X173990000Y-76780000D02*
X168656000Y-82114000D01*
X173990000Y-95830000D02*
X176610000Y-95830000D01*
%TO.N,VCC*%
X171900219Y-121469781D02*
X173990000Y-119380000D01*
X173990000Y-119380000D02*
X176610000Y-119380000D01*
X177504781Y-101224781D02*
X176610000Y-100330000D01*
X177504781Y-118485219D02*
X177504781Y-101224781D01*
X176610000Y-119380000D02*
X177504781Y-118485219D01*
X176610000Y-100330000D02*
X173990000Y-100330000D01*
X177504781Y-82174781D02*
X176610000Y-81280000D01*
X177504781Y-99435219D02*
X177504781Y-82174781D01*
X176610000Y-100330000D02*
X177504781Y-99435219D01*
X176610000Y-81280000D02*
X173990000Y-81280000D01*
X153274781Y-118984781D02*
X153274781Y-122540781D01*
X151130000Y-116840000D02*
X153274781Y-118984781D01*
X153274781Y-122540781D02*
X155956000Y-125222000D01*
X168148000Y-125222000D02*
X171900219Y-121469781D01*
X155956000Y-125222000D02*
X168148000Y-125222000D01*
%TO.N,Net-(J5-Pad3)*%
X162750000Y-120650000D02*
X162814000Y-120650000D01*
X166878000Y-101346000D02*
X166878000Y-92964000D01*
X166878000Y-92964000D02*
X161544000Y-92964000D01*
%TO.N,Net-(J5-Pad1)*%
X165100000Y-114300000D02*
X158750000Y-120650000D01*
X165100000Y-96520000D02*
X165100000Y-114300000D01*
%TO.N,Net-(J5-Pad2)*%
X159774079Y-106925921D02*
X159774079Y-100575921D01*
X159774079Y-100575921D02*
X159774079Y-99305921D01*
X159774079Y-99305921D02*
X161290000Y-97790000D01*
X161290000Y-97790000D02*
X161290000Y-97790000D01*
X161290000Y-97790000D02*
X162560000Y-96520000D01*
X162560000Y-96520000D02*
X162560000Y-95250000D01*
%TD*%
%TO.N,GND*%
X183007000Y-127127000D02*
X126873000Y-127127000D01*
X126873000Y-123616349D01*
X142283256Y-123616349D01*
X142487362Y-123972867D01*
X142930223Y-124203575D01*
X143409583Y-124343452D01*
X143907021Y-124387123D01*
X144403422Y-124332909D01*
X144879707Y-124182894D01*
X145272638Y-123972867D01*
X145436010Y-123687499D01*
X149462106Y-123687499D01*
X149678228Y-124054258D01*
X150138105Y-124294938D01*
X150636098Y-124441275D01*
X151153071Y-124487648D01*
X151669159Y-124432273D01*
X152164526Y-124277279D01*
X152581772Y-124054258D01*
X152797894Y-123687499D01*
X151130000Y-122019605D01*
X149462106Y-123687499D01*
X145436010Y-123687499D01*
X145476744Y-123616349D01*
X143880000Y-122019605D01*
X142283256Y-123616349D01*
X126873000Y-123616349D01*
X126873000Y-120528757D01*
X130849000Y-120528757D01*
X130849000Y-120771243D01*
X130896307Y-121009069D01*
X130989102Y-121233097D01*
X131123820Y-121434717D01*
X131295283Y-121606180D01*
X131496903Y-121740898D01*
X131720931Y-121833693D01*
X131958757Y-121881000D01*
X132201243Y-121881000D01*
X132439069Y-121833693D01*
X132663097Y-121740898D01*
X132864717Y-121606180D01*
X133036180Y-121434717D01*
X133170898Y-121233097D01*
X133263693Y-121009069D01*
X133311000Y-120771243D01*
X133311000Y-120528757D01*
X133263693Y-120290931D01*
X133170898Y-120066903D01*
X133036180Y-119865283D01*
X132970897Y-119800000D01*
X133387157Y-119800000D01*
X133387157Y-121500000D01*
X133394513Y-121574689D01*
X133416299Y-121646508D01*
X133451678Y-121712696D01*
X133499289Y-121770711D01*
X133557304Y-121818322D01*
X133623492Y-121853701D01*
X133695311Y-121875487D01*
X133770000Y-121882843D01*
X135470000Y-121882843D01*
X135544689Y-121875487D01*
X135572597Y-121867021D01*
X141332877Y-121867021D01*
X141387091Y-122363422D01*
X141537106Y-122839707D01*
X141747133Y-123232638D01*
X142103651Y-123436744D01*
X143700395Y-121840000D01*
X144059605Y-121840000D01*
X145656349Y-123436744D01*
X146012867Y-123232638D01*
X146243575Y-122789777D01*
X146383452Y-122310417D01*
X146422725Y-121863071D01*
X148482352Y-121863071D01*
X148537727Y-122379159D01*
X148692721Y-122874526D01*
X148915742Y-123291772D01*
X149282501Y-123507894D01*
X150950395Y-121840000D01*
X149282501Y-120172106D01*
X148915742Y-120388228D01*
X148675062Y-120848105D01*
X148528725Y-121346098D01*
X148482352Y-121863071D01*
X146422725Y-121863071D01*
X146427123Y-121812979D01*
X146372909Y-121316578D01*
X146222894Y-120840293D01*
X146012867Y-120447362D01*
X145656349Y-120243256D01*
X144059605Y-121840000D01*
X143700395Y-121840000D01*
X142103651Y-120243256D01*
X141747133Y-120447362D01*
X141516425Y-120890223D01*
X141376548Y-121369583D01*
X141332877Y-121867021D01*
X135572597Y-121867021D01*
X135616508Y-121853701D01*
X135682696Y-121818322D01*
X135740711Y-121770711D01*
X135788322Y-121712696D01*
X135823701Y-121646508D01*
X135845487Y-121574689D01*
X135852843Y-121500000D01*
X135852843Y-120063651D01*
X142283256Y-120063651D01*
X143880000Y-121660395D01*
X145476744Y-120063651D01*
X145272638Y-119707133D01*
X144829777Y-119476425D01*
X144350417Y-119336548D01*
X143852979Y-119292877D01*
X143356578Y-119347091D01*
X142880293Y-119497106D01*
X142487362Y-119707133D01*
X142283256Y-120063651D01*
X135852843Y-120063651D01*
X135852843Y-119800000D01*
X135845487Y-119725311D01*
X135823701Y-119653492D01*
X135788322Y-119587304D01*
X135740711Y-119529289D01*
X135682696Y-119481678D01*
X135616508Y-119446299D01*
X135544689Y-119424513D01*
X135470000Y-119417157D01*
X133770000Y-119417157D01*
X133695311Y-119424513D01*
X133623492Y-119446299D01*
X133557304Y-119481678D01*
X133499289Y-119529289D01*
X133451678Y-119587304D01*
X133416299Y-119653492D01*
X133394513Y-119725311D01*
X133387157Y-119800000D01*
X132970897Y-119800000D01*
X132864717Y-119693820D01*
X132663097Y-119559102D01*
X132439069Y-119466307D01*
X132201243Y-119419000D01*
X131958757Y-119419000D01*
X131720931Y-119466307D01*
X131496903Y-119559102D01*
X131295283Y-119693820D01*
X131123820Y-119865283D01*
X130989102Y-120066903D01*
X130896307Y-120290931D01*
X130849000Y-120528757D01*
X126873000Y-120528757D01*
X126873000Y-115213110D01*
X130638524Y-115213110D01*
X130759845Y-115443000D01*
X131953000Y-115443000D01*
X131953000Y-115423000D01*
X132207000Y-115423000D01*
X132207000Y-115443000D01*
X132227000Y-115443000D01*
X132227000Y-115697000D01*
X132207000Y-115697000D01*
X132207000Y-115717000D01*
X131953000Y-115717000D01*
X131953000Y-115697000D01*
X130759845Y-115697000D01*
X130638524Y-115926890D01*
X130683175Y-116074099D01*
X130808359Y-116336920D01*
X130982412Y-116570269D01*
X131198645Y-116765178D01*
X131448748Y-116914157D01*
X131611168Y-116971772D01*
X131496903Y-117019102D01*
X131295283Y-117153820D01*
X131123820Y-117325283D01*
X130989102Y-117526903D01*
X130896307Y-117750931D01*
X130849000Y-117988757D01*
X130849000Y-118231243D01*
X130896307Y-118469069D01*
X130989102Y-118693097D01*
X131123820Y-118894717D01*
X131295283Y-119066180D01*
X131496903Y-119200898D01*
X131720931Y-119293693D01*
X131958757Y-119341000D01*
X132201243Y-119341000D01*
X132439069Y-119293693D01*
X132663097Y-119200898D01*
X132864717Y-119066180D01*
X133036180Y-118894717D01*
X133170898Y-118693097D01*
X133263693Y-118469069D01*
X133311000Y-118231243D01*
X133311000Y-117988757D01*
X133389000Y-117988757D01*
X133389000Y-118231243D01*
X133436307Y-118469069D01*
X133529102Y-118693097D01*
X133663820Y-118894717D01*
X133835283Y-119066180D01*
X134036903Y-119200898D01*
X134260931Y-119293693D01*
X134498757Y-119341000D01*
X134741243Y-119341000D01*
X134979069Y-119293693D01*
X135203097Y-119200898D01*
X135404717Y-119066180D01*
X135576180Y-118894717D01*
X135710898Y-118693097D01*
X135803693Y-118469069D01*
X135851000Y-118231243D01*
X135851000Y-117988757D01*
X135803693Y-117750931D01*
X135710898Y-117526903D01*
X135576180Y-117325283D01*
X135404717Y-117153820D01*
X135203097Y-117019102D01*
X134979069Y-116926307D01*
X134741243Y-116879000D01*
X134498757Y-116879000D01*
X134260931Y-116926307D01*
X134036903Y-117019102D01*
X133835283Y-117153820D01*
X133663820Y-117325283D01*
X133529102Y-117526903D01*
X133436307Y-117750931D01*
X133389000Y-117988757D01*
X133311000Y-117988757D01*
X133263693Y-117750931D01*
X133170898Y-117526903D01*
X133036180Y-117325283D01*
X132864717Y-117153820D01*
X132663097Y-117019102D01*
X132548832Y-116971772D01*
X132711252Y-116914157D01*
X132961355Y-116765178D01*
X133177588Y-116570269D01*
X133351641Y-116336920D01*
X133476825Y-116074099D01*
X133485091Y-116046846D01*
X133529102Y-116153097D01*
X133663820Y-116354717D01*
X133835283Y-116526180D01*
X134036903Y-116660898D01*
X134260931Y-116753693D01*
X134498757Y-116801000D01*
X134741243Y-116801000D01*
X134979069Y-116753693D01*
X135203097Y-116660898D01*
X135404717Y-116526180D01*
X135576180Y-116354717D01*
X135710898Y-116153097D01*
X135803693Y-115929069D01*
X135851000Y-115691243D01*
X135851000Y-115448757D01*
X135803693Y-115210931D01*
X135710898Y-114986903D01*
X135679559Y-114940000D01*
X141597157Y-114940000D01*
X141597157Y-118740000D01*
X141604513Y-118814689D01*
X141626299Y-118886508D01*
X141661678Y-118952696D01*
X141709289Y-119010711D01*
X141767304Y-119058322D01*
X141833492Y-119093701D01*
X141905311Y-119115487D01*
X141980000Y-119122843D01*
X145780000Y-119122843D01*
X145854689Y-119115487D01*
X145926508Y-119093701D01*
X145992696Y-119058322D01*
X146050711Y-119010711D01*
X146098322Y-118952696D01*
X146133701Y-118886508D01*
X146155487Y-118814689D01*
X146162843Y-118740000D01*
X146162843Y-114940000D01*
X148847157Y-114940000D01*
X148847157Y-118740000D01*
X148854513Y-118814689D01*
X148876299Y-118886508D01*
X148911678Y-118952696D01*
X148959289Y-119010711D01*
X149017304Y-119058322D01*
X149083492Y-119093701D01*
X149155311Y-119115487D01*
X149230000Y-119122843D01*
X152694422Y-119122843D01*
X152766781Y-119195202D01*
X152766781Y-119939703D01*
X152581772Y-119625742D01*
X152121895Y-119385062D01*
X151623902Y-119238725D01*
X151106929Y-119192352D01*
X150590841Y-119247727D01*
X150095474Y-119402721D01*
X149678228Y-119625742D01*
X149462106Y-119992501D01*
X151130000Y-121660395D01*
X151144143Y-121646253D01*
X151323748Y-121825858D01*
X151309605Y-121840000D01*
X152977499Y-123507894D01*
X153321036Y-123305456D01*
X155579150Y-125563571D01*
X155595052Y-125582948D01*
X155614429Y-125598850D01*
X155672404Y-125646429D01*
X155760655Y-125693600D01*
X155760657Y-125693601D01*
X155856415Y-125722649D01*
X155931053Y-125730000D01*
X155931055Y-125730000D01*
X155955999Y-125732457D01*
X155980943Y-125730000D01*
X168123056Y-125730000D01*
X168148000Y-125732457D01*
X168172944Y-125730000D01*
X168172947Y-125730000D01*
X168247585Y-125722649D01*
X168343343Y-125693601D01*
X168431595Y-125646429D01*
X168508948Y-125582948D01*
X168524855Y-125563565D01*
X171759000Y-122329421D01*
X171759000Y-122635262D01*
X171831286Y-122998667D01*
X171973080Y-123340987D01*
X172178932Y-123649067D01*
X172440933Y-123911068D01*
X172749013Y-124116920D01*
X173091333Y-124258714D01*
X173454738Y-124331000D01*
X173825262Y-124331000D01*
X174188667Y-124258714D01*
X174530987Y-124116920D01*
X174839067Y-123911068D01*
X175101068Y-123649067D01*
X175306920Y-123340987D01*
X175448714Y-122998667D01*
X175521000Y-122635262D01*
X175521000Y-122264738D01*
X177439000Y-122264738D01*
X177439000Y-122635262D01*
X177511286Y-122998667D01*
X177653080Y-123340987D01*
X177858932Y-123649067D01*
X178120933Y-123911068D01*
X178429013Y-124116920D01*
X178771333Y-124258714D01*
X179134738Y-124331000D01*
X179505262Y-124331000D01*
X179868667Y-124258714D01*
X180210987Y-124116920D01*
X180519067Y-123911068D01*
X180781068Y-123649067D01*
X180986920Y-123340987D01*
X181128714Y-122998667D01*
X181201000Y-122635262D01*
X181201000Y-122264738D01*
X181128714Y-121901333D01*
X180986920Y-121559013D01*
X180781068Y-121250933D01*
X180519067Y-120988932D01*
X180210987Y-120783080D01*
X179868667Y-120641286D01*
X179505262Y-120569000D01*
X179134738Y-120569000D01*
X178771333Y-120641286D01*
X178429013Y-120783080D01*
X178120933Y-120988932D01*
X177858932Y-121250933D01*
X177653080Y-121559013D01*
X177511286Y-121901333D01*
X177439000Y-122264738D01*
X175521000Y-122264738D01*
X175448714Y-121901333D01*
X175306920Y-121559013D01*
X175101068Y-121250933D01*
X174839067Y-120988932D01*
X174530987Y-120783080D01*
X174188667Y-120641286D01*
X173825262Y-120569000D01*
X173519420Y-120569000D01*
X173575577Y-120512843D01*
X174740000Y-120512843D01*
X174814689Y-120505487D01*
X174886508Y-120483701D01*
X174952696Y-120448322D01*
X175010711Y-120400711D01*
X175058322Y-120342696D01*
X175093701Y-120276508D01*
X175115487Y-120204689D01*
X175122843Y-120130000D01*
X175122843Y-119888000D01*
X175596235Y-119888000D01*
X175607721Y-119915729D01*
X175731495Y-120100970D01*
X175889030Y-120258505D01*
X176074271Y-120382279D01*
X176280100Y-120467536D01*
X176498606Y-120511000D01*
X176721394Y-120511000D01*
X176939900Y-120467536D01*
X177145729Y-120382279D01*
X177330970Y-120258505D01*
X177488505Y-120100970D01*
X177612279Y-119915729D01*
X177697536Y-119709900D01*
X177741000Y-119491394D01*
X177741000Y-119268606D01*
X177697536Y-119050100D01*
X177686050Y-119022371D01*
X177846352Y-118862069D01*
X177865729Y-118846167D01*
X177912285Y-118789438D01*
X177929210Y-118768815D01*
X177976381Y-118680564D01*
X177976382Y-118680561D01*
X178005430Y-118584804D01*
X178012781Y-118510166D01*
X178012781Y-118510164D01*
X178015238Y-118485220D01*
X178012781Y-118460276D01*
X178012781Y-110662916D01*
X178120933Y-110771068D01*
X178429013Y-110976920D01*
X178771333Y-111118714D01*
X179134738Y-111191000D01*
X179505262Y-111191000D01*
X179868667Y-111118714D01*
X180210987Y-110976920D01*
X180519067Y-110771068D01*
X180781068Y-110509067D01*
X180986920Y-110200987D01*
X181128714Y-109858667D01*
X181201000Y-109495262D01*
X181201000Y-109124738D01*
X181128714Y-108761333D01*
X180986920Y-108419013D01*
X180781068Y-108110933D01*
X180519067Y-107848932D01*
X180210987Y-107643080D01*
X179868667Y-107501286D01*
X179505262Y-107429000D01*
X179134738Y-107429000D01*
X178771333Y-107501286D01*
X178429013Y-107643080D01*
X178120933Y-107848932D01*
X178012781Y-107957084D01*
X178012781Y-104752916D01*
X178120933Y-104861068D01*
X178429013Y-105066920D01*
X178771333Y-105208714D01*
X179134738Y-105281000D01*
X179505262Y-105281000D01*
X179868667Y-105208714D01*
X180210987Y-105066920D01*
X180519067Y-104861068D01*
X180781068Y-104599067D01*
X180986920Y-104290987D01*
X181128714Y-103948667D01*
X181201000Y-103585262D01*
X181201000Y-103214738D01*
X181128714Y-102851333D01*
X180986920Y-102509013D01*
X180781068Y-102200933D01*
X180519067Y-101938932D01*
X180210987Y-101733080D01*
X179868667Y-101591286D01*
X179505262Y-101519000D01*
X179134738Y-101519000D01*
X178771333Y-101591286D01*
X178429013Y-101733080D01*
X178120933Y-101938932D01*
X178012781Y-102047084D01*
X178012781Y-101249724D01*
X178015238Y-101224780D01*
X178012781Y-101199834D01*
X178005430Y-101125196D01*
X177976382Y-101029438D01*
X177960834Y-101000350D01*
X177929210Y-100941185D01*
X177881631Y-100883210D01*
X177865729Y-100863833D01*
X177846352Y-100847931D01*
X177686050Y-100687629D01*
X177697536Y-100659900D01*
X177741000Y-100441394D01*
X177741000Y-100218606D01*
X177697536Y-100000100D01*
X177686050Y-99972371D01*
X177846352Y-99812069D01*
X177865729Y-99796167D01*
X177884405Y-99773409D01*
X177929210Y-99718815D01*
X177976381Y-99630564D01*
X177976382Y-99630561D01*
X178005430Y-99534804D01*
X178012781Y-99460166D01*
X178012781Y-99460164D01*
X178015238Y-99435220D01*
X178012781Y-99410276D01*
X178012781Y-91612916D01*
X178120933Y-91721068D01*
X178429013Y-91926920D01*
X178771333Y-92068714D01*
X179134738Y-92141000D01*
X179505262Y-92141000D01*
X179868667Y-92068714D01*
X180210987Y-91926920D01*
X180519067Y-91721068D01*
X180781068Y-91459067D01*
X180986920Y-91150987D01*
X181128714Y-90808667D01*
X181201000Y-90445262D01*
X181201000Y-90074738D01*
X181128714Y-89711333D01*
X180986920Y-89369013D01*
X180781068Y-89060933D01*
X180519067Y-88798932D01*
X180210987Y-88593080D01*
X179868667Y-88451286D01*
X179505262Y-88379000D01*
X179134738Y-88379000D01*
X178771333Y-88451286D01*
X178429013Y-88593080D01*
X178120933Y-88798932D01*
X178012781Y-88907084D01*
X178012781Y-85702916D01*
X178120933Y-85811068D01*
X178429013Y-86016920D01*
X178771333Y-86158714D01*
X179134738Y-86231000D01*
X179505262Y-86231000D01*
X179868667Y-86158714D01*
X180210987Y-86016920D01*
X180519067Y-85811068D01*
X180781068Y-85549067D01*
X180986920Y-85240987D01*
X181128714Y-84898667D01*
X181201000Y-84535262D01*
X181201000Y-84164738D01*
X181128714Y-83801333D01*
X180986920Y-83459013D01*
X180781068Y-83150933D01*
X180519067Y-82888932D01*
X180210987Y-82683080D01*
X179868667Y-82541286D01*
X179505262Y-82469000D01*
X179134738Y-82469000D01*
X178771333Y-82541286D01*
X178429013Y-82683080D01*
X178120933Y-82888932D01*
X178012781Y-82997084D01*
X178012781Y-82199724D01*
X178015238Y-82174780D01*
X178011877Y-82140657D01*
X178005430Y-82075196D01*
X177976382Y-81979438D01*
X177969682Y-81966903D01*
X177929210Y-81891185D01*
X177881631Y-81833210D01*
X177865729Y-81813833D01*
X177846352Y-81797931D01*
X177686050Y-81637629D01*
X177697536Y-81609900D01*
X177741000Y-81391394D01*
X177741000Y-81168606D01*
X177697536Y-80950100D01*
X177612279Y-80744271D01*
X177488505Y-80559030D01*
X177330970Y-80401495D01*
X177145729Y-80277721D01*
X176939900Y-80192464D01*
X176721394Y-80149000D01*
X176498606Y-80149000D01*
X176280100Y-80192464D01*
X176074271Y-80277721D01*
X175889030Y-80401495D01*
X175731495Y-80559030D01*
X175607721Y-80744271D01*
X175596235Y-80772000D01*
X175122843Y-80772000D01*
X175122843Y-80530000D01*
X175115487Y-80455311D01*
X175093701Y-80383492D01*
X175058322Y-80317304D01*
X175010711Y-80259289D01*
X174952696Y-80211678D01*
X174886508Y-80176299D01*
X174814689Y-80154513D01*
X174740000Y-80147157D01*
X173341264Y-80147157D01*
X173632371Y-79856050D01*
X173660100Y-79867536D01*
X173878606Y-79911000D01*
X174101394Y-79911000D01*
X174319900Y-79867536D01*
X174525729Y-79782279D01*
X174710970Y-79658505D01*
X174868505Y-79500970D01*
X174992279Y-79315729D01*
X175003765Y-79288000D01*
X175596235Y-79288000D01*
X175607721Y-79315729D01*
X175731495Y-79500970D01*
X175889030Y-79658505D01*
X176074271Y-79782279D01*
X176280100Y-79867536D01*
X176498606Y-79911000D01*
X176721394Y-79911000D01*
X176939900Y-79867536D01*
X177145729Y-79782279D01*
X177330970Y-79658505D01*
X177488505Y-79500970D01*
X177612279Y-79315729D01*
X177697536Y-79109900D01*
X177741000Y-78891394D01*
X177741000Y-78668606D01*
X177697536Y-78450100D01*
X177612279Y-78244271D01*
X177488505Y-78059030D01*
X177330970Y-77901495D01*
X177149140Y-77780000D01*
X177330970Y-77658505D01*
X177488505Y-77500970D01*
X177612279Y-77315729D01*
X177697536Y-77109900D01*
X177741000Y-76891394D01*
X177741000Y-76668606D01*
X177697536Y-76450100D01*
X177612279Y-76244271D01*
X177488505Y-76059030D01*
X177330970Y-75901495D01*
X177145729Y-75777721D01*
X176939900Y-75692464D01*
X176763984Y-75657472D01*
X176952238Y-75628965D01*
X177208832Y-75536277D01*
X177321863Y-75475860D01*
X177387388Y-75236993D01*
X176610000Y-74459605D01*
X175832612Y-75236993D01*
X175898137Y-75475860D01*
X176145116Y-75591760D01*
X176409960Y-75657250D01*
X176448257Y-75659015D01*
X176280100Y-75692464D01*
X176074271Y-75777721D01*
X175889030Y-75901495D01*
X175731495Y-76059030D01*
X175607721Y-76244271D01*
X175596235Y-76272000D01*
X175003765Y-76272000D01*
X174992279Y-76244271D01*
X174868505Y-76059030D01*
X174710970Y-75901495D01*
X174525729Y-75777721D01*
X174319900Y-75692464D01*
X174143984Y-75657472D01*
X174332238Y-75628965D01*
X174588832Y-75536277D01*
X174701863Y-75475860D01*
X174767388Y-75236993D01*
X173990000Y-74459605D01*
X173212612Y-75236993D01*
X173278137Y-75475860D01*
X173525116Y-75591760D01*
X173789960Y-75657250D01*
X173828257Y-75659015D01*
X173660100Y-75692464D01*
X173454271Y-75777721D01*
X173269030Y-75901495D01*
X173111495Y-76059030D01*
X172987721Y-76244271D01*
X172902464Y-76450100D01*
X172859000Y-76668606D01*
X172859000Y-76891394D01*
X172902464Y-77109900D01*
X172913950Y-77137629D01*
X168314435Y-81737145D01*
X168295052Y-81753052D01*
X168231571Y-81830405D01*
X168184399Y-81918658D01*
X168155351Y-82014416D01*
X168151610Y-82052405D01*
X168145543Y-82114000D01*
X168148000Y-82138944D01*
X168148001Y-91415046D01*
X168145543Y-91440000D01*
X168155352Y-91539584D01*
X168184400Y-91635343D01*
X168231571Y-91723595D01*
X168279150Y-91781570D01*
X168295053Y-91800948D01*
X168314430Y-91816850D01*
X172669145Y-96171565D01*
X172685052Y-96190948D01*
X172762405Y-96254429D01*
X172850657Y-96301601D01*
X172946415Y-96330649D01*
X172974329Y-96333398D01*
X172987721Y-96365729D01*
X173111495Y-96550970D01*
X173269030Y-96708505D01*
X173450860Y-96830000D01*
X173269030Y-96951495D01*
X173111495Y-97109030D01*
X172987721Y-97294271D01*
X172902464Y-97500100D01*
X172859000Y-97718606D01*
X172859000Y-97941394D01*
X172902464Y-98159900D01*
X172913950Y-98187629D01*
X171108430Y-99993150D01*
X171089053Y-100009052D01*
X171073151Y-100028429D01*
X171073150Y-100028430D01*
X171025571Y-100086405D01*
X170978400Y-100174657D01*
X170949352Y-100270416D01*
X170939543Y-100370000D01*
X170942001Y-100394954D01*
X170942000Y-103619333D01*
X170939543Y-103644277D01*
X170942000Y-103669221D01*
X170942000Y-103669223D01*
X170949351Y-103743861D01*
X170978399Y-103839619D01*
X171025571Y-103927872D01*
X171089052Y-104005225D01*
X171108435Y-104021132D01*
X174776782Y-107689480D01*
X174776782Y-107807315D01*
X174530987Y-107643080D01*
X174188667Y-107501286D01*
X173825262Y-107429000D01*
X173454738Y-107429000D01*
X173091333Y-107501286D01*
X172749013Y-107643080D01*
X172440933Y-107848932D01*
X172178932Y-108110933D01*
X171973080Y-108419013D01*
X171831286Y-108761333D01*
X171759000Y-109124738D01*
X171759000Y-109495262D01*
X171831286Y-109858667D01*
X171973080Y-110200987D01*
X172178932Y-110509067D01*
X172440933Y-110771068D01*
X172749013Y-110976920D01*
X173091333Y-111118714D01*
X173316680Y-111163538D01*
X173278137Y-111184140D01*
X173212612Y-111423007D01*
X173990000Y-112200395D01*
X174004143Y-112186253D01*
X174183748Y-112365858D01*
X174169605Y-112380000D01*
X174183748Y-112394143D01*
X174004143Y-112573748D01*
X173990000Y-112559605D01*
X173212612Y-113336993D01*
X173278137Y-113575860D01*
X173525116Y-113691760D01*
X173789960Y-113757250D01*
X173828257Y-113759015D01*
X173660100Y-113792464D01*
X173454271Y-113877721D01*
X173269030Y-114001495D01*
X173111495Y-114159030D01*
X172987721Y-114344271D01*
X172902464Y-114550100D01*
X172859000Y-114768606D01*
X172859000Y-114991394D01*
X172902464Y-115209900D01*
X172987721Y-115415729D01*
X173111495Y-115600970D01*
X173269030Y-115758505D01*
X173450860Y-115880000D01*
X173269030Y-116001495D01*
X173111495Y-116159030D01*
X172987721Y-116344271D01*
X172902464Y-116550100D01*
X172859000Y-116768606D01*
X172859000Y-116991394D01*
X172902464Y-117209900D01*
X172987721Y-117415729D01*
X173111495Y-117600970D01*
X173269030Y-117758505D01*
X173454271Y-117882279D01*
X173660100Y-117967536D01*
X173878606Y-118011000D01*
X174101394Y-118011000D01*
X174319900Y-117967536D01*
X174525729Y-117882279D01*
X174710970Y-117758505D01*
X174868505Y-117600970D01*
X174992279Y-117415729D01*
X175003765Y-117388000D01*
X175596235Y-117388000D01*
X175607721Y-117415729D01*
X175731495Y-117600970D01*
X175889030Y-117758505D01*
X176074271Y-117882279D01*
X176280100Y-117967536D01*
X176498606Y-118011000D01*
X176721394Y-118011000D01*
X176939900Y-117967536D01*
X176996781Y-117943975D01*
X176996781Y-118274798D01*
X176967629Y-118303950D01*
X176939900Y-118292464D01*
X176721394Y-118249000D01*
X176498606Y-118249000D01*
X176280100Y-118292464D01*
X176074271Y-118377721D01*
X175889030Y-118501495D01*
X175731495Y-118659030D01*
X175607721Y-118844271D01*
X175596235Y-118872000D01*
X175122843Y-118872000D01*
X175122843Y-118630000D01*
X175115487Y-118555311D01*
X175093701Y-118483492D01*
X175058322Y-118417304D01*
X175010711Y-118359289D01*
X174952696Y-118311678D01*
X174886508Y-118276299D01*
X174814689Y-118254513D01*
X174740000Y-118247157D01*
X173240000Y-118247157D01*
X173165311Y-118254513D01*
X173093492Y-118276299D01*
X173027304Y-118311678D01*
X172969289Y-118359289D01*
X172921678Y-118417304D01*
X172886299Y-118483492D01*
X172864513Y-118555311D01*
X172857157Y-118630000D01*
X172857157Y-119794423D01*
X171558654Y-121092926D01*
X171558648Y-121092931D01*
X167937580Y-124714000D01*
X156166421Y-124714000D01*
X153782781Y-122330361D01*
X153782781Y-119975000D01*
X157692157Y-119975000D01*
X157692157Y-121325000D01*
X157699513Y-121399689D01*
X157721299Y-121471508D01*
X157756678Y-121537696D01*
X157804289Y-121595711D01*
X157862304Y-121643322D01*
X157928492Y-121678701D01*
X158000311Y-121700487D01*
X158075000Y-121707843D01*
X159425000Y-121707843D01*
X159499689Y-121700487D01*
X159571508Y-121678701D01*
X159637696Y-121643322D01*
X159695711Y-121595711D01*
X159743322Y-121537696D01*
X159778701Y-121471508D01*
X159800487Y-121399689D01*
X159807843Y-121325000D01*
X159807843Y-121134893D01*
X159814185Y-121150204D01*
X159929751Y-121323161D01*
X160076839Y-121470249D01*
X160249796Y-121585815D01*
X160441976Y-121665419D01*
X160645993Y-121706000D01*
X160854007Y-121706000D01*
X161058024Y-121665419D01*
X161250204Y-121585815D01*
X161423161Y-121470249D01*
X161570249Y-121323161D01*
X161685815Y-121150204D01*
X161750000Y-120995249D01*
X161814185Y-121150204D01*
X161929751Y-121323161D01*
X162076839Y-121470249D01*
X162249796Y-121585815D01*
X162441976Y-121665419D01*
X162645993Y-121706000D01*
X162854007Y-121706000D01*
X163058024Y-121665419D01*
X163250204Y-121585815D01*
X163423161Y-121470249D01*
X163570249Y-121323161D01*
X163603286Y-121273717D01*
X163704656Y-121439537D01*
X163878773Y-121628303D01*
X164086371Y-121779473D01*
X164319472Y-121887238D01*
X164420600Y-121917910D01*
X164623000Y-121794224D01*
X164623000Y-120777000D01*
X164877000Y-120777000D01*
X164877000Y-121794224D01*
X165079400Y-121917910D01*
X165180528Y-121887238D01*
X165413629Y-121779473D01*
X165621227Y-121628303D01*
X165795344Y-121439537D01*
X165929289Y-121220430D01*
X166017915Y-120979401D01*
X165895085Y-120777000D01*
X164877000Y-120777000D01*
X164623000Y-120777000D01*
X164603000Y-120777000D01*
X164603000Y-120523000D01*
X164623000Y-120523000D01*
X164623000Y-119505776D01*
X164877000Y-119505776D01*
X164877000Y-120523000D01*
X165895085Y-120523000D01*
X166017915Y-120320599D01*
X165929289Y-120079570D01*
X165795344Y-119860463D01*
X165621227Y-119671697D01*
X165413629Y-119520527D01*
X165180528Y-119412762D01*
X165079400Y-119382090D01*
X164877000Y-119505776D01*
X164623000Y-119505776D01*
X164420600Y-119382090D01*
X164319472Y-119412762D01*
X164086371Y-119520527D01*
X163878773Y-119671697D01*
X163704656Y-119860463D01*
X163603286Y-120026283D01*
X163570249Y-119976839D01*
X163423161Y-119829751D01*
X163250204Y-119714185D01*
X163058024Y-119634581D01*
X162854007Y-119594000D01*
X162645993Y-119594000D01*
X162441976Y-119634581D01*
X162249796Y-119714185D01*
X162076839Y-119829751D01*
X161929751Y-119976839D01*
X161814185Y-120149796D01*
X161750000Y-120304751D01*
X161685815Y-120149796D01*
X161570249Y-119976839D01*
X161423161Y-119829751D01*
X161250204Y-119714185D01*
X161058024Y-119634581D01*
X160854007Y-119594000D01*
X160645993Y-119594000D01*
X160494234Y-119624186D01*
X165441571Y-114676850D01*
X165460948Y-114660948D01*
X165493176Y-114621678D01*
X165524429Y-114583596D01*
X165559431Y-114518111D01*
X165571601Y-114495343D01*
X165600649Y-114399585D01*
X165608000Y-114324947D01*
X165608000Y-114324945D01*
X165610457Y-114300001D01*
X165608000Y-114275057D01*
X165608000Y-112452492D01*
X172600188Y-112452492D01*
X172641035Y-112722238D01*
X172733723Y-112978832D01*
X172794140Y-113091863D01*
X173033007Y-113157388D01*
X173810395Y-112380000D01*
X173033007Y-111602612D01*
X172794140Y-111668137D01*
X172678240Y-111915116D01*
X172612750Y-112179960D01*
X172600188Y-112452492D01*
X165608000Y-112452492D01*
X165608000Y-97089631D01*
X165691884Y-97005747D01*
X165775276Y-96880942D01*
X165832717Y-96742267D01*
X165862000Y-96595050D01*
X165862000Y-96444950D01*
X165832717Y-96297733D01*
X165775276Y-96159058D01*
X165691884Y-96034253D01*
X165585747Y-95928116D01*
X165460942Y-95844724D01*
X165322267Y-95787283D01*
X165175050Y-95758000D01*
X165024950Y-95758000D01*
X164877733Y-95787283D01*
X164739058Y-95844724D01*
X164614253Y-95928116D01*
X164508116Y-96034253D01*
X164424724Y-96159058D01*
X164367283Y-96297733D01*
X164338000Y-96444950D01*
X164338000Y-96595050D01*
X164367283Y-96742267D01*
X164424724Y-96880942D01*
X164508116Y-97005747D01*
X164592000Y-97089631D01*
X164592001Y-114089578D01*
X159089423Y-119592157D01*
X158075000Y-119592157D01*
X158000311Y-119599513D01*
X157928492Y-119621299D01*
X157862304Y-119656678D01*
X157804289Y-119704289D01*
X157756678Y-119762304D01*
X157721299Y-119828492D01*
X157699513Y-119900311D01*
X157692157Y-119975000D01*
X153782781Y-119975000D01*
X153782781Y-119009724D01*
X153785238Y-118984780D01*
X153777715Y-118908400D01*
X153775430Y-118885196D01*
X153746382Y-118789438D01*
X153719957Y-118740000D01*
X153699210Y-118701185D01*
X153651631Y-118643210D01*
X153635729Y-118623833D01*
X153616352Y-118607931D01*
X153412843Y-118404422D01*
X153412843Y-114940000D01*
X153405487Y-114865311D01*
X153383701Y-114793492D01*
X153348322Y-114727304D01*
X153300711Y-114669289D01*
X153242696Y-114621678D01*
X153176508Y-114586299D01*
X153104689Y-114564513D01*
X153030000Y-114557157D01*
X149230000Y-114557157D01*
X149155311Y-114564513D01*
X149083492Y-114586299D01*
X149017304Y-114621678D01*
X148959289Y-114669289D01*
X148911678Y-114727304D01*
X148876299Y-114793492D01*
X148854513Y-114865311D01*
X148847157Y-114940000D01*
X146162843Y-114940000D01*
X146155487Y-114865311D01*
X146133701Y-114793492D01*
X146098322Y-114727304D01*
X146050711Y-114669289D01*
X145992696Y-114621678D01*
X145926508Y-114586299D01*
X145854689Y-114564513D01*
X145780000Y-114557157D01*
X141980000Y-114557157D01*
X141905311Y-114564513D01*
X141833492Y-114586299D01*
X141767304Y-114621678D01*
X141709289Y-114669289D01*
X141661678Y-114727304D01*
X141626299Y-114793492D01*
X141604513Y-114865311D01*
X141597157Y-114940000D01*
X135679559Y-114940000D01*
X135576180Y-114785283D01*
X135404717Y-114613820D01*
X135203097Y-114479102D01*
X134979069Y-114386307D01*
X134741243Y-114339000D01*
X134498757Y-114339000D01*
X134260931Y-114386307D01*
X134036903Y-114479102D01*
X133835283Y-114613820D01*
X133663820Y-114785283D01*
X133529102Y-114986903D01*
X133485091Y-115093154D01*
X133476825Y-115065901D01*
X133351641Y-114803080D01*
X133177588Y-114569731D01*
X132961355Y-114374822D01*
X132711252Y-114225843D01*
X132548832Y-114168228D01*
X132663097Y-114120898D01*
X132864717Y-113986180D01*
X133036180Y-113814717D01*
X133170898Y-113613097D01*
X133263693Y-113389069D01*
X133311000Y-113151243D01*
X133311000Y-112908757D01*
X133263693Y-112670931D01*
X133170898Y-112446903D01*
X133036180Y-112245283D01*
X132864717Y-112073820D01*
X132663097Y-111939102D01*
X132439069Y-111846307D01*
X132201243Y-111799000D01*
X131958757Y-111799000D01*
X131720931Y-111846307D01*
X131496903Y-111939102D01*
X131295283Y-112073820D01*
X131123820Y-112245283D01*
X130989102Y-112446903D01*
X130896307Y-112670931D01*
X130849000Y-112908757D01*
X130849000Y-113151243D01*
X130896307Y-113389069D01*
X130989102Y-113613097D01*
X131123820Y-113814717D01*
X131295283Y-113986180D01*
X131496903Y-114120898D01*
X131611168Y-114168228D01*
X131448748Y-114225843D01*
X131198645Y-114374822D01*
X130982412Y-114569731D01*
X130808359Y-114803080D01*
X130683175Y-115065901D01*
X130638524Y-115213110D01*
X126873000Y-115213110D01*
X126873000Y-110368757D01*
X130849000Y-110368757D01*
X130849000Y-110611243D01*
X130896307Y-110849069D01*
X130989102Y-111073097D01*
X131123820Y-111274717D01*
X131295283Y-111446180D01*
X131496903Y-111580898D01*
X131720931Y-111673693D01*
X131958757Y-111721000D01*
X132201243Y-111721000D01*
X132439069Y-111673693D01*
X132663097Y-111580898D01*
X132864717Y-111446180D01*
X133036180Y-111274717D01*
X133170898Y-111073097D01*
X133214909Y-110966846D01*
X133223175Y-110994099D01*
X133348359Y-111256920D01*
X133522412Y-111490269D01*
X133738645Y-111685178D01*
X133988748Y-111834157D01*
X134151168Y-111891772D01*
X134036903Y-111939102D01*
X133835283Y-112073820D01*
X133663820Y-112245283D01*
X133529102Y-112446903D01*
X133436307Y-112670931D01*
X133389000Y-112908757D01*
X133389000Y-113151243D01*
X133436307Y-113389069D01*
X133529102Y-113613097D01*
X133663820Y-113814717D01*
X133835283Y-113986180D01*
X134036903Y-114120898D01*
X134260931Y-114213693D01*
X134498757Y-114261000D01*
X134741243Y-114261000D01*
X134979069Y-114213693D01*
X135203097Y-114120898D01*
X135404717Y-113986180D01*
X135576180Y-113814717D01*
X135710898Y-113613097D01*
X135803693Y-113389069D01*
X135851000Y-113151243D01*
X135851000Y-112908757D01*
X135803693Y-112670931D01*
X135710898Y-112446903D01*
X135576180Y-112245283D01*
X135404717Y-112073820D01*
X135203097Y-111939102D01*
X135088832Y-111891772D01*
X135251252Y-111834157D01*
X135501355Y-111685178D01*
X135717588Y-111490269D01*
X135891641Y-111256920D01*
X136016825Y-110994099D01*
X136061476Y-110846890D01*
X135940155Y-110617000D01*
X134747000Y-110617000D01*
X134747000Y-110637000D01*
X134493000Y-110637000D01*
X134493000Y-110617000D01*
X134473000Y-110617000D01*
X134473000Y-110363000D01*
X134493000Y-110363000D01*
X134493000Y-110343000D01*
X134747000Y-110343000D01*
X134747000Y-110363000D01*
X135940155Y-110363000D01*
X136061476Y-110133110D01*
X136016825Y-109985901D01*
X135891641Y-109723080D01*
X135717588Y-109489731D01*
X135501355Y-109294822D01*
X135251252Y-109145843D01*
X135088832Y-109088228D01*
X135203097Y-109040898D01*
X135404717Y-108906180D01*
X135576180Y-108734717D01*
X135710898Y-108533097D01*
X135803693Y-108309069D01*
X135851000Y-108071243D01*
X135851000Y-107828757D01*
X135803693Y-107590931D01*
X135710898Y-107366903D01*
X135576180Y-107165283D01*
X135404717Y-106993820D01*
X135203097Y-106859102D01*
X135183226Y-106850871D01*
X159012079Y-106850871D01*
X159012079Y-107000971D01*
X159041362Y-107148188D01*
X159098803Y-107286863D01*
X159182195Y-107411668D01*
X159288332Y-107517805D01*
X159413137Y-107601197D01*
X159551812Y-107658638D01*
X159699029Y-107687921D01*
X159849129Y-107687921D01*
X159996346Y-107658638D01*
X160135021Y-107601197D01*
X160259826Y-107517805D01*
X160365963Y-107411668D01*
X160449355Y-107286863D01*
X160506796Y-107148188D01*
X160536079Y-107000971D01*
X160536079Y-106850871D01*
X160506796Y-106703654D01*
X160449355Y-106564979D01*
X160365963Y-106440174D01*
X160282079Y-106356290D01*
X160282079Y-99516341D01*
X161631571Y-98166850D01*
X161650948Y-98150948D01*
X161666855Y-98131565D01*
X162901571Y-96896850D01*
X162920948Y-96880948D01*
X162939624Y-96858190D01*
X162984429Y-96803596D01*
X163031600Y-96715345D01*
X163033675Y-96708505D01*
X163060649Y-96619585D01*
X163068000Y-96544947D01*
X163068000Y-96544945D01*
X163070457Y-96520001D01*
X163068000Y-96495053D01*
X163068000Y-95819631D01*
X163151884Y-95735747D01*
X163235276Y-95610942D01*
X163292717Y-95472267D01*
X163322000Y-95325050D01*
X163322000Y-95174950D01*
X163292717Y-95027733D01*
X163235276Y-94889058D01*
X163151884Y-94764253D01*
X163045747Y-94658116D01*
X162920942Y-94574724D01*
X162782267Y-94517283D01*
X162635050Y-94488000D01*
X162484950Y-94488000D01*
X162337733Y-94517283D01*
X162199058Y-94574724D01*
X162074253Y-94658116D01*
X161968116Y-94764253D01*
X161884724Y-94889058D01*
X161827283Y-95027733D01*
X161798000Y-95174950D01*
X161798000Y-95325050D01*
X161827283Y-95472267D01*
X161884724Y-95610942D01*
X161968116Y-95735747D01*
X162052001Y-95819632D01*
X162052000Y-96309579D01*
X160948435Y-97413145D01*
X160929052Y-97429052D01*
X160913150Y-97448429D01*
X159432509Y-98929071D01*
X159413132Y-98944973D01*
X159397230Y-98964350D01*
X159397229Y-98964351D01*
X159349650Y-99022326D01*
X159302479Y-99110578D01*
X159275657Y-99199000D01*
X159273431Y-99206337D01*
X159263622Y-99305921D01*
X159266080Y-99330875D01*
X159266079Y-100600867D01*
X159266080Y-100600877D01*
X159266079Y-106356290D01*
X159182195Y-106440174D01*
X159098803Y-106564979D01*
X159041362Y-106703654D01*
X159012079Y-106850871D01*
X135183226Y-106850871D01*
X134979069Y-106766307D01*
X134741243Y-106719000D01*
X134498757Y-106719000D01*
X134260931Y-106766307D01*
X134036903Y-106859102D01*
X133835283Y-106993820D01*
X133663820Y-107165283D01*
X133529102Y-107366903D01*
X133436307Y-107590931D01*
X133389000Y-107828757D01*
X133389000Y-108071243D01*
X133436307Y-108309069D01*
X133529102Y-108533097D01*
X133663820Y-108734717D01*
X133835283Y-108906180D01*
X134036903Y-109040898D01*
X134151168Y-109088228D01*
X133988748Y-109145843D01*
X133738645Y-109294822D01*
X133522412Y-109489731D01*
X133348359Y-109723080D01*
X133223175Y-109985901D01*
X133214909Y-110013154D01*
X133170898Y-109906903D01*
X133036180Y-109705283D01*
X132864717Y-109533820D01*
X132663097Y-109399102D01*
X132439069Y-109306307D01*
X132201243Y-109259000D01*
X131958757Y-109259000D01*
X131720931Y-109306307D01*
X131496903Y-109399102D01*
X131295283Y-109533820D01*
X131123820Y-109705283D01*
X130989102Y-109906903D01*
X130896307Y-110130931D01*
X130849000Y-110368757D01*
X126873000Y-110368757D01*
X126873000Y-107828757D01*
X130849000Y-107828757D01*
X130849000Y-108071243D01*
X130896307Y-108309069D01*
X130989102Y-108533097D01*
X131123820Y-108734717D01*
X131295283Y-108906180D01*
X131496903Y-109040898D01*
X131720931Y-109133693D01*
X131958757Y-109181000D01*
X132201243Y-109181000D01*
X132439069Y-109133693D01*
X132663097Y-109040898D01*
X132864717Y-108906180D01*
X133036180Y-108734717D01*
X133170898Y-108533097D01*
X133263693Y-108309069D01*
X133311000Y-108071243D01*
X133311000Y-107828757D01*
X133263693Y-107590931D01*
X133170898Y-107366903D01*
X133036180Y-107165283D01*
X132864717Y-106993820D01*
X132663097Y-106859102D01*
X132439069Y-106766307D01*
X132201243Y-106719000D01*
X131958757Y-106719000D01*
X131720931Y-106766307D01*
X131496903Y-106859102D01*
X131295283Y-106993820D01*
X131123820Y-107165283D01*
X130989102Y-107366903D01*
X130896307Y-107590931D01*
X130849000Y-107828757D01*
X126873000Y-107828757D01*
X126873000Y-105288757D01*
X130849000Y-105288757D01*
X130849000Y-105531243D01*
X130896307Y-105769069D01*
X130989102Y-105993097D01*
X131123820Y-106194717D01*
X131295283Y-106366180D01*
X131496903Y-106500898D01*
X131720931Y-106593693D01*
X131958757Y-106641000D01*
X132201243Y-106641000D01*
X132439069Y-106593693D01*
X132663097Y-106500898D01*
X132864717Y-106366180D01*
X133036180Y-106194717D01*
X133170898Y-105993097D01*
X133263693Y-105769069D01*
X133311000Y-105531243D01*
X133311000Y-105288757D01*
X133389000Y-105288757D01*
X133389000Y-105531243D01*
X133436307Y-105769069D01*
X133529102Y-105993097D01*
X133663820Y-106194717D01*
X133835283Y-106366180D01*
X134036903Y-106500898D01*
X134260931Y-106593693D01*
X134498757Y-106641000D01*
X134741243Y-106641000D01*
X134979069Y-106593693D01*
X135203097Y-106500898D01*
X135404717Y-106366180D01*
X135576180Y-106194717D01*
X135710898Y-105993097D01*
X135803693Y-105769069D01*
X135851000Y-105531243D01*
X135851000Y-105288757D01*
X135803693Y-105050931D01*
X135710898Y-104826903D01*
X135576180Y-104625283D01*
X135404717Y-104453820D01*
X135203097Y-104319102D01*
X134979069Y-104226307D01*
X134741243Y-104179000D01*
X134498757Y-104179000D01*
X134260931Y-104226307D01*
X134036903Y-104319102D01*
X133835283Y-104453820D01*
X133663820Y-104625283D01*
X133529102Y-104826903D01*
X133436307Y-105050931D01*
X133389000Y-105288757D01*
X133311000Y-105288757D01*
X133263693Y-105050931D01*
X133170898Y-104826903D01*
X133036180Y-104625283D01*
X132864717Y-104453820D01*
X132663097Y-104319102D01*
X132439069Y-104226307D01*
X132201243Y-104179000D01*
X131958757Y-104179000D01*
X131720931Y-104226307D01*
X131496903Y-104319102D01*
X131295283Y-104453820D01*
X131123820Y-104625283D01*
X130989102Y-104826903D01*
X130896307Y-105050931D01*
X130849000Y-105288757D01*
X126873000Y-105288757D01*
X126873000Y-102748757D01*
X130849000Y-102748757D01*
X130849000Y-102991243D01*
X130896307Y-103229069D01*
X130989102Y-103453097D01*
X131123820Y-103654717D01*
X131295283Y-103826180D01*
X131496903Y-103960898D01*
X131720931Y-104053693D01*
X131958757Y-104101000D01*
X132201243Y-104101000D01*
X132439069Y-104053693D01*
X132663097Y-103960898D01*
X132864717Y-103826180D01*
X133036180Y-103654717D01*
X133170898Y-103453097D01*
X133263693Y-103229069D01*
X133311000Y-102991243D01*
X133311000Y-102748757D01*
X133389000Y-102748757D01*
X133389000Y-102991243D01*
X133436307Y-103229069D01*
X133529102Y-103453097D01*
X133663820Y-103654717D01*
X133835283Y-103826180D01*
X134036903Y-103960898D01*
X134260931Y-104053693D01*
X134498757Y-104101000D01*
X134741243Y-104101000D01*
X134979069Y-104053693D01*
X135203097Y-103960898D01*
X135404717Y-103826180D01*
X135576180Y-103654717D01*
X135710898Y-103453097D01*
X135803693Y-103229069D01*
X135851000Y-102991243D01*
X135851000Y-102748757D01*
X135803693Y-102510931D01*
X135710898Y-102286903D01*
X135576180Y-102085283D01*
X135404717Y-101913820D01*
X135203097Y-101779102D01*
X134979069Y-101686307D01*
X134741243Y-101639000D01*
X134498757Y-101639000D01*
X134260931Y-101686307D01*
X134036903Y-101779102D01*
X133835283Y-101913820D01*
X133663820Y-102085283D01*
X133529102Y-102286903D01*
X133436307Y-102510931D01*
X133389000Y-102748757D01*
X133311000Y-102748757D01*
X133263693Y-102510931D01*
X133170898Y-102286903D01*
X133036180Y-102085283D01*
X132864717Y-101913820D01*
X132663097Y-101779102D01*
X132439069Y-101686307D01*
X132201243Y-101639000D01*
X131958757Y-101639000D01*
X131720931Y-101686307D01*
X131496903Y-101779102D01*
X131295283Y-101913820D01*
X131123820Y-102085283D01*
X130989102Y-102286903D01*
X130896307Y-102510931D01*
X130849000Y-102748757D01*
X126873000Y-102748757D01*
X126873000Y-100208757D01*
X130849000Y-100208757D01*
X130849000Y-100451243D01*
X130896307Y-100689069D01*
X130989102Y-100913097D01*
X131123820Y-101114717D01*
X131295283Y-101286180D01*
X131496903Y-101420898D01*
X131720931Y-101513693D01*
X131958757Y-101561000D01*
X132201243Y-101561000D01*
X132439069Y-101513693D01*
X132663097Y-101420898D01*
X132864717Y-101286180D01*
X133036180Y-101114717D01*
X133170898Y-100913097D01*
X133263693Y-100689069D01*
X133311000Y-100451243D01*
X133311000Y-100208757D01*
X133389000Y-100208757D01*
X133389000Y-100451243D01*
X133436307Y-100689069D01*
X133529102Y-100913097D01*
X133663820Y-101114717D01*
X133835283Y-101286180D01*
X134036903Y-101420898D01*
X134260931Y-101513693D01*
X134498757Y-101561000D01*
X134741243Y-101561000D01*
X134979069Y-101513693D01*
X135203097Y-101420898D01*
X135404717Y-101286180D01*
X135576180Y-101114717D01*
X135710898Y-100913097D01*
X135803693Y-100689069D01*
X135851000Y-100451243D01*
X135851000Y-100208757D01*
X135803693Y-99970931D01*
X135710898Y-99746903D01*
X135576180Y-99545283D01*
X135404717Y-99373820D01*
X135203097Y-99239102D01*
X134979069Y-99146307D01*
X134741243Y-99099000D01*
X134498757Y-99099000D01*
X134260931Y-99146307D01*
X134036903Y-99239102D01*
X133835283Y-99373820D01*
X133663820Y-99545283D01*
X133529102Y-99746903D01*
X133436307Y-99970931D01*
X133389000Y-100208757D01*
X133311000Y-100208757D01*
X133263693Y-99970931D01*
X133170898Y-99746903D01*
X133036180Y-99545283D01*
X132864717Y-99373820D01*
X132663097Y-99239102D01*
X132439069Y-99146307D01*
X132201243Y-99099000D01*
X131958757Y-99099000D01*
X131720931Y-99146307D01*
X131496903Y-99239102D01*
X131295283Y-99373820D01*
X131123820Y-99545283D01*
X130989102Y-99746903D01*
X130896307Y-99970931D01*
X130849000Y-100208757D01*
X126873000Y-100208757D01*
X126873000Y-97668757D01*
X130849000Y-97668757D01*
X130849000Y-97911243D01*
X130896307Y-98149069D01*
X130989102Y-98373097D01*
X131123820Y-98574717D01*
X131295283Y-98746180D01*
X131496903Y-98880898D01*
X131720931Y-98973693D01*
X131958757Y-99021000D01*
X132201243Y-99021000D01*
X132439069Y-98973693D01*
X132663097Y-98880898D01*
X132864717Y-98746180D01*
X133036180Y-98574717D01*
X133170898Y-98373097D01*
X133263693Y-98149069D01*
X133311000Y-97911243D01*
X133311000Y-97668757D01*
X133389000Y-97668757D01*
X133389000Y-97911243D01*
X133436307Y-98149069D01*
X133529102Y-98373097D01*
X133663820Y-98574717D01*
X133835283Y-98746180D01*
X134036903Y-98880898D01*
X134260931Y-98973693D01*
X134498757Y-99021000D01*
X134741243Y-99021000D01*
X134979069Y-98973693D01*
X135203097Y-98880898D01*
X135404717Y-98746180D01*
X135576180Y-98574717D01*
X135710898Y-98373097D01*
X135803693Y-98149069D01*
X135851000Y-97911243D01*
X135851000Y-97668757D01*
X135803693Y-97430931D01*
X135710898Y-97206903D01*
X135576180Y-97005283D01*
X135404717Y-96833820D01*
X135203097Y-96699102D01*
X134979069Y-96606307D01*
X134741243Y-96559000D01*
X134498757Y-96559000D01*
X134260931Y-96606307D01*
X134036903Y-96699102D01*
X133835283Y-96833820D01*
X133663820Y-97005283D01*
X133529102Y-97206903D01*
X133436307Y-97430931D01*
X133389000Y-97668757D01*
X133311000Y-97668757D01*
X133263693Y-97430931D01*
X133170898Y-97206903D01*
X133036180Y-97005283D01*
X132864717Y-96833820D01*
X132663097Y-96699102D01*
X132439069Y-96606307D01*
X132201243Y-96559000D01*
X131958757Y-96559000D01*
X131720931Y-96606307D01*
X131496903Y-96699102D01*
X131295283Y-96833820D01*
X131123820Y-97005283D01*
X130989102Y-97206903D01*
X130896307Y-97430931D01*
X130849000Y-97668757D01*
X126873000Y-97668757D01*
X126873000Y-95128757D01*
X130849000Y-95128757D01*
X130849000Y-95371243D01*
X130896307Y-95609069D01*
X130989102Y-95833097D01*
X131123820Y-96034717D01*
X131295283Y-96206180D01*
X131496903Y-96340898D01*
X131720931Y-96433693D01*
X131958757Y-96481000D01*
X132201243Y-96481000D01*
X132439069Y-96433693D01*
X132663097Y-96340898D01*
X132864717Y-96206180D01*
X133036180Y-96034717D01*
X133170898Y-95833097D01*
X133263693Y-95609069D01*
X133311000Y-95371243D01*
X133311000Y-95128757D01*
X133389000Y-95128757D01*
X133389000Y-95371243D01*
X133436307Y-95609069D01*
X133529102Y-95833097D01*
X133663820Y-96034717D01*
X133835283Y-96206180D01*
X134036903Y-96340898D01*
X134260931Y-96433693D01*
X134498757Y-96481000D01*
X134741243Y-96481000D01*
X134979069Y-96433693D01*
X135203097Y-96340898D01*
X135404717Y-96206180D01*
X135576180Y-96034717D01*
X135710898Y-95833097D01*
X135803693Y-95609069D01*
X135851000Y-95371243D01*
X135851000Y-95128757D01*
X135803693Y-94890931D01*
X135710898Y-94666903D01*
X135576180Y-94465283D01*
X135404717Y-94293820D01*
X135203097Y-94159102D01*
X134979069Y-94066307D01*
X134741243Y-94019000D01*
X134498757Y-94019000D01*
X134260931Y-94066307D01*
X134036903Y-94159102D01*
X133835283Y-94293820D01*
X133663820Y-94465283D01*
X133529102Y-94666903D01*
X133436307Y-94890931D01*
X133389000Y-95128757D01*
X133311000Y-95128757D01*
X133263693Y-94890931D01*
X133170898Y-94666903D01*
X133036180Y-94465283D01*
X132864717Y-94293820D01*
X132663097Y-94159102D01*
X132439069Y-94066307D01*
X132201243Y-94019000D01*
X131958757Y-94019000D01*
X131720931Y-94066307D01*
X131496903Y-94159102D01*
X131295283Y-94293820D01*
X131123820Y-94465283D01*
X130989102Y-94666903D01*
X130896307Y-94890931D01*
X130849000Y-95128757D01*
X126873000Y-95128757D01*
X126873000Y-92588757D01*
X130849000Y-92588757D01*
X130849000Y-92831243D01*
X130896307Y-93069069D01*
X130989102Y-93293097D01*
X131123820Y-93494717D01*
X131295283Y-93666180D01*
X131496903Y-93800898D01*
X131720931Y-93893693D01*
X131958757Y-93941000D01*
X132201243Y-93941000D01*
X132439069Y-93893693D01*
X132663097Y-93800898D01*
X132864717Y-93666180D01*
X133036180Y-93494717D01*
X133170898Y-93293097D01*
X133263693Y-93069069D01*
X133311000Y-92831243D01*
X133311000Y-92588757D01*
X133389000Y-92588757D01*
X133389000Y-92831243D01*
X133436307Y-93069069D01*
X133529102Y-93293097D01*
X133663820Y-93494717D01*
X133835283Y-93666180D01*
X134036903Y-93800898D01*
X134260931Y-93893693D01*
X134498757Y-93941000D01*
X134741243Y-93941000D01*
X134979069Y-93893693D01*
X135203097Y-93800898D01*
X135404717Y-93666180D01*
X135576180Y-93494717D01*
X135710898Y-93293097D01*
X135803693Y-93069069D01*
X135839521Y-92888950D01*
X160782000Y-92888950D01*
X160782000Y-93039050D01*
X160811283Y-93186267D01*
X160868724Y-93324942D01*
X160952116Y-93449747D01*
X161058253Y-93555884D01*
X161183058Y-93639276D01*
X161321733Y-93696717D01*
X161468950Y-93726000D01*
X161619050Y-93726000D01*
X161766267Y-93696717D01*
X161904942Y-93639276D01*
X162029747Y-93555884D01*
X162113631Y-93472000D01*
X166370001Y-93472000D01*
X166370000Y-100776369D01*
X166286116Y-100860253D01*
X166202724Y-100985058D01*
X166145283Y-101123733D01*
X166116000Y-101270950D01*
X166116000Y-101421050D01*
X166145283Y-101568267D01*
X166202724Y-101706942D01*
X166286116Y-101831747D01*
X166392253Y-101937884D01*
X166517058Y-102021276D01*
X166655733Y-102078717D01*
X166802950Y-102108000D01*
X166953050Y-102108000D01*
X167100267Y-102078717D01*
X167238942Y-102021276D01*
X167363747Y-101937884D01*
X167469884Y-101831747D01*
X167553276Y-101706942D01*
X167610717Y-101568267D01*
X167640000Y-101421050D01*
X167640000Y-101270950D01*
X167610717Y-101123733D01*
X167553276Y-100985058D01*
X167469884Y-100860253D01*
X167386000Y-100776369D01*
X167386000Y-92988947D01*
X167388457Y-92964000D01*
X167378649Y-92864415D01*
X167349601Y-92768657D01*
X167302429Y-92680405D01*
X167238948Y-92603052D01*
X167161595Y-92539571D01*
X167073343Y-92492399D01*
X166977585Y-92463351D01*
X166902947Y-92456000D01*
X166878000Y-92453543D01*
X166853053Y-92456000D01*
X162113631Y-92456000D01*
X162029747Y-92372116D01*
X161904942Y-92288724D01*
X161766267Y-92231283D01*
X161619050Y-92202000D01*
X161468950Y-92202000D01*
X161321733Y-92231283D01*
X161183058Y-92288724D01*
X161058253Y-92372116D01*
X160952116Y-92478253D01*
X160868724Y-92603058D01*
X160811283Y-92741733D01*
X160782000Y-92888950D01*
X135839521Y-92888950D01*
X135851000Y-92831243D01*
X135851000Y-92588757D01*
X135803693Y-92350931D01*
X135710898Y-92126903D01*
X135576180Y-91925283D01*
X135404717Y-91753820D01*
X135203097Y-91619102D01*
X134979069Y-91526307D01*
X134741243Y-91479000D01*
X134498757Y-91479000D01*
X134260931Y-91526307D01*
X134036903Y-91619102D01*
X133835283Y-91753820D01*
X133663820Y-91925283D01*
X133529102Y-92126903D01*
X133436307Y-92350931D01*
X133389000Y-92588757D01*
X133311000Y-92588757D01*
X133263693Y-92350931D01*
X133170898Y-92126903D01*
X133036180Y-91925283D01*
X132864717Y-91753820D01*
X132663097Y-91619102D01*
X132439069Y-91526307D01*
X132201243Y-91479000D01*
X131958757Y-91479000D01*
X131720931Y-91526307D01*
X131496903Y-91619102D01*
X131295283Y-91753820D01*
X131123820Y-91925283D01*
X130989102Y-92126903D01*
X130896307Y-92350931D01*
X130849000Y-92588757D01*
X126873000Y-92588757D01*
X126873000Y-90048757D01*
X130849000Y-90048757D01*
X130849000Y-90291243D01*
X130896307Y-90529069D01*
X130989102Y-90753097D01*
X131123820Y-90954717D01*
X131295283Y-91126180D01*
X131496903Y-91260898D01*
X131720931Y-91353693D01*
X131958757Y-91401000D01*
X132201243Y-91401000D01*
X132439069Y-91353693D01*
X132663097Y-91260898D01*
X132864717Y-91126180D01*
X133036180Y-90954717D01*
X133170898Y-90753097D01*
X133263693Y-90529069D01*
X133311000Y-90291243D01*
X133311000Y-90048757D01*
X133389000Y-90048757D01*
X133389000Y-90291243D01*
X133436307Y-90529069D01*
X133529102Y-90753097D01*
X133663820Y-90954717D01*
X133835283Y-91126180D01*
X134036903Y-91260898D01*
X134260931Y-91353693D01*
X134498757Y-91401000D01*
X134741243Y-91401000D01*
X134979069Y-91353693D01*
X135203097Y-91260898D01*
X135404717Y-91126180D01*
X135576180Y-90954717D01*
X135710898Y-90753097D01*
X135803693Y-90529069D01*
X135851000Y-90291243D01*
X135851000Y-90048757D01*
X135803693Y-89810931D01*
X135710898Y-89586903D01*
X135576180Y-89385283D01*
X135404717Y-89213820D01*
X135203097Y-89079102D01*
X134979069Y-88986307D01*
X134741243Y-88939000D01*
X134498757Y-88939000D01*
X134260931Y-88986307D01*
X134036903Y-89079102D01*
X133835283Y-89213820D01*
X133663820Y-89385283D01*
X133529102Y-89586903D01*
X133436307Y-89810931D01*
X133389000Y-90048757D01*
X133311000Y-90048757D01*
X133263693Y-89810931D01*
X133170898Y-89586903D01*
X133036180Y-89385283D01*
X132864717Y-89213820D01*
X132663097Y-89079102D01*
X132439069Y-88986307D01*
X132201243Y-88939000D01*
X131958757Y-88939000D01*
X131720931Y-88986307D01*
X131496903Y-89079102D01*
X131295283Y-89213820D01*
X131123820Y-89385283D01*
X130989102Y-89586903D01*
X130896307Y-89810931D01*
X130849000Y-90048757D01*
X126873000Y-90048757D01*
X126873000Y-87508757D01*
X130849000Y-87508757D01*
X130849000Y-87751243D01*
X130896307Y-87989069D01*
X130989102Y-88213097D01*
X131123820Y-88414717D01*
X131295283Y-88586180D01*
X131496903Y-88720898D01*
X131720931Y-88813693D01*
X131958757Y-88861000D01*
X132201243Y-88861000D01*
X132439069Y-88813693D01*
X132663097Y-88720898D01*
X132864717Y-88586180D01*
X133036180Y-88414717D01*
X133170898Y-88213097D01*
X133263693Y-87989069D01*
X133311000Y-87751243D01*
X133311000Y-87508757D01*
X133389000Y-87508757D01*
X133389000Y-87751243D01*
X133436307Y-87989069D01*
X133529102Y-88213097D01*
X133663820Y-88414717D01*
X133835283Y-88586180D01*
X134036903Y-88720898D01*
X134260931Y-88813693D01*
X134498757Y-88861000D01*
X134741243Y-88861000D01*
X134979069Y-88813693D01*
X135203097Y-88720898D01*
X135404717Y-88586180D01*
X135576180Y-88414717D01*
X135710898Y-88213097D01*
X135803693Y-87989069D01*
X135851000Y-87751243D01*
X135851000Y-87508757D01*
X135803693Y-87270931D01*
X135710898Y-87046903D01*
X135576180Y-86845283D01*
X135404717Y-86673820D01*
X135203097Y-86539102D01*
X134979069Y-86446307D01*
X134741243Y-86399000D01*
X134498757Y-86399000D01*
X134260931Y-86446307D01*
X134036903Y-86539102D01*
X133835283Y-86673820D01*
X133663820Y-86845283D01*
X133529102Y-87046903D01*
X133436307Y-87270931D01*
X133389000Y-87508757D01*
X133311000Y-87508757D01*
X133263693Y-87270931D01*
X133170898Y-87046903D01*
X133036180Y-86845283D01*
X132864717Y-86673820D01*
X132663097Y-86539102D01*
X132439069Y-86446307D01*
X132201243Y-86399000D01*
X131958757Y-86399000D01*
X131720931Y-86446307D01*
X131496903Y-86539102D01*
X131295283Y-86673820D01*
X131123820Y-86845283D01*
X130989102Y-87046903D01*
X130896307Y-87270931D01*
X130849000Y-87508757D01*
X126873000Y-87508757D01*
X126873000Y-84968757D01*
X130849000Y-84968757D01*
X130849000Y-85211243D01*
X130896307Y-85449069D01*
X130989102Y-85673097D01*
X131123820Y-85874717D01*
X131295283Y-86046180D01*
X131496903Y-86180898D01*
X131720931Y-86273693D01*
X131958757Y-86321000D01*
X132201243Y-86321000D01*
X132439069Y-86273693D01*
X132663097Y-86180898D01*
X132864717Y-86046180D01*
X133036180Y-85874717D01*
X133170898Y-85673097D01*
X133263693Y-85449069D01*
X133311000Y-85211243D01*
X133311000Y-84968757D01*
X133389000Y-84968757D01*
X133389000Y-85211243D01*
X133436307Y-85449069D01*
X133529102Y-85673097D01*
X133663820Y-85874717D01*
X133835283Y-86046180D01*
X134036903Y-86180898D01*
X134260931Y-86273693D01*
X134498757Y-86321000D01*
X134741243Y-86321000D01*
X134979069Y-86273693D01*
X135203097Y-86180898D01*
X135404717Y-86046180D01*
X135576180Y-85874717D01*
X135710898Y-85673097D01*
X135803693Y-85449069D01*
X135851000Y-85211243D01*
X135851000Y-84968757D01*
X135803693Y-84730931D01*
X135710898Y-84506903D01*
X135576180Y-84305283D01*
X135404717Y-84133820D01*
X135203097Y-83999102D01*
X134979069Y-83906307D01*
X134741243Y-83859000D01*
X134498757Y-83859000D01*
X134260931Y-83906307D01*
X134036903Y-83999102D01*
X133835283Y-84133820D01*
X133663820Y-84305283D01*
X133529102Y-84506903D01*
X133436307Y-84730931D01*
X133389000Y-84968757D01*
X133311000Y-84968757D01*
X133263693Y-84730931D01*
X133170898Y-84506903D01*
X133036180Y-84305283D01*
X132864717Y-84133820D01*
X132663097Y-83999102D01*
X132439069Y-83906307D01*
X132201243Y-83859000D01*
X131958757Y-83859000D01*
X131720931Y-83906307D01*
X131496903Y-83999102D01*
X131295283Y-84133820D01*
X131123820Y-84305283D01*
X130989102Y-84506903D01*
X130896307Y-84730931D01*
X130849000Y-84968757D01*
X126873000Y-84968757D01*
X126873000Y-82428757D01*
X130849000Y-82428757D01*
X130849000Y-82671243D01*
X130896307Y-82909069D01*
X130989102Y-83133097D01*
X131123820Y-83334717D01*
X131295283Y-83506180D01*
X131496903Y-83640898D01*
X131720931Y-83733693D01*
X131958757Y-83781000D01*
X132201243Y-83781000D01*
X132439069Y-83733693D01*
X132663097Y-83640898D01*
X132864717Y-83506180D01*
X133036180Y-83334717D01*
X133170898Y-83133097D01*
X133263693Y-82909069D01*
X133311000Y-82671243D01*
X133311000Y-82428757D01*
X133389000Y-82428757D01*
X133389000Y-82671243D01*
X133436307Y-82909069D01*
X133529102Y-83133097D01*
X133663820Y-83334717D01*
X133835283Y-83506180D01*
X134036903Y-83640898D01*
X134260931Y-83733693D01*
X134498757Y-83781000D01*
X134741243Y-83781000D01*
X134979069Y-83733693D01*
X135203097Y-83640898D01*
X135404717Y-83506180D01*
X135576180Y-83334717D01*
X135710898Y-83133097D01*
X135803693Y-82909069D01*
X135851000Y-82671243D01*
X135851000Y-82428757D01*
X135803693Y-82190931D01*
X135710898Y-81966903D01*
X135576180Y-81765283D01*
X135404717Y-81593820D01*
X135203097Y-81459102D01*
X134979069Y-81366307D01*
X134741243Y-81319000D01*
X134498757Y-81319000D01*
X134260931Y-81366307D01*
X134036903Y-81459102D01*
X133835283Y-81593820D01*
X133663820Y-81765283D01*
X133529102Y-81966903D01*
X133436307Y-82190931D01*
X133389000Y-82428757D01*
X133311000Y-82428757D01*
X133263693Y-82190931D01*
X133170898Y-81966903D01*
X133036180Y-81765283D01*
X132864717Y-81593820D01*
X132663097Y-81459102D01*
X132439069Y-81366307D01*
X132201243Y-81319000D01*
X131958757Y-81319000D01*
X131720931Y-81366307D01*
X131496903Y-81459102D01*
X131295283Y-81593820D01*
X131123820Y-81765283D01*
X130989102Y-81966903D01*
X130896307Y-82190931D01*
X130849000Y-82428757D01*
X126873000Y-82428757D01*
X126873000Y-79888757D01*
X130849000Y-79888757D01*
X130849000Y-80131243D01*
X130896307Y-80369069D01*
X130989102Y-80593097D01*
X131123820Y-80794717D01*
X131295283Y-80966180D01*
X131496903Y-81100898D01*
X131720931Y-81193693D01*
X131958757Y-81241000D01*
X132201243Y-81241000D01*
X132439069Y-81193693D01*
X132663097Y-81100898D01*
X132864717Y-80966180D01*
X133036180Y-80794717D01*
X133170898Y-80593097D01*
X133263693Y-80369069D01*
X133311000Y-80131243D01*
X133311000Y-79888757D01*
X133389000Y-79888757D01*
X133389000Y-80131243D01*
X133436307Y-80369069D01*
X133529102Y-80593097D01*
X133663820Y-80794717D01*
X133835283Y-80966180D01*
X134036903Y-81100898D01*
X134260931Y-81193693D01*
X134498757Y-81241000D01*
X134741243Y-81241000D01*
X134979069Y-81193693D01*
X135203097Y-81100898D01*
X135404717Y-80966180D01*
X135576180Y-80794717D01*
X135710898Y-80593097D01*
X135803693Y-80369069D01*
X135851000Y-80131243D01*
X135851000Y-79888757D01*
X135803693Y-79650931D01*
X135710898Y-79426903D01*
X135576180Y-79225283D01*
X135404717Y-79053820D01*
X135203097Y-78919102D01*
X134979069Y-78826307D01*
X134741243Y-78779000D01*
X134498757Y-78779000D01*
X134260931Y-78826307D01*
X134036903Y-78919102D01*
X133835283Y-79053820D01*
X133663820Y-79225283D01*
X133529102Y-79426903D01*
X133436307Y-79650931D01*
X133389000Y-79888757D01*
X133311000Y-79888757D01*
X133263693Y-79650931D01*
X133170898Y-79426903D01*
X133036180Y-79225283D01*
X132864717Y-79053820D01*
X132663097Y-78919102D01*
X132439069Y-78826307D01*
X132201243Y-78779000D01*
X131958757Y-78779000D01*
X131720931Y-78826307D01*
X131496903Y-78919102D01*
X131295283Y-79053820D01*
X131123820Y-79225283D01*
X130989102Y-79426903D01*
X130896307Y-79650931D01*
X130849000Y-79888757D01*
X126873000Y-79888757D01*
X126873000Y-77348757D01*
X130849000Y-77348757D01*
X130849000Y-77591243D01*
X130896307Y-77829069D01*
X130989102Y-78053097D01*
X131123820Y-78254717D01*
X131295283Y-78426180D01*
X131496903Y-78560898D01*
X131720931Y-78653693D01*
X131958757Y-78701000D01*
X132201243Y-78701000D01*
X132439069Y-78653693D01*
X132663097Y-78560898D01*
X132864717Y-78426180D01*
X133036180Y-78254717D01*
X133170898Y-78053097D01*
X133263693Y-77829069D01*
X133311000Y-77591243D01*
X133311000Y-77348757D01*
X133389000Y-77348757D01*
X133389000Y-77591243D01*
X133436307Y-77829069D01*
X133529102Y-78053097D01*
X133663820Y-78254717D01*
X133835283Y-78426180D01*
X134036903Y-78560898D01*
X134260931Y-78653693D01*
X134498757Y-78701000D01*
X134741243Y-78701000D01*
X134979069Y-78653693D01*
X135203097Y-78560898D01*
X135404717Y-78426180D01*
X135576180Y-78254717D01*
X135710898Y-78053097D01*
X135803693Y-77829069D01*
X135851000Y-77591243D01*
X135851000Y-77348757D01*
X135803693Y-77110931D01*
X135710898Y-76886903D01*
X135576180Y-76685283D01*
X135404717Y-76513820D01*
X135203097Y-76379102D01*
X134979069Y-76286307D01*
X134741243Y-76239000D01*
X134498757Y-76239000D01*
X134260931Y-76286307D01*
X134036903Y-76379102D01*
X133835283Y-76513820D01*
X133663820Y-76685283D01*
X133529102Y-76886903D01*
X133436307Y-77110931D01*
X133389000Y-77348757D01*
X133311000Y-77348757D01*
X133263693Y-77110931D01*
X133170898Y-76886903D01*
X133036180Y-76685283D01*
X132864717Y-76513820D01*
X132663097Y-76379102D01*
X132439069Y-76286307D01*
X132201243Y-76239000D01*
X131958757Y-76239000D01*
X131720931Y-76286307D01*
X131496903Y-76379102D01*
X131295283Y-76513820D01*
X131123820Y-76685283D01*
X130989102Y-76886903D01*
X130896307Y-77110931D01*
X130849000Y-77348757D01*
X126873000Y-77348757D01*
X126873000Y-74808757D01*
X130849000Y-74808757D01*
X130849000Y-75051243D01*
X130896307Y-75289069D01*
X130989102Y-75513097D01*
X131123820Y-75714717D01*
X131295283Y-75886180D01*
X131496903Y-76020898D01*
X131720931Y-76113693D01*
X131958757Y-76161000D01*
X132201243Y-76161000D01*
X132439069Y-76113693D01*
X132663097Y-76020898D01*
X132864717Y-75886180D01*
X133036180Y-75714717D01*
X133170898Y-75513097D01*
X133263693Y-75289069D01*
X133311000Y-75051243D01*
X133311000Y-74808757D01*
X133389000Y-74808757D01*
X133389000Y-75051243D01*
X133436307Y-75289069D01*
X133529102Y-75513097D01*
X133663820Y-75714717D01*
X133835283Y-75886180D01*
X134036903Y-76020898D01*
X134260931Y-76113693D01*
X134498757Y-76161000D01*
X134741243Y-76161000D01*
X134979069Y-76113693D01*
X135203097Y-76020898D01*
X135404717Y-75886180D01*
X135576180Y-75714717D01*
X135710898Y-75513097D01*
X135803693Y-75289069D01*
X135851000Y-75051243D01*
X135851000Y-74808757D01*
X135803693Y-74570931D01*
X135713214Y-74352492D01*
X172600188Y-74352492D01*
X172641035Y-74622238D01*
X172733723Y-74878832D01*
X172794140Y-74991863D01*
X173033007Y-75057388D01*
X173810395Y-74280000D01*
X174169605Y-74280000D01*
X174946993Y-75057388D01*
X175185860Y-74991863D01*
X175301760Y-74744884D01*
X175303214Y-74739004D01*
X175353723Y-74878832D01*
X175414140Y-74991863D01*
X175653007Y-75057388D01*
X176430395Y-74280000D01*
X176789605Y-74280000D01*
X177566993Y-75057388D01*
X177805860Y-74991863D01*
X177921760Y-74744884D01*
X177987250Y-74480040D01*
X177999812Y-74207508D01*
X177958965Y-73937762D01*
X177866277Y-73681168D01*
X177805860Y-73568137D01*
X177566993Y-73502612D01*
X176789605Y-74280000D01*
X176430395Y-74280000D01*
X175653007Y-73502612D01*
X175414140Y-73568137D01*
X175298240Y-73815116D01*
X175296786Y-73820996D01*
X175246277Y-73681168D01*
X175185860Y-73568137D01*
X174946993Y-73502612D01*
X174169605Y-74280000D01*
X173810395Y-74280000D01*
X173033007Y-73502612D01*
X172794140Y-73568137D01*
X172678240Y-73815116D01*
X172612750Y-74079960D01*
X172600188Y-74352492D01*
X135713214Y-74352492D01*
X135710898Y-74346903D01*
X135576180Y-74145283D01*
X135404717Y-73973820D01*
X135203097Y-73839102D01*
X134979069Y-73746307D01*
X134741243Y-73699000D01*
X134498757Y-73699000D01*
X134260931Y-73746307D01*
X134036903Y-73839102D01*
X133835283Y-73973820D01*
X133663820Y-74145283D01*
X133529102Y-74346903D01*
X133436307Y-74570931D01*
X133389000Y-74808757D01*
X133311000Y-74808757D01*
X133263693Y-74570931D01*
X133170898Y-74346903D01*
X133036180Y-74145283D01*
X132864717Y-73973820D01*
X132663097Y-73839102D01*
X132439069Y-73746307D01*
X132201243Y-73699000D01*
X131958757Y-73699000D01*
X131720931Y-73746307D01*
X131496903Y-73839102D01*
X131295283Y-73973820D01*
X131123820Y-74145283D01*
X130989102Y-74346903D01*
X130896307Y-74570931D01*
X130849000Y-74808757D01*
X126873000Y-74808757D01*
X126873000Y-72268757D01*
X130849000Y-72268757D01*
X130849000Y-72511243D01*
X130896307Y-72749069D01*
X130989102Y-72973097D01*
X131123820Y-73174717D01*
X131295283Y-73346180D01*
X131496903Y-73480898D01*
X131720931Y-73573693D01*
X131958757Y-73621000D01*
X132201243Y-73621000D01*
X132439069Y-73573693D01*
X132663097Y-73480898D01*
X132864717Y-73346180D01*
X133036180Y-73174717D01*
X133170898Y-72973097D01*
X133263693Y-72749069D01*
X133311000Y-72511243D01*
X133311000Y-72268757D01*
X133389000Y-72268757D01*
X133389000Y-72511243D01*
X133436307Y-72749069D01*
X133529102Y-72973097D01*
X133663820Y-73174717D01*
X133835283Y-73346180D01*
X134036903Y-73480898D01*
X134260931Y-73573693D01*
X134498757Y-73621000D01*
X134741243Y-73621000D01*
X134979069Y-73573693D01*
X135203097Y-73480898D01*
X135404717Y-73346180D01*
X135576180Y-73174717D01*
X135710898Y-72973097D01*
X135803693Y-72749069D01*
X135851000Y-72511243D01*
X135851000Y-72268757D01*
X135803693Y-72030931D01*
X135710898Y-71806903D01*
X135576180Y-71605283D01*
X135404717Y-71433820D01*
X135203097Y-71299102D01*
X134979069Y-71206307D01*
X134741243Y-71159000D01*
X134498757Y-71159000D01*
X134260931Y-71206307D01*
X134036903Y-71299102D01*
X133835283Y-71433820D01*
X133663820Y-71605283D01*
X133529102Y-71806903D01*
X133436307Y-72030931D01*
X133389000Y-72268757D01*
X133311000Y-72268757D01*
X133263693Y-72030931D01*
X133170898Y-71806903D01*
X133036180Y-71605283D01*
X132864717Y-71433820D01*
X132663097Y-71299102D01*
X132439069Y-71206307D01*
X132201243Y-71159000D01*
X131958757Y-71159000D01*
X131720931Y-71206307D01*
X131496903Y-71299102D01*
X131295283Y-71433820D01*
X131123820Y-71605283D01*
X130989102Y-71806903D01*
X130896307Y-72030931D01*
X130849000Y-72268757D01*
X126873000Y-72268757D01*
X126873000Y-71024738D01*
X171759000Y-71024738D01*
X171759000Y-71395262D01*
X171831286Y-71758667D01*
X171973080Y-72100987D01*
X172178932Y-72409067D01*
X172440933Y-72671068D01*
X172749013Y-72876920D01*
X173091333Y-73018714D01*
X173316680Y-73063538D01*
X173278137Y-73084140D01*
X173212612Y-73323007D01*
X173990000Y-74100395D01*
X174767388Y-73323007D01*
X175832612Y-73323007D01*
X176610000Y-74100395D01*
X177387388Y-73323007D01*
X177321863Y-73084140D01*
X177074884Y-72968240D01*
X176810040Y-72902750D01*
X176537508Y-72890188D01*
X176267762Y-72931035D01*
X176011168Y-73023723D01*
X175898137Y-73084140D01*
X175832612Y-73323007D01*
X174767388Y-73323007D01*
X174701863Y-73084140D01*
X174454884Y-72968240D01*
X174364487Y-72945887D01*
X174530987Y-72876920D01*
X174839067Y-72671068D01*
X175101068Y-72409067D01*
X175306920Y-72100987D01*
X175448714Y-71758667D01*
X175521000Y-71395262D01*
X175521000Y-71024738D01*
X177439000Y-71024738D01*
X177439000Y-71395262D01*
X177511286Y-71758667D01*
X177653080Y-72100987D01*
X177858932Y-72409067D01*
X178120933Y-72671068D01*
X178429013Y-72876920D01*
X178771333Y-73018714D01*
X179134738Y-73091000D01*
X179505262Y-73091000D01*
X179868667Y-73018714D01*
X180210987Y-72876920D01*
X180519067Y-72671068D01*
X180781068Y-72409067D01*
X180986920Y-72100987D01*
X181128714Y-71758667D01*
X181201000Y-71395262D01*
X181201000Y-71024738D01*
X181128714Y-70661333D01*
X180986920Y-70319013D01*
X180781068Y-70010933D01*
X180519067Y-69748932D01*
X180210987Y-69543080D01*
X179868667Y-69401286D01*
X179505262Y-69329000D01*
X179134738Y-69329000D01*
X178771333Y-69401286D01*
X178429013Y-69543080D01*
X178120933Y-69748932D01*
X177858932Y-70010933D01*
X177653080Y-70319013D01*
X177511286Y-70661333D01*
X177439000Y-71024738D01*
X175521000Y-71024738D01*
X175448714Y-70661333D01*
X175306920Y-70319013D01*
X175101068Y-70010933D01*
X174839067Y-69748932D01*
X174530987Y-69543080D01*
X174188667Y-69401286D01*
X173825262Y-69329000D01*
X173454738Y-69329000D01*
X173091333Y-69401286D01*
X172749013Y-69543080D01*
X172440933Y-69748932D01*
X172178932Y-70010933D01*
X171973080Y-70319013D01*
X171831286Y-70661333D01*
X171759000Y-71024738D01*
X126873000Y-71024738D01*
X126873000Y-66421000D01*
X183007000Y-66421000D01*
X183007000Y-127127000D01*
%TA.AperFunction,Conductor*%
D22*
G36*
X183007000Y-127127000D02*
G01*
X126873000Y-127127000D01*
X126873000Y-123616349D01*
X142283256Y-123616349D01*
X142487362Y-123972867D01*
X142930223Y-124203575D01*
X143409583Y-124343452D01*
X143907021Y-124387123D01*
X144403422Y-124332909D01*
X144879707Y-124182894D01*
X145272638Y-123972867D01*
X145436010Y-123687499D01*
X149462106Y-123687499D01*
X149678228Y-124054258D01*
X150138105Y-124294938D01*
X150636098Y-124441275D01*
X151153071Y-124487648D01*
X151669159Y-124432273D01*
X152164526Y-124277279D01*
X152581772Y-124054258D01*
X152797894Y-123687499D01*
X151130000Y-122019605D01*
X149462106Y-123687499D01*
X145436010Y-123687499D01*
X145476744Y-123616349D01*
X143880000Y-122019605D01*
X142283256Y-123616349D01*
X126873000Y-123616349D01*
X126873000Y-120528757D01*
X130849000Y-120528757D01*
X130849000Y-120771243D01*
X130896307Y-121009069D01*
X130989102Y-121233097D01*
X131123820Y-121434717D01*
X131295283Y-121606180D01*
X131496903Y-121740898D01*
X131720931Y-121833693D01*
X131958757Y-121881000D01*
X132201243Y-121881000D01*
X132439069Y-121833693D01*
X132663097Y-121740898D01*
X132864717Y-121606180D01*
X133036180Y-121434717D01*
X133170898Y-121233097D01*
X133263693Y-121009069D01*
X133311000Y-120771243D01*
X133311000Y-120528757D01*
X133263693Y-120290931D01*
X133170898Y-120066903D01*
X133036180Y-119865283D01*
X132970897Y-119800000D01*
X133387157Y-119800000D01*
X133387157Y-121500000D01*
X133394513Y-121574689D01*
X133416299Y-121646508D01*
X133451678Y-121712696D01*
X133499289Y-121770711D01*
X133557304Y-121818322D01*
X133623492Y-121853701D01*
X133695311Y-121875487D01*
X133770000Y-121882843D01*
X135470000Y-121882843D01*
X135544689Y-121875487D01*
X135572597Y-121867021D01*
X141332877Y-121867021D01*
X141387091Y-122363422D01*
X141537106Y-122839707D01*
X141747133Y-123232638D01*
X142103651Y-123436744D01*
X143700395Y-121840000D01*
X144059605Y-121840000D01*
X145656349Y-123436744D01*
X146012867Y-123232638D01*
X146243575Y-122789777D01*
X146383452Y-122310417D01*
X146422725Y-121863071D01*
X148482352Y-121863071D01*
X148537727Y-122379159D01*
X148692721Y-122874526D01*
X148915742Y-123291772D01*
X149282501Y-123507894D01*
X150950395Y-121840000D01*
X149282501Y-120172106D01*
X148915742Y-120388228D01*
X148675062Y-120848105D01*
X148528725Y-121346098D01*
X148482352Y-121863071D01*
X146422725Y-121863071D01*
X146427123Y-121812979D01*
X146372909Y-121316578D01*
X146222894Y-120840293D01*
X146012867Y-120447362D01*
X145656349Y-120243256D01*
X144059605Y-121840000D01*
X143700395Y-121840000D01*
X142103651Y-120243256D01*
X141747133Y-120447362D01*
X141516425Y-120890223D01*
X141376548Y-121369583D01*
X141332877Y-121867021D01*
X135572597Y-121867021D01*
X135616508Y-121853701D01*
X135682696Y-121818322D01*
X135740711Y-121770711D01*
X135788322Y-121712696D01*
X135823701Y-121646508D01*
X135845487Y-121574689D01*
X135852843Y-121500000D01*
X135852843Y-120063651D01*
X142283256Y-120063651D01*
X143880000Y-121660395D01*
X145476744Y-120063651D01*
X145272638Y-119707133D01*
X144829777Y-119476425D01*
X144350417Y-119336548D01*
X143852979Y-119292877D01*
X143356578Y-119347091D01*
X142880293Y-119497106D01*
X142487362Y-119707133D01*
X142283256Y-120063651D01*
X135852843Y-120063651D01*
X135852843Y-119800000D01*
X135845487Y-119725311D01*
X135823701Y-119653492D01*
X135788322Y-119587304D01*
X135740711Y-119529289D01*
X135682696Y-119481678D01*
X135616508Y-119446299D01*
X135544689Y-119424513D01*
X135470000Y-119417157D01*
X133770000Y-119417157D01*
X133695311Y-119424513D01*
X133623492Y-119446299D01*
X133557304Y-119481678D01*
X133499289Y-119529289D01*
X133451678Y-119587304D01*
X133416299Y-119653492D01*
X133394513Y-119725311D01*
X133387157Y-119800000D01*
X132970897Y-119800000D01*
X132864717Y-119693820D01*
X132663097Y-119559102D01*
X132439069Y-119466307D01*
X132201243Y-119419000D01*
X131958757Y-119419000D01*
X131720931Y-119466307D01*
X131496903Y-119559102D01*
X131295283Y-119693820D01*
X131123820Y-119865283D01*
X130989102Y-120066903D01*
X130896307Y-120290931D01*
X130849000Y-120528757D01*
X126873000Y-120528757D01*
X126873000Y-115213110D01*
X130638524Y-115213110D01*
X130759845Y-115443000D01*
X131953000Y-115443000D01*
X131953000Y-115423000D01*
X132207000Y-115423000D01*
X132207000Y-115443000D01*
X132227000Y-115443000D01*
X132227000Y-115697000D01*
X132207000Y-115697000D01*
X132207000Y-115717000D01*
X131953000Y-115717000D01*
X131953000Y-115697000D01*
X130759845Y-115697000D01*
X130638524Y-115926890D01*
X130683175Y-116074099D01*
X130808359Y-116336920D01*
X130982412Y-116570269D01*
X131198645Y-116765178D01*
X131448748Y-116914157D01*
X131611168Y-116971772D01*
X131496903Y-117019102D01*
X131295283Y-117153820D01*
X131123820Y-117325283D01*
X130989102Y-117526903D01*
X130896307Y-117750931D01*
X130849000Y-117988757D01*
X130849000Y-118231243D01*
X130896307Y-118469069D01*
X130989102Y-118693097D01*
X131123820Y-118894717D01*
X131295283Y-119066180D01*
X131496903Y-119200898D01*
X131720931Y-119293693D01*
X131958757Y-119341000D01*
X132201243Y-119341000D01*
X132439069Y-119293693D01*
X132663097Y-119200898D01*
X132864717Y-119066180D01*
X133036180Y-118894717D01*
X133170898Y-118693097D01*
X133263693Y-118469069D01*
X133311000Y-118231243D01*
X133311000Y-117988757D01*
X133389000Y-117988757D01*
X133389000Y-118231243D01*
X133436307Y-118469069D01*
X133529102Y-118693097D01*
X133663820Y-118894717D01*
X133835283Y-119066180D01*
X134036903Y-119200898D01*
X134260931Y-119293693D01*
X134498757Y-119341000D01*
X134741243Y-119341000D01*
X134979069Y-119293693D01*
X135203097Y-119200898D01*
X135404717Y-119066180D01*
X135576180Y-118894717D01*
X135710898Y-118693097D01*
X135803693Y-118469069D01*
X135851000Y-118231243D01*
X135851000Y-117988757D01*
X135803693Y-117750931D01*
X135710898Y-117526903D01*
X135576180Y-117325283D01*
X135404717Y-117153820D01*
X135203097Y-117019102D01*
X134979069Y-116926307D01*
X134741243Y-116879000D01*
X134498757Y-116879000D01*
X134260931Y-116926307D01*
X134036903Y-117019102D01*
X133835283Y-117153820D01*
X133663820Y-117325283D01*
X133529102Y-117526903D01*
X133436307Y-117750931D01*
X133389000Y-117988757D01*
X133311000Y-117988757D01*
X133263693Y-117750931D01*
X133170898Y-117526903D01*
X133036180Y-117325283D01*
X132864717Y-117153820D01*
X132663097Y-117019102D01*
X132548832Y-116971772D01*
X132711252Y-116914157D01*
X132961355Y-116765178D01*
X133177588Y-116570269D01*
X133351641Y-116336920D01*
X133476825Y-116074099D01*
X133485091Y-116046846D01*
X133529102Y-116153097D01*
X133663820Y-116354717D01*
X133835283Y-116526180D01*
X134036903Y-116660898D01*
X134260931Y-116753693D01*
X134498757Y-116801000D01*
X134741243Y-116801000D01*
X134979069Y-116753693D01*
X135203097Y-116660898D01*
X135404717Y-116526180D01*
X135576180Y-116354717D01*
X135710898Y-116153097D01*
X135803693Y-115929069D01*
X135851000Y-115691243D01*
X135851000Y-115448757D01*
X135803693Y-115210931D01*
X135710898Y-114986903D01*
X135679559Y-114940000D01*
X141597157Y-114940000D01*
X141597157Y-118740000D01*
X141604513Y-118814689D01*
X141626299Y-118886508D01*
X141661678Y-118952696D01*
X141709289Y-119010711D01*
X141767304Y-119058322D01*
X141833492Y-119093701D01*
X141905311Y-119115487D01*
X141980000Y-119122843D01*
X145780000Y-119122843D01*
X145854689Y-119115487D01*
X145926508Y-119093701D01*
X145992696Y-119058322D01*
X146050711Y-119010711D01*
X146098322Y-118952696D01*
X146133701Y-118886508D01*
X146155487Y-118814689D01*
X146162843Y-118740000D01*
X146162843Y-114940000D01*
X148847157Y-114940000D01*
X148847157Y-118740000D01*
X148854513Y-118814689D01*
X148876299Y-118886508D01*
X148911678Y-118952696D01*
X148959289Y-119010711D01*
X149017304Y-119058322D01*
X149083492Y-119093701D01*
X149155311Y-119115487D01*
X149230000Y-119122843D01*
X152694422Y-119122843D01*
X152766781Y-119195202D01*
X152766781Y-119939703D01*
X152581772Y-119625742D01*
X152121895Y-119385062D01*
X151623902Y-119238725D01*
X151106929Y-119192352D01*
X150590841Y-119247727D01*
X150095474Y-119402721D01*
X149678228Y-119625742D01*
X149462106Y-119992501D01*
X151130000Y-121660395D01*
X151144143Y-121646253D01*
X151323748Y-121825858D01*
X151309605Y-121840000D01*
X152977499Y-123507894D01*
X153321036Y-123305456D01*
X155579150Y-125563571D01*
X155595052Y-125582948D01*
X155614429Y-125598850D01*
X155672404Y-125646429D01*
X155760655Y-125693600D01*
X155760657Y-125693601D01*
X155856415Y-125722649D01*
X155931053Y-125730000D01*
X155931055Y-125730000D01*
X155955999Y-125732457D01*
X155980943Y-125730000D01*
X168123056Y-125730000D01*
X168148000Y-125732457D01*
X168172944Y-125730000D01*
X168172947Y-125730000D01*
X168247585Y-125722649D01*
X168343343Y-125693601D01*
X168431595Y-125646429D01*
X168508948Y-125582948D01*
X168524855Y-125563565D01*
X171759000Y-122329421D01*
X171759000Y-122635262D01*
X171831286Y-122998667D01*
X171973080Y-123340987D01*
X172178932Y-123649067D01*
X172440933Y-123911068D01*
X172749013Y-124116920D01*
X173091333Y-124258714D01*
X173454738Y-124331000D01*
X173825262Y-124331000D01*
X174188667Y-124258714D01*
X174530987Y-124116920D01*
X174839067Y-123911068D01*
X175101068Y-123649067D01*
X175306920Y-123340987D01*
X175448714Y-122998667D01*
X175521000Y-122635262D01*
X175521000Y-122264738D01*
X177439000Y-122264738D01*
X177439000Y-122635262D01*
X177511286Y-122998667D01*
X177653080Y-123340987D01*
X177858932Y-123649067D01*
X178120933Y-123911068D01*
X178429013Y-124116920D01*
X178771333Y-124258714D01*
X179134738Y-124331000D01*
X179505262Y-124331000D01*
X179868667Y-124258714D01*
X180210987Y-124116920D01*
X180519067Y-123911068D01*
X180781068Y-123649067D01*
X180986920Y-123340987D01*
X181128714Y-122998667D01*
X181201000Y-122635262D01*
X181201000Y-122264738D01*
X181128714Y-121901333D01*
X180986920Y-121559013D01*
X180781068Y-121250933D01*
X180519067Y-120988932D01*
X180210987Y-120783080D01*
X179868667Y-120641286D01*
X179505262Y-120569000D01*
X179134738Y-120569000D01*
X178771333Y-120641286D01*
X178429013Y-120783080D01*
X178120933Y-120988932D01*
X177858932Y-121250933D01*
X177653080Y-121559013D01*
X177511286Y-121901333D01*
X177439000Y-122264738D01*
X175521000Y-122264738D01*
X175448714Y-121901333D01*
X175306920Y-121559013D01*
X175101068Y-121250933D01*
X174839067Y-120988932D01*
X174530987Y-120783080D01*
X174188667Y-120641286D01*
X173825262Y-120569000D01*
X173519420Y-120569000D01*
X173575577Y-120512843D01*
X174740000Y-120512843D01*
X174814689Y-120505487D01*
X174886508Y-120483701D01*
X174952696Y-120448322D01*
X175010711Y-120400711D01*
X175058322Y-120342696D01*
X175093701Y-120276508D01*
X175115487Y-120204689D01*
X175122843Y-120130000D01*
X175122843Y-119888000D01*
X175596235Y-119888000D01*
X175607721Y-119915729D01*
X175731495Y-120100970D01*
X175889030Y-120258505D01*
X176074271Y-120382279D01*
X176280100Y-120467536D01*
X176498606Y-120511000D01*
X176721394Y-120511000D01*
X176939900Y-120467536D01*
X177145729Y-120382279D01*
X177330970Y-120258505D01*
X177488505Y-120100970D01*
X177612279Y-119915729D01*
X177697536Y-119709900D01*
X177741000Y-119491394D01*
X177741000Y-119268606D01*
X177697536Y-119050100D01*
X177686050Y-119022371D01*
X177846352Y-118862069D01*
X177865729Y-118846167D01*
X177912285Y-118789438D01*
X177929210Y-118768815D01*
X177976381Y-118680564D01*
X177976382Y-118680561D01*
X178005430Y-118584804D01*
X178012781Y-118510166D01*
X178012781Y-118510164D01*
X178015238Y-118485220D01*
X178012781Y-118460276D01*
X178012781Y-110662916D01*
X178120933Y-110771068D01*
X178429013Y-110976920D01*
X178771333Y-111118714D01*
X179134738Y-111191000D01*
X179505262Y-111191000D01*
X179868667Y-111118714D01*
X180210987Y-110976920D01*
X180519067Y-110771068D01*
X180781068Y-110509067D01*
X180986920Y-110200987D01*
X181128714Y-109858667D01*
X181201000Y-109495262D01*
X181201000Y-109124738D01*
X181128714Y-108761333D01*
X180986920Y-108419013D01*
X180781068Y-108110933D01*
X180519067Y-107848932D01*
X180210987Y-107643080D01*
X179868667Y-107501286D01*
X179505262Y-107429000D01*
X179134738Y-107429000D01*
X178771333Y-107501286D01*
X178429013Y-107643080D01*
X178120933Y-107848932D01*
X178012781Y-107957084D01*
X178012781Y-104752916D01*
X178120933Y-104861068D01*
X178429013Y-105066920D01*
X178771333Y-105208714D01*
X179134738Y-105281000D01*
X179505262Y-105281000D01*
X179868667Y-105208714D01*
X180210987Y-105066920D01*
X180519067Y-104861068D01*
X180781068Y-104599067D01*
X180986920Y-104290987D01*
X181128714Y-103948667D01*
X181201000Y-103585262D01*
X181201000Y-103214738D01*
X181128714Y-102851333D01*
X180986920Y-102509013D01*
X180781068Y-102200933D01*
X180519067Y-101938932D01*
X180210987Y-101733080D01*
X179868667Y-101591286D01*
X179505262Y-101519000D01*
X179134738Y-101519000D01*
X178771333Y-101591286D01*
X178429013Y-101733080D01*
X178120933Y-101938932D01*
X178012781Y-102047084D01*
X178012781Y-101249724D01*
X178015238Y-101224780D01*
X178012781Y-101199834D01*
X178005430Y-101125196D01*
X177976382Y-101029438D01*
X177960834Y-101000350D01*
X177929210Y-100941185D01*
X177881631Y-100883210D01*
X177865729Y-100863833D01*
X177846352Y-100847931D01*
X177686050Y-100687629D01*
X177697536Y-100659900D01*
X177741000Y-100441394D01*
X177741000Y-100218606D01*
X177697536Y-100000100D01*
X177686050Y-99972371D01*
X177846352Y-99812069D01*
X177865729Y-99796167D01*
X177884405Y-99773409D01*
X177929210Y-99718815D01*
X177976381Y-99630564D01*
X177976382Y-99630561D01*
X178005430Y-99534804D01*
X178012781Y-99460166D01*
X178012781Y-99460164D01*
X178015238Y-99435220D01*
X178012781Y-99410276D01*
X178012781Y-91612916D01*
X178120933Y-91721068D01*
X178429013Y-91926920D01*
X178771333Y-92068714D01*
X179134738Y-92141000D01*
X179505262Y-92141000D01*
X179868667Y-92068714D01*
X180210987Y-91926920D01*
X180519067Y-91721068D01*
X180781068Y-91459067D01*
X180986920Y-91150987D01*
X181128714Y-90808667D01*
X181201000Y-90445262D01*
X181201000Y-90074738D01*
X181128714Y-89711333D01*
X180986920Y-89369013D01*
X180781068Y-89060933D01*
X180519067Y-88798932D01*
X180210987Y-88593080D01*
X179868667Y-88451286D01*
X179505262Y-88379000D01*
X179134738Y-88379000D01*
X178771333Y-88451286D01*
X178429013Y-88593080D01*
X178120933Y-88798932D01*
X178012781Y-88907084D01*
X178012781Y-85702916D01*
X178120933Y-85811068D01*
X178429013Y-86016920D01*
X178771333Y-86158714D01*
X179134738Y-86231000D01*
X179505262Y-86231000D01*
X179868667Y-86158714D01*
X180210987Y-86016920D01*
X180519067Y-85811068D01*
X180781068Y-85549067D01*
X180986920Y-85240987D01*
X181128714Y-84898667D01*
X181201000Y-84535262D01*
X181201000Y-84164738D01*
X181128714Y-83801333D01*
X180986920Y-83459013D01*
X180781068Y-83150933D01*
X180519067Y-82888932D01*
X180210987Y-82683080D01*
X179868667Y-82541286D01*
X179505262Y-82469000D01*
X179134738Y-82469000D01*
X178771333Y-82541286D01*
X178429013Y-82683080D01*
X178120933Y-82888932D01*
X178012781Y-82997084D01*
X178012781Y-82199724D01*
X178015238Y-82174780D01*
X178011877Y-82140657D01*
X178005430Y-82075196D01*
X177976382Y-81979438D01*
X177969682Y-81966903D01*
X177929210Y-81891185D01*
X177881631Y-81833210D01*
X177865729Y-81813833D01*
X177846352Y-81797931D01*
X177686050Y-81637629D01*
X177697536Y-81609900D01*
X177741000Y-81391394D01*
X177741000Y-81168606D01*
X177697536Y-80950100D01*
X177612279Y-80744271D01*
X177488505Y-80559030D01*
X177330970Y-80401495D01*
X177145729Y-80277721D01*
X176939900Y-80192464D01*
X176721394Y-80149000D01*
X176498606Y-80149000D01*
X176280100Y-80192464D01*
X176074271Y-80277721D01*
X175889030Y-80401495D01*
X175731495Y-80559030D01*
X175607721Y-80744271D01*
X175596235Y-80772000D01*
X175122843Y-80772000D01*
X175122843Y-80530000D01*
X175115487Y-80455311D01*
X175093701Y-80383492D01*
X175058322Y-80317304D01*
X175010711Y-80259289D01*
X174952696Y-80211678D01*
X174886508Y-80176299D01*
X174814689Y-80154513D01*
X174740000Y-80147157D01*
X173341264Y-80147157D01*
X173632371Y-79856050D01*
X173660100Y-79867536D01*
X173878606Y-79911000D01*
X174101394Y-79911000D01*
X174319900Y-79867536D01*
X174525729Y-79782279D01*
X174710970Y-79658505D01*
X174868505Y-79500970D01*
X174992279Y-79315729D01*
X175003765Y-79288000D01*
X175596235Y-79288000D01*
X175607721Y-79315729D01*
X175731495Y-79500970D01*
X175889030Y-79658505D01*
X176074271Y-79782279D01*
X176280100Y-79867536D01*
X176498606Y-79911000D01*
X176721394Y-79911000D01*
X176939900Y-79867536D01*
X177145729Y-79782279D01*
X177330970Y-79658505D01*
X177488505Y-79500970D01*
X177612279Y-79315729D01*
X177697536Y-79109900D01*
X177741000Y-78891394D01*
X177741000Y-78668606D01*
X177697536Y-78450100D01*
X177612279Y-78244271D01*
X177488505Y-78059030D01*
X177330970Y-77901495D01*
X177149140Y-77780000D01*
X177330970Y-77658505D01*
X177488505Y-77500970D01*
X177612279Y-77315729D01*
X177697536Y-77109900D01*
X177741000Y-76891394D01*
X177741000Y-76668606D01*
X177697536Y-76450100D01*
X177612279Y-76244271D01*
X177488505Y-76059030D01*
X177330970Y-75901495D01*
X177145729Y-75777721D01*
X176939900Y-75692464D01*
X176763984Y-75657472D01*
X176952238Y-75628965D01*
X177208832Y-75536277D01*
X177321863Y-75475860D01*
X177387388Y-75236993D01*
X176610000Y-74459605D01*
X175832612Y-75236993D01*
X175898137Y-75475860D01*
X176145116Y-75591760D01*
X176409960Y-75657250D01*
X176448257Y-75659015D01*
X176280100Y-75692464D01*
X176074271Y-75777721D01*
X175889030Y-75901495D01*
X175731495Y-76059030D01*
X175607721Y-76244271D01*
X175596235Y-76272000D01*
X175003765Y-76272000D01*
X174992279Y-76244271D01*
X174868505Y-76059030D01*
X174710970Y-75901495D01*
X174525729Y-75777721D01*
X174319900Y-75692464D01*
X174143984Y-75657472D01*
X174332238Y-75628965D01*
X174588832Y-75536277D01*
X174701863Y-75475860D01*
X174767388Y-75236993D01*
X173990000Y-74459605D01*
X173212612Y-75236993D01*
X173278137Y-75475860D01*
X173525116Y-75591760D01*
X173789960Y-75657250D01*
X173828257Y-75659015D01*
X173660100Y-75692464D01*
X173454271Y-75777721D01*
X173269030Y-75901495D01*
X173111495Y-76059030D01*
X172987721Y-76244271D01*
X172902464Y-76450100D01*
X172859000Y-76668606D01*
X172859000Y-76891394D01*
X172902464Y-77109900D01*
X172913950Y-77137629D01*
X168314435Y-81737145D01*
X168295052Y-81753052D01*
X168231571Y-81830405D01*
X168184399Y-81918658D01*
X168155351Y-82014416D01*
X168151610Y-82052405D01*
X168145543Y-82114000D01*
X168148000Y-82138944D01*
X168148001Y-91415046D01*
X168145543Y-91440000D01*
X168155352Y-91539584D01*
X168184400Y-91635343D01*
X168231571Y-91723595D01*
X168279150Y-91781570D01*
X168295053Y-91800948D01*
X168314430Y-91816850D01*
X172669145Y-96171565D01*
X172685052Y-96190948D01*
X172762405Y-96254429D01*
X172850657Y-96301601D01*
X172946415Y-96330649D01*
X172974329Y-96333398D01*
X172987721Y-96365729D01*
X173111495Y-96550970D01*
X173269030Y-96708505D01*
X173450860Y-96830000D01*
X173269030Y-96951495D01*
X173111495Y-97109030D01*
X172987721Y-97294271D01*
X172902464Y-97500100D01*
X172859000Y-97718606D01*
X172859000Y-97941394D01*
X172902464Y-98159900D01*
X172913950Y-98187629D01*
X171108430Y-99993150D01*
X171089053Y-100009052D01*
X171073151Y-100028429D01*
X171073150Y-100028430D01*
X171025571Y-100086405D01*
X170978400Y-100174657D01*
X170949352Y-100270416D01*
X170939543Y-100370000D01*
X170942001Y-100394954D01*
X170942000Y-103619333D01*
X170939543Y-103644277D01*
X170942000Y-103669221D01*
X170942000Y-103669223D01*
X170949351Y-103743861D01*
X170978399Y-103839619D01*
X171025571Y-103927872D01*
X171089052Y-104005225D01*
X171108435Y-104021132D01*
X174776782Y-107689480D01*
X174776782Y-107807315D01*
X174530987Y-107643080D01*
X174188667Y-107501286D01*
X173825262Y-107429000D01*
X173454738Y-107429000D01*
X173091333Y-107501286D01*
X172749013Y-107643080D01*
X172440933Y-107848932D01*
X172178932Y-108110933D01*
X171973080Y-108419013D01*
X171831286Y-108761333D01*
X171759000Y-109124738D01*
X171759000Y-109495262D01*
X171831286Y-109858667D01*
X171973080Y-110200987D01*
X172178932Y-110509067D01*
X172440933Y-110771068D01*
X172749013Y-110976920D01*
X173091333Y-111118714D01*
X173316680Y-111163538D01*
X173278137Y-111184140D01*
X173212612Y-111423007D01*
X173990000Y-112200395D01*
X174004143Y-112186253D01*
X174183748Y-112365858D01*
X174169605Y-112380000D01*
X174183748Y-112394143D01*
X174004143Y-112573748D01*
X173990000Y-112559605D01*
X173212612Y-113336993D01*
X173278137Y-113575860D01*
X173525116Y-113691760D01*
X173789960Y-113757250D01*
X173828257Y-113759015D01*
X173660100Y-113792464D01*
X173454271Y-113877721D01*
X173269030Y-114001495D01*
X173111495Y-114159030D01*
X172987721Y-114344271D01*
X172902464Y-114550100D01*
X172859000Y-114768606D01*
X172859000Y-114991394D01*
X172902464Y-115209900D01*
X172987721Y-115415729D01*
X173111495Y-115600970D01*
X173269030Y-115758505D01*
X173450860Y-115880000D01*
X173269030Y-116001495D01*
X173111495Y-116159030D01*
X172987721Y-116344271D01*
X172902464Y-116550100D01*
X172859000Y-116768606D01*
X172859000Y-116991394D01*
X172902464Y-117209900D01*
X172987721Y-117415729D01*
X173111495Y-117600970D01*
X173269030Y-117758505D01*
X173454271Y-117882279D01*
X173660100Y-117967536D01*
X173878606Y-118011000D01*
X174101394Y-118011000D01*
X174319900Y-117967536D01*
X174525729Y-117882279D01*
X174710970Y-117758505D01*
X174868505Y-117600970D01*
X174992279Y-117415729D01*
X175003765Y-117388000D01*
X175596235Y-117388000D01*
X175607721Y-117415729D01*
X175731495Y-117600970D01*
X175889030Y-117758505D01*
X176074271Y-117882279D01*
X176280100Y-117967536D01*
X176498606Y-118011000D01*
X176721394Y-118011000D01*
X176939900Y-117967536D01*
X176996781Y-117943975D01*
X176996781Y-118274798D01*
X176967629Y-118303950D01*
X176939900Y-118292464D01*
X176721394Y-118249000D01*
X176498606Y-118249000D01*
X176280100Y-118292464D01*
X176074271Y-118377721D01*
X175889030Y-118501495D01*
X175731495Y-118659030D01*
X175607721Y-118844271D01*
X175596235Y-118872000D01*
X175122843Y-118872000D01*
X175122843Y-118630000D01*
X175115487Y-118555311D01*
X175093701Y-118483492D01*
X175058322Y-118417304D01*
X175010711Y-118359289D01*
X174952696Y-118311678D01*
X174886508Y-118276299D01*
X174814689Y-118254513D01*
X174740000Y-118247157D01*
X173240000Y-118247157D01*
X173165311Y-118254513D01*
X173093492Y-118276299D01*
X173027304Y-118311678D01*
X172969289Y-118359289D01*
X172921678Y-118417304D01*
X172886299Y-118483492D01*
X172864513Y-118555311D01*
X172857157Y-118630000D01*
X172857157Y-119794423D01*
X171558654Y-121092926D01*
X171558648Y-121092931D01*
X167937580Y-124714000D01*
X156166421Y-124714000D01*
X153782781Y-122330361D01*
X153782781Y-119975000D01*
X157692157Y-119975000D01*
X157692157Y-121325000D01*
X157699513Y-121399689D01*
X157721299Y-121471508D01*
X157756678Y-121537696D01*
X157804289Y-121595711D01*
X157862304Y-121643322D01*
X157928492Y-121678701D01*
X158000311Y-121700487D01*
X158075000Y-121707843D01*
X159425000Y-121707843D01*
X159499689Y-121700487D01*
X159571508Y-121678701D01*
X159637696Y-121643322D01*
X159695711Y-121595711D01*
X159743322Y-121537696D01*
X159778701Y-121471508D01*
X159800487Y-121399689D01*
X159807843Y-121325000D01*
X159807843Y-121134893D01*
X159814185Y-121150204D01*
X159929751Y-121323161D01*
X160076839Y-121470249D01*
X160249796Y-121585815D01*
X160441976Y-121665419D01*
X160645993Y-121706000D01*
X160854007Y-121706000D01*
X161058024Y-121665419D01*
X161250204Y-121585815D01*
X161423161Y-121470249D01*
X161570249Y-121323161D01*
X161685815Y-121150204D01*
X161750000Y-120995249D01*
X161814185Y-121150204D01*
X161929751Y-121323161D01*
X162076839Y-121470249D01*
X162249796Y-121585815D01*
X162441976Y-121665419D01*
X162645993Y-121706000D01*
X162854007Y-121706000D01*
X163058024Y-121665419D01*
X163250204Y-121585815D01*
X163423161Y-121470249D01*
X163570249Y-121323161D01*
X163603286Y-121273717D01*
X163704656Y-121439537D01*
X163878773Y-121628303D01*
X164086371Y-121779473D01*
X164319472Y-121887238D01*
X164420600Y-121917910D01*
X164623000Y-121794224D01*
X164623000Y-120777000D01*
X164877000Y-120777000D01*
X164877000Y-121794224D01*
X165079400Y-121917910D01*
X165180528Y-121887238D01*
X165413629Y-121779473D01*
X165621227Y-121628303D01*
X165795344Y-121439537D01*
X165929289Y-121220430D01*
X166017915Y-120979401D01*
X165895085Y-120777000D01*
X164877000Y-120777000D01*
X164623000Y-120777000D01*
X164603000Y-120777000D01*
X164603000Y-120523000D01*
X164623000Y-120523000D01*
X164623000Y-119505776D01*
X164877000Y-119505776D01*
X164877000Y-120523000D01*
X165895085Y-120523000D01*
X166017915Y-120320599D01*
X165929289Y-120079570D01*
X165795344Y-119860463D01*
X165621227Y-119671697D01*
X165413629Y-119520527D01*
X165180528Y-119412762D01*
X165079400Y-119382090D01*
X164877000Y-119505776D01*
X164623000Y-119505776D01*
X164420600Y-119382090D01*
X164319472Y-119412762D01*
X164086371Y-119520527D01*
X163878773Y-119671697D01*
X163704656Y-119860463D01*
X163603286Y-120026283D01*
X163570249Y-119976839D01*
X163423161Y-119829751D01*
X163250204Y-119714185D01*
X163058024Y-119634581D01*
X162854007Y-119594000D01*
X162645993Y-119594000D01*
X162441976Y-119634581D01*
X162249796Y-119714185D01*
X162076839Y-119829751D01*
X161929751Y-119976839D01*
X161814185Y-120149796D01*
X161750000Y-120304751D01*
X161685815Y-120149796D01*
X161570249Y-119976839D01*
X161423161Y-119829751D01*
X161250204Y-119714185D01*
X161058024Y-119634581D01*
X160854007Y-119594000D01*
X160645993Y-119594000D01*
X160494234Y-119624186D01*
X165441571Y-114676850D01*
X165460948Y-114660948D01*
X165493176Y-114621678D01*
X165524429Y-114583596D01*
X165559431Y-114518111D01*
X165571601Y-114495343D01*
X165600649Y-114399585D01*
X165608000Y-114324947D01*
X165608000Y-114324945D01*
X165610457Y-114300001D01*
X165608000Y-114275057D01*
X165608000Y-112452492D01*
X172600188Y-112452492D01*
X172641035Y-112722238D01*
X172733723Y-112978832D01*
X172794140Y-113091863D01*
X173033007Y-113157388D01*
X173810395Y-112380000D01*
X173033007Y-111602612D01*
X172794140Y-111668137D01*
X172678240Y-111915116D01*
X172612750Y-112179960D01*
X172600188Y-112452492D01*
X165608000Y-112452492D01*
X165608000Y-97089631D01*
X165691884Y-97005747D01*
X165775276Y-96880942D01*
X165832717Y-96742267D01*
X165862000Y-96595050D01*
X165862000Y-96444950D01*
X165832717Y-96297733D01*
X165775276Y-96159058D01*
X165691884Y-96034253D01*
X165585747Y-95928116D01*
X165460942Y-95844724D01*
X165322267Y-95787283D01*
X165175050Y-95758000D01*
X165024950Y-95758000D01*
X164877733Y-95787283D01*
X164739058Y-95844724D01*
X164614253Y-95928116D01*
X164508116Y-96034253D01*
X164424724Y-96159058D01*
X164367283Y-96297733D01*
X164338000Y-96444950D01*
X164338000Y-96595050D01*
X164367283Y-96742267D01*
X164424724Y-96880942D01*
X164508116Y-97005747D01*
X164592000Y-97089631D01*
X164592001Y-114089578D01*
X159089423Y-119592157D01*
X158075000Y-119592157D01*
X158000311Y-119599513D01*
X157928492Y-119621299D01*
X157862304Y-119656678D01*
X157804289Y-119704289D01*
X157756678Y-119762304D01*
X157721299Y-119828492D01*
X157699513Y-119900311D01*
X157692157Y-119975000D01*
X153782781Y-119975000D01*
X153782781Y-119009724D01*
X153785238Y-118984780D01*
X153777715Y-118908400D01*
X153775430Y-118885196D01*
X153746382Y-118789438D01*
X153719957Y-118740000D01*
X153699210Y-118701185D01*
X153651631Y-118643210D01*
X153635729Y-118623833D01*
X153616352Y-118607931D01*
X153412843Y-118404422D01*
X153412843Y-114940000D01*
X153405487Y-114865311D01*
X153383701Y-114793492D01*
X153348322Y-114727304D01*
X153300711Y-114669289D01*
X153242696Y-114621678D01*
X153176508Y-114586299D01*
X153104689Y-114564513D01*
X153030000Y-114557157D01*
X149230000Y-114557157D01*
X149155311Y-114564513D01*
X149083492Y-114586299D01*
X149017304Y-114621678D01*
X148959289Y-114669289D01*
X148911678Y-114727304D01*
X148876299Y-114793492D01*
X148854513Y-114865311D01*
X148847157Y-114940000D01*
X146162843Y-114940000D01*
X146155487Y-114865311D01*
X146133701Y-114793492D01*
X146098322Y-114727304D01*
X146050711Y-114669289D01*
X145992696Y-114621678D01*
X145926508Y-114586299D01*
X145854689Y-114564513D01*
X145780000Y-114557157D01*
X141980000Y-114557157D01*
X141905311Y-114564513D01*
X141833492Y-114586299D01*
X141767304Y-114621678D01*
X141709289Y-114669289D01*
X141661678Y-114727304D01*
X141626299Y-114793492D01*
X141604513Y-114865311D01*
X141597157Y-114940000D01*
X135679559Y-114940000D01*
X135576180Y-114785283D01*
X135404717Y-114613820D01*
X135203097Y-114479102D01*
X134979069Y-114386307D01*
X134741243Y-114339000D01*
X134498757Y-114339000D01*
X134260931Y-114386307D01*
X134036903Y-114479102D01*
X133835283Y-114613820D01*
X133663820Y-114785283D01*
X133529102Y-114986903D01*
X133485091Y-115093154D01*
X133476825Y-115065901D01*
X133351641Y-114803080D01*
X133177588Y-114569731D01*
X132961355Y-114374822D01*
X132711252Y-114225843D01*
X132548832Y-114168228D01*
X132663097Y-114120898D01*
X132864717Y-113986180D01*
X133036180Y-113814717D01*
X133170898Y-113613097D01*
X133263693Y-113389069D01*
X133311000Y-113151243D01*
X133311000Y-112908757D01*
X133263693Y-112670931D01*
X133170898Y-112446903D01*
X133036180Y-112245283D01*
X132864717Y-112073820D01*
X132663097Y-111939102D01*
X132439069Y-111846307D01*
X132201243Y-111799000D01*
X131958757Y-111799000D01*
X131720931Y-111846307D01*
X131496903Y-111939102D01*
X131295283Y-112073820D01*
X131123820Y-112245283D01*
X130989102Y-112446903D01*
X130896307Y-112670931D01*
X130849000Y-112908757D01*
X130849000Y-113151243D01*
X130896307Y-113389069D01*
X130989102Y-113613097D01*
X131123820Y-113814717D01*
X131295283Y-113986180D01*
X131496903Y-114120898D01*
X131611168Y-114168228D01*
X131448748Y-114225843D01*
X131198645Y-114374822D01*
X130982412Y-114569731D01*
X130808359Y-114803080D01*
X130683175Y-115065901D01*
X130638524Y-115213110D01*
X126873000Y-115213110D01*
X126873000Y-110368757D01*
X130849000Y-110368757D01*
X130849000Y-110611243D01*
X130896307Y-110849069D01*
X130989102Y-111073097D01*
X131123820Y-111274717D01*
X131295283Y-111446180D01*
X131496903Y-111580898D01*
X131720931Y-111673693D01*
X131958757Y-111721000D01*
X132201243Y-111721000D01*
X132439069Y-111673693D01*
X132663097Y-111580898D01*
X132864717Y-111446180D01*
X133036180Y-111274717D01*
X133170898Y-111073097D01*
X133214909Y-110966846D01*
X133223175Y-110994099D01*
X133348359Y-111256920D01*
X133522412Y-111490269D01*
X133738645Y-111685178D01*
X133988748Y-111834157D01*
X134151168Y-111891772D01*
X134036903Y-111939102D01*
X133835283Y-112073820D01*
X133663820Y-112245283D01*
X133529102Y-112446903D01*
X133436307Y-112670931D01*
X133389000Y-112908757D01*
X133389000Y-113151243D01*
X133436307Y-113389069D01*
X133529102Y-113613097D01*
X133663820Y-113814717D01*
X133835283Y-113986180D01*
X134036903Y-114120898D01*
X134260931Y-114213693D01*
X134498757Y-114261000D01*
X134741243Y-114261000D01*
X134979069Y-114213693D01*
X135203097Y-114120898D01*
X135404717Y-113986180D01*
X135576180Y-113814717D01*
X135710898Y-113613097D01*
X135803693Y-113389069D01*
X135851000Y-113151243D01*
X135851000Y-112908757D01*
X135803693Y-112670931D01*
X135710898Y-112446903D01*
X135576180Y-112245283D01*
X135404717Y-112073820D01*
X135203097Y-111939102D01*
X135088832Y-111891772D01*
X135251252Y-111834157D01*
X135501355Y-111685178D01*
X135717588Y-111490269D01*
X135891641Y-111256920D01*
X136016825Y-110994099D01*
X136061476Y-110846890D01*
X135940155Y-110617000D01*
X134747000Y-110617000D01*
X134747000Y-110637000D01*
X134493000Y-110637000D01*
X134493000Y-110617000D01*
X134473000Y-110617000D01*
X134473000Y-110363000D01*
X134493000Y-110363000D01*
X134493000Y-110343000D01*
X134747000Y-110343000D01*
X134747000Y-110363000D01*
X135940155Y-110363000D01*
X136061476Y-110133110D01*
X136016825Y-109985901D01*
X135891641Y-109723080D01*
X135717588Y-109489731D01*
X135501355Y-109294822D01*
X135251252Y-109145843D01*
X135088832Y-109088228D01*
X135203097Y-109040898D01*
X135404717Y-108906180D01*
X135576180Y-108734717D01*
X135710898Y-108533097D01*
X135803693Y-108309069D01*
X135851000Y-108071243D01*
X135851000Y-107828757D01*
X135803693Y-107590931D01*
X135710898Y-107366903D01*
X135576180Y-107165283D01*
X135404717Y-106993820D01*
X135203097Y-106859102D01*
X135183226Y-106850871D01*
X159012079Y-106850871D01*
X159012079Y-107000971D01*
X159041362Y-107148188D01*
X159098803Y-107286863D01*
X159182195Y-107411668D01*
X159288332Y-107517805D01*
X159413137Y-107601197D01*
X159551812Y-107658638D01*
X159699029Y-107687921D01*
X159849129Y-107687921D01*
X159996346Y-107658638D01*
X160135021Y-107601197D01*
X160259826Y-107517805D01*
X160365963Y-107411668D01*
X160449355Y-107286863D01*
X160506796Y-107148188D01*
X160536079Y-107000971D01*
X160536079Y-106850871D01*
X160506796Y-106703654D01*
X160449355Y-106564979D01*
X160365963Y-106440174D01*
X160282079Y-106356290D01*
X160282079Y-99516341D01*
X161631571Y-98166850D01*
X161650948Y-98150948D01*
X161666855Y-98131565D01*
X162901571Y-96896850D01*
X162920948Y-96880948D01*
X162939624Y-96858190D01*
X162984429Y-96803596D01*
X163031600Y-96715345D01*
X163033675Y-96708505D01*
X163060649Y-96619585D01*
X163068000Y-96544947D01*
X163068000Y-96544945D01*
X163070457Y-96520001D01*
X163068000Y-96495053D01*
X163068000Y-95819631D01*
X163151884Y-95735747D01*
X163235276Y-95610942D01*
X163292717Y-95472267D01*
X163322000Y-95325050D01*
X163322000Y-95174950D01*
X163292717Y-95027733D01*
X163235276Y-94889058D01*
X163151884Y-94764253D01*
X163045747Y-94658116D01*
X162920942Y-94574724D01*
X162782267Y-94517283D01*
X162635050Y-94488000D01*
X162484950Y-94488000D01*
X162337733Y-94517283D01*
X162199058Y-94574724D01*
X162074253Y-94658116D01*
X161968116Y-94764253D01*
X161884724Y-94889058D01*
X161827283Y-95027733D01*
X161798000Y-95174950D01*
X161798000Y-95325050D01*
X161827283Y-95472267D01*
X161884724Y-95610942D01*
X161968116Y-95735747D01*
X162052001Y-95819632D01*
X162052000Y-96309579D01*
X160948435Y-97413145D01*
X160929052Y-97429052D01*
X160913150Y-97448429D01*
X159432509Y-98929071D01*
X159413132Y-98944973D01*
X159397230Y-98964350D01*
X159397229Y-98964351D01*
X159349650Y-99022326D01*
X159302479Y-99110578D01*
X159275657Y-99199000D01*
X159273431Y-99206337D01*
X159263622Y-99305921D01*
X159266080Y-99330875D01*
X159266079Y-100600867D01*
X159266080Y-100600877D01*
X159266079Y-106356290D01*
X159182195Y-106440174D01*
X159098803Y-106564979D01*
X159041362Y-106703654D01*
X159012079Y-106850871D01*
X135183226Y-106850871D01*
X134979069Y-106766307D01*
X134741243Y-106719000D01*
X134498757Y-106719000D01*
X134260931Y-106766307D01*
X134036903Y-106859102D01*
X133835283Y-106993820D01*
X133663820Y-107165283D01*
X133529102Y-107366903D01*
X133436307Y-107590931D01*
X133389000Y-107828757D01*
X133389000Y-108071243D01*
X133436307Y-108309069D01*
X133529102Y-108533097D01*
X133663820Y-108734717D01*
X133835283Y-108906180D01*
X134036903Y-109040898D01*
X134151168Y-109088228D01*
X133988748Y-109145843D01*
X133738645Y-109294822D01*
X133522412Y-109489731D01*
X133348359Y-109723080D01*
X133223175Y-109985901D01*
X133214909Y-110013154D01*
X133170898Y-109906903D01*
X133036180Y-109705283D01*
X132864717Y-109533820D01*
X132663097Y-109399102D01*
X132439069Y-109306307D01*
X132201243Y-109259000D01*
X131958757Y-109259000D01*
X131720931Y-109306307D01*
X131496903Y-109399102D01*
X131295283Y-109533820D01*
X131123820Y-109705283D01*
X130989102Y-109906903D01*
X130896307Y-110130931D01*
X130849000Y-110368757D01*
X126873000Y-110368757D01*
X126873000Y-107828757D01*
X130849000Y-107828757D01*
X130849000Y-108071243D01*
X130896307Y-108309069D01*
X130989102Y-108533097D01*
X131123820Y-108734717D01*
X131295283Y-108906180D01*
X131496903Y-109040898D01*
X131720931Y-109133693D01*
X131958757Y-109181000D01*
X132201243Y-109181000D01*
X132439069Y-109133693D01*
X132663097Y-109040898D01*
X132864717Y-108906180D01*
X133036180Y-108734717D01*
X133170898Y-108533097D01*
X133263693Y-108309069D01*
X133311000Y-108071243D01*
X133311000Y-107828757D01*
X133263693Y-107590931D01*
X133170898Y-107366903D01*
X133036180Y-107165283D01*
X132864717Y-106993820D01*
X132663097Y-106859102D01*
X132439069Y-106766307D01*
X132201243Y-106719000D01*
X131958757Y-106719000D01*
X131720931Y-106766307D01*
X131496903Y-106859102D01*
X131295283Y-106993820D01*
X131123820Y-107165283D01*
X130989102Y-107366903D01*
X130896307Y-107590931D01*
X130849000Y-107828757D01*
X126873000Y-107828757D01*
X126873000Y-105288757D01*
X130849000Y-105288757D01*
X130849000Y-105531243D01*
X130896307Y-105769069D01*
X130989102Y-105993097D01*
X131123820Y-106194717D01*
X131295283Y-106366180D01*
X131496903Y-106500898D01*
X131720931Y-106593693D01*
X131958757Y-106641000D01*
X132201243Y-106641000D01*
X132439069Y-106593693D01*
X132663097Y-106500898D01*
X132864717Y-106366180D01*
X133036180Y-106194717D01*
X133170898Y-105993097D01*
X133263693Y-105769069D01*
X133311000Y-105531243D01*
X133311000Y-105288757D01*
X133389000Y-105288757D01*
X133389000Y-105531243D01*
X133436307Y-105769069D01*
X133529102Y-105993097D01*
X133663820Y-106194717D01*
X133835283Y-106366180D01*
X134036903Y-106500898D01*
X134260931Y-106593693D01*
X134498757Y-106641000D01*
X134741243Y-106641000D01*
X134979069Y-106593693D01*
X135203097Y-106500898D01*
X135404717Y-106366180D01*
X135576180Y-106194717D01*
X135710898Y-105993097D01*
X135803693Y-105769069D01*
X135851000Y-105531243D01*
X135851000Y-105288757D01*
X135803693Y-105050931D01*
X135710898Y-104826903D01*
X135576180Y-104625283D01*
X135404717Y-104453820D01*
X135203097Y-104319102D01*
X134979069Y-104226307D01*
X134741243Y-104179000D01*
X134498757Y-104179000D01*
X134260931Y-104226307D01*
X134036903Y-104319102D01*
X133835283Y-104453820D01*
X133663820Y-104625283D01*
X133529102Y-104826903D01*
X133436307Y-105050931D01*
X133389000Y-105288757D01*
X133311000Y-105288757D01*
X133263693Y-105050931D01*
X133170898Y-104826903D01*
X133036180Y-104625283D01*
X132864717Y-104453820D01*
X132663097Y-104319102D01*
X132439069Y-104226307D01*
X132201243Y-104179000D01*
X131958757Y-104179000D01*
X131720931Y-104226307D01*
X131496903Y-104319102D01*
X131295283Y-104453820D01*
X131123820Y-104625283D01*
X130989102Y-104826903D01*
X130896307Y-105050931D01*
X130849000Y-105288757D01*
X126873000Y-105288757D01*
X126873000Y-102748757D01*
X130849000Y-102748757D01*
X130849000Y-102991243D01*
X130896307Y-103229069D01*
X130989102Y-103453097D01*
X131123820Y-103654717D01*
X131295283Y-103826180D01*
X131496903Y-103960898D01*
X131720931Y-104053693D01*
X131958757Y-104101000D01*
X132201243Y-104101000D01*
X132439069Y-104053693D01*
X132663097Y-103960898D01*
X132864717Y-103826180D01*
X133036180Y-103654717D01*
X133170898Y-103453097D01*
X133263693Y-103229069D01*
X133311000Y-102991243D01*
X133311000Y-102748757D01*
X133389000Y-102748757D01*
X133389000Y-102991243D01*
X133436307Y-103229069D01*
X133529102Y-103453097D01*
X133663820Y-103654717D01*
X133835283Y-103826180D01*
X134036903Y-103960898D01*
X134260931Y-104053693D01*
X134498757Y-104101000D01*
X134741243Y-104101000D01*
X134979069Y-104053693D01*
X135203097Y-103960898D01*
X135404717Y-103826180D01*
X135576180Y-103654717D01*
X135710898Y-103453097D01*
X135803693Y-103229069D01*
X135851000Y-102991243D01*
X135851000Y-102748757D01*
X135803693Y-102510931D01*
X135710898Y-102286903D01*
X135576180Y-102085283D01*
X135404717Y-101913820D01*
X135203097Y-101779102D01*
X134979069Y-101686307D01*
X134741243Y-101639000D01*
X134498757Y-101639000D01*
X134260931Y-101686307D01*
X134036903Y-101779102D01*
X133835283Y-101913820D01*
X133663820Y-102085283D01*
X133529102Y-102286903D01*
X133436307Y-102510931D01*
X133389000Y-102748757D01*
X133311000Y-102748757D01*
X133263693Y-102510931D01*
X133170898Y-102286903D01*
X133036180Y-102085283D01*
X132864717Y-101913820D01*
X132663097Y-101779102D01*
X132439069Y-101686307D01*
X132201243Y-101639000D01*
X131958757Y-101639000D01*
X131720931Y-101686307D01*
X131496903Y-101779102D01*
X131295283Y-101913820D01*
X131123820Y-102085283D01*
X130989102Y-102286903D01*
X130896307Y-102510931D01*
X130849000Y-102748757D01*
X126873000Y-102748757D01*
X126873000Y-100208757D01*
X130849000Y-100208757D01*
X130849000Y-100451243D01*
X130896307Y-100689069D01*
X130989102Y-100913097D01*
X131123820Y-101114717D01*
X131295283Y-101286180D01*
X131496903Y-101420898D01*
X131720931Y-101513693D01*
X131958757Y-101561000D01*
X132201243Y-101561000D01*
X132439069Y-101513693D01*
X132663097Y-101420898D01*
X132864717Y-101286180D01*
X133036180Y-101114717D01*
X133170898Y-100913097D01*
X133263693Y-100689069D01*
X133311000Y-100451243D01*
X133311000Y-100208757D01*
X133389000Y-100208757D01*
X133389000Y-100451243D01*
X133436307Y-100689069D01*
X133529102Y-100913097D01*
X133663820Y-101114717D01*
X133835283Y-101286180D01*
X134036903Y-101420898D01*
X134260931Y-101513693D01*
X134498757Y-101561000D01*
X134741243Y-101561000D01*
X134979069Y-101513693D01*
X135203097Y-101420898D01*
X135404717Y-101286180D01*
X135576180Y-101114717D01*
X135710898Y-100913097D01*
X135803693Y-100689069D01*
X135851000Y-100451243D01*
X135851000Y-100208757D01*
X135803693Y-99970931D01*
X135710898Y-99746903D01*
X135576180Y-99545283D01*
X135404717Y-99373820D01*
X135203097Y-99239102D01*
X134979069Y-99146307D01*
X134741243Y-99099000D01*
X134498757Y-99099000D01*
X134260931Y-99146307D01*
X134036903Y-99239102D01*
X133835283Y-99373820D01*
X133663820Y-99545283D01*
X133529102Y-99746903D01*
X133436307Y-99970931D01*
X133389000Y-100208757D01*
X133311000Y-100208757D01*
X133263693Y-99970931D01*
X133170898Y-99746903D01*
X133036180Y-99545283D01*
X132864717Y-99373820D01*
X132663097Y-99239102D01*
X132439069Y-99146307D01*
X132201243Y-99099000D01*
X131958757Y-99099000D01*
X131720931Y-99146307D01*
X131496903Y-99239102D01*
X131295283Y-99373820D01*
X131123820Y-99545283D01*
X130989102Y-99746903D01*
X130896307Y-99970931D01*
X130849000Y-100208757D01*
X126873000Y-100208757D01*
X126873000Y-97668757D01*
X130849000Y-97668757D01*
X130849000Y-97911243D01*
X130896307Y-98149069D01*
X130989102Y-98373097D01*
X131123820Y-98574717D01*
X131295283Y-98746180D01*
X131496903Y-98880898D01*
X131720931Y-98973693D01*
X131958757Y-99021000D01*
X132201243Y-99021000D01*
X132439069Y-98973693D01*
X132663097Y-98880898D01*
X132864717Y-98746180D01*
X133036180Y-98574717D01*
X133170898Y-98373097D01*
X133263693Y-98149069D01*
X133311000Y-97911243D01*
X133311000Y-97668757D01*
X133389000Y-97668757D01*
X133389000Y-97911243D01*
X133436307Y-98149069D01*
X133529102Y-98373097D01*
X133663820Y-98574717D01*
X133835283Y-98746180D01*
X134036903Y-98880898D01*
X134260931Y-98973693D01*
X134498757Y-99021000D01*
X134741243Y-99021000D01*
X134979069Y-98973693D01*
X135203097Y-98880898D01*
X135404717Y-98746180D01*
X135576180Y-98574717D01*
X135710898Y-98373097D01*
X135803693Y-98149069D01*
X135851000Y-97911243D01*
X135851000Y-97668757D01*
X135803693Y-97430931D01*
X135710898Y-97206903D01*
X135576180Y-97005283D01*
X135404717Y-96833820D01*
X135203097Y-96699102D01*
X134979069Y-96606307D01*
X134741243Y-96559000D01*
X134498757Y-96559000D01*
X134260931Y-96606307D01*
X134036903Y-96699102D01*
X133835283Y-96833820D01*
X133663820Y-97005283D01*
X133529102Y-97206903D01*
X133436307Y-97430931D01*
X133389000Y-97668757D01*
X133311000Y-97668757D01*
X133263693Y-97430931D01*
X133170898Y-97206903D01*
X133036180Y-97005283D01*
X132864717Y-96833820D01*
X132663097Y-96699102D01*
X132439069Y-96606307D01*
X132201243Y-96559000D01*
X131958757Y-96559000D01*
X131720931Y-96606307D01*
X131496903Y-96699102D01*
X131295283Y-96833820D01*
X131123820Y-97005283D01*
X130989102Y-97206903D01*
X130896307Y-97430931D01*
X130849000Y-97668757D01*
X126873000Y-97668757D01*
X126873000Y-95128757D01*
X130849000Y-95128757D01*
X130849000Y-95371243D01*
X130896307Y-95609069D01*
X130989102Y-95833097D01*
X131123820Y-96034717D01*
X131295283Y-96206180D01*
X131496903Y-96340898D01*
X131720931Y-96433693D01*
X131958757Y-96481000D01*
X132201243Y-96481000D01*
X132439069Y-96433693D01*
X132663097Y-96340898D01*
X132864717Y-96206180D01*
X133036180Y-96034717D01*
X133170898Y-95833097D01*
X133263693Y-95609069D01*
X133311000Y-95371243D01*
X133311000Y-95128757D01*
X133389000Y-95128757D01*
X133389000Y-95371243D01*
X133436307Y-95609069D01*
X133529102Y-95833097D01*
X133663820Y-96034717D01*
X133835283Y-96206180D01*
X134036903Y-96340898D01*
X134260931Y-96433693D01*
X134498757Y-96481000D01*
X134741243Y-96481000D01*
X134979069Y-96433693D01*
X135203097Y-96340898D01*
X135404717Y-96206180D01*
X135576180Y-96034717D01*
X135710898Y-95833097D01*
X135803693Y-95609069D01*
X135851000Y-95371243D01*
X135851000Y-95128757D01*
X135803693Y-94890931D01*
X135710898Y-94666903D01*
X135576180Y-94465283D01*
X135404717Y-94293820D01*
X135203097Y-94159102D01*
X134979069Y-94066307D01*
X134741243Y-94019000D01*
X134498757Y-94019000D01*
X134260931Y-94066307D01*
X134036903Y-94159102D01*
X133835283Y-94293820D01*
X133663820Y-94465283D01*
X133529102Y-94666903D01*
X133436307Y-94890931D01*
X133389000Y-95128757D01*
X133311000Y-95128757D01*
X133263693Y-94890931D01*
X133170898Y-94666903D01*
X133036180Y-94465283D01*
X132864717Y-94293820D01*
X132663097Y-94159102D01*
X132439069Y-94066307D01*
X132201243Y-94019000D01*
X131958757Y-94019000D01*
X131720931Y-94066307D01*
X131496903Y-94159102D01*
X131295283Y-94293820D01*
X131123820Y-94465283D01*
X130989102Y-94666903D01*
X130896307Y-94890931D01*
X130849000Y-95128757D01*
X126873000Y-95128757D01*
X126873000Y-92588757D01*
X130849000Y-92588757D01*
X130849000Y-92831243D01*
X130896307Y-93069069D01*
X130989102Y-93293097D01*
X131123820Y-93494717D01*
X131295283Y-93666180D01*
X131496903Y-93800898D01*
X131720931Y-93893693D01*
X131958757Y-93941000D01*
X132201243Y-93941000D01*
X132439069Y-93893693D01*
X132663097Y-93800898D01*
X132864717Y-93666180D01*
X133036180Y-93494717D01*
X133170898Y-93293097D01*
X133263693Y-93069069D01*
X133311000Y-92831243D01*
X133311000Y-92588757D01*
X133389000Y-92588757D01*
X133389000Y-92831243D01*
X133436307Y-93069069D01*
X133529102Y-93293097D01*
X133663820Y-93494717D01*
X133835283Y-93666180D01*
X134036903Y-93800898D01*
X134260931Y-93893693D01*
X134498757Y-93941000D01*
X134741243Y-93941000D01*
X134979069Y-93893693D01*
X135203097Y-93800898D01*
X135404717Y-93666180D01*
X135576180Y-93494717D01*
X135710898Y-93293097D01*
X135803693Y-93069069D01*
X135839521Y-92888950D01*
X160782000Y-92888950D01*
X160782000Y-93039050D01*
X160811283Y-93186267D01*
X160868724Y-93324942D01*
X160952116Y-93449747D01*
X161058253Y-93555884D01*
X161183058Y-93639276D01*
X161321733Y-93696717D01*
X161468950Y-93726000D01*
X161619050Y-93726000D01*
X161766267Y-93696717D01*
X161904942Y-93639276D01*
X162029747Y-93555884D01*
X162113631Y-93472000D01*
X166370001Y-93472000D01*
X166370000Y-100776369D01*
X166286116Y-100860253D01*
X166202724Y-100985058D01*
X166145283Y-101123733D01*
X166116000Y-101270950D01*
X166116000Y-101421050D01*
X166145283Y-101568267D01*
X166202724Y-101706942D01*
X166286116Y-101831747D01*
X166392253Y-101937884D01*
X166517058Y-102021276D01*
X166655733Y-102078717D01*
X166802950Y-102108000D01*
X166953050Y-102108000D01*
X167100267Y-102078717D01*
X167238942Y-102021276D01*
X167363747Y-101937884D01*
X167469884Y-101831747D01*
X167553276Y-101706942D01*
X167610717Y-101568267D01*
X167640000Y-101421050D01*
X167640000Y-101270950D01*
X167610717Y-101123733D01*
X167553276Y-100985058D01*
X167469884Y-100860253D01*
X167386000Y-100776369D01*
X167386000Y-92988947D01*
X167388457Y-92964000D01*
X167378649Y-92864415D01*
X167349601Y-92768657D01*
X167302429Y-92680405D01*
X167238948Y-92603052D01*
X167161595Y-92539571D01*
X167073343Y-92492399D01*
X166977585Y-92463351D01*
X166902947Y-92456000D01*
X166878000Y-92453543D01*
X166853053Y-92456000D01*
X162113631Y-92456000D01*
X162029747Y-92372116D01*
X161904942Y-92288724D01*
X161766267Y-92231283D01*
X161619050Y-92202000D01*
X161468950Y-92202000D01*
X161321733Y-92231283D01*
X161183058Y-92288724D01*
X161058253Y-92372116D01*
X160952116Y-92478253D01*
X160868724Y-92603058D01*
X160811283Y-92741733D01*
X160782000Y-92888950D01*
X135839521Y-92888950D01*
X135851000Y-92831243D01*
X135851000Y-92588757D01*
X135803693Y-92350931D01*
X135710898Y-92126903D01*
X135576180Y-91925283D01*
X135404717Y-91753820D01*
X135203097Y-91619102D01*
X134979069Y-91526307D01*
X134741243Y-91479000D01*
X134498757Y-91479000D01*
X134260931Y-91526307D01*
X134036903Y-91619102D01*
X133835283Y-91753820D01*
X133663820Y-91925283D01*
X133529102Y-92126903D01*
X133436307Y-92350931D01*
X133389000Y-92588757D01*
X133311000Y-92588757D01*
X133263693Y-92350931D01*
X133170898Y-92126903D01*
X133036180Y-91925283D01*
X132864717Y-91753820D01*
X132663097Y-91619102D01*
X132439069Y-91526307D01*
X132201243Y-91479000D01*
X131958757Y-91479000D01*
X131720931Y-91526307D01*
X131496903Y-91619102D01*
X131295283Y-91753820D01*
X131123820Y-91925283D01*
X130989102Y-92126903D01*
X130896307Y-92350931D01*
X130849000Y-92588757D01*
X126873000Y-92588757D01*
X126873000Y-90048757D01*
X130849000Y-90048757D01*
X130849000Y-90291243D01*
X130896307Y-90529069D01*
X130989102Y-90753097D01*
X131123820Y-90954717D01*
X131295283Y-91126180D01*
X131496903Y-91260898D01*
X131720931Y-91353693D01*
X131958757Y-91401000D01*
X132201243Y-91401000D01*
X132439069Y-91353693D01*
X132663097Y-91260898D01*
X132864717Y-91126180D01*
X133036180Y-90954717D01*
X133170898Y-90753097D01*
X133263693Y-90529069D01*
X133311000Y-90291243D01*
X133311000Y-90048757D01*
X133389000Y-90048757D01*
X133389000Y-90291243D01*
X133436307Y-90529069D01*
X133529102Y-90753097D01*
X133663820Y-90954717D01*
X133835283Y-91126180D01*
X134036903Y-91260898D01*
X134260931Y-91353693D01*
X134498757Y-91401000D01*
X134741243Y-91401000D01*
X134979069Y-91353693D01*
X135203097Y-91260898D01*
X135404717Y-91126180D01*
X135576180Y-90954717D01*
X135710898Y-90753097D01*
X135803693Y-90529069D01*
X135851000Y-90291243D01*
X135851000Y-90048757D01*
X135803693Y-89810931D01*
X135710898Y-89586903D01*
X135576180Y-89385283D01*
X135404717Y-89213820D01*
X135203097Y-89079102D01*
X134979069Y-88986307D01*
X134741243Y-88939000D01*
X134498757Y-88939000D01*
X134260931Y-88986307D01*
X134036903Y-89079102D01*
X133835283Y-89213820D01*
X133663820Y-89385283D01*
X133529102Y-89586903D01*
X133436307Y-89810931D01*
X133389000Y-90048757D01*
X133311000Y-90048757D01*
X133263693Y-89810931D01*
X133170898Y-89586903D01*
X133036180Y-89385283D01*
X132864717Y-89213820D01*
X132663097Y-89079102D01*
X132439069Y-88986307D01*
X132201243Y-88939000D01*
X131958757Y-88939000D01*
X131720931Y-88986307D01*
X131496903Y-89079102D01*
X131295283Y-89213820D01*
X131123820Y-89385283D01*
X130989102Y-89586903D01*
X130896307Y-89810931D01*
X130849000Y-90048757D01*
X126873000Y-90048757D01*
X126873000Y-87508757D01*
X130849000Y-87508757D01*
X130849000Y-87751243D01*
X130896307Y-87989069D01*
X130989102Y-88213097D01*
X131123820Y-88414717D01*
X131295283Y-88586180D01*
X131496903Y-88720898D01*
X131720931Y-88813693D01*
X131958757Y-88861000D01*
X132201243Y-88861000D01*
X132439069Y-88813693D01*
X132663097Y-88720898D01*
X132864717Y-88586180D01*
X133036180Y-88414717D01*
X133170898Y-88213097D01*
X133263693Y-87989069D01*
X133311000Y-87751243D01*
X133311000Y-87508757D01*
X133389000Y-87508757D01*
X133389000Y-87751243D01*
X133436307Y-87989069D01*
X133529102Y-88213097D01*
X133663820Y-88414717D01*
X133835283Y-88586180D01*
X134036903Y-88720898D01*
X134260931Y-88813693D01*
X134498757Y-88861000D01*
X134741243Y-88861000D01*
X134979069Y-88813693D01*
X135203097Y-88720898D01*
X135404717Y-88586180D01*
X135576180Y-88414717D01*
X135710898Y-88213097D01*
X135803693Y-87989069D01*
X135851000Y-87751243D01*
X135851000Y-87508757D01*
X135803693Y-87270931D01*
X135710898Y-87046903D01*
X135576180Y-86845283D01*
X135404717Y-86673820D01*
X135203097Y-86539102D01*
X134979069Y-86446307D01*
X134741243Y-86399000D01*
X134498757Y-86399000D01*
X134260931Y-86446307D01*
X134036903Y-86539102D01*
X133835283Y-86673820D01*
X133663820Y-86845283D01*
X133529102Y-87046903D01*
X133436307Y-87270931D01*
X133389000Y-87508757D01*
X133311000Y-87508757D01*
X133263693Y-87270931D01*
X133170898Y-87046903D01*
X133036180Y-86845283D01*
X132864717Y-86673820D01*
X132663097Y-86539102D01*
X132439069Y-86446307D01*
X132201243Y-86399000D01*
X131958757Y-86399000D01*
X131720931Y-86446307D01*
X131496903Y-86539102D01*
X131295283Y-86673820D01*
X131123820Y-86845283D01*
X130989102Y-87046903D01*
X130896307Y-87270931D01*
X130849000Y-87508757D01*
X126873000Y-87508757D01*
X126873000Y-84968757D01*
X130849000Y-84968757D01*
X130849000Y-85211243D01*
X130896307Y-85449069D01*
X130989102Y-85673097D01*
X131123820Y-85874717D01*
X131295283Y-86046180D01*
X131496903Y-86180898D01*
X131720931Y-86273693D01*
X131958757Y-86321000D01*
X132201243Y-86321000D01*
X132439069Y-86273693D01*
X132663097Y-86180898D01*
X132864717Y-86046180D01*
X133036180Y-85874717D01*
X133170898Y-85673097D01*
X133263693Y-85449069D01*
X133311000Y-85211243D01*
X133311000Y-84968757D01*
X133389000Y-84968757D01*
X133389000Y-85211243D01*
X133436307Y-85449069D01*
X133529102Y-85673097D01*
X133663820Y-85874717D01*
X133835283Y-86046180D01*
X134036903Y-86180898D01*
X134260931Y-86273693D01*
X134498757Y-86321000D01*
X134741243Y-86321000D01*
X134979069Y-86273693D01*
X135203097Y-86180898D01*
X135404717Y-86046180D01*
X135576180Y-85874717D01*
X135710898Y-85673097D01*
X135803693Y-85449069D01*
X135851000Y-85211243D01*
X135851000Y-84968757D01*
X135803693Y-84730931D01*
X135710898Y-84506903D01*
X135576180Y-84305283D01*
X135404717Y-84133820D01*
X135203097Y-83999102D01*
X134979069Y-83906307D01*
X134741243Y-83859000D01*
X134498757Y-83859000D01*
X134260931Y-83906307D01*
X134036903Y-83999102D01*
X133835283Y-84133820D01*
X133663820Y-84305283D01*
X133529102Y-84506903D01*
X133436307Y-84730931D01*
X133389000Y-84968757D01*
X133311000Y-84968757D01*
X133263693Y-84730931D01*
X133170898Y-84506903D01*
X133036180Y-84305283D01*
X132864717Y-84133820D01*
X132663097Y-83999102D01*
X132439069Y-83906307D01*
X132201243Y-83859000D01*
X131958757Y-83859000D01*
X131720931Y-83906307D01*
X131496903Y-83999102D01*
X131295283Y-84133820D01*
X131123820Y-84305283D01*
X130989102Y-84506903D01*
X130896307Y-84730931D01*
X130849000Y-84968757D01*
X126873000Y-84968757D01*
X126873000Y-82428757D01*
X130849000Y-82428757D01*
X130849000Y-82671243D01*
X130896307Y-82909069D01*
X130989102Y-83133097D01*
X131123820Y-83334717D01*
X131295283Y-83506180D01*
X131496903Y-83640898D01*
X131720931Y-83733693D01*
X131958757Y-83781000D01*
X132201243Y-83781000D01*
X132439069Y-83733693D01*
X132663097Y-83640898D01*
X132864717Y-83506180D01*
X133036180Y-83334717D01*
X133170898Y-83133097D01*
X133263693Y-82909069D01*
X133311000Y-82671243D01*
X133311000Y-82428757D01*
X133389000Y-82428757D01*
X133389000Y-82671243D01*
X133436307Y-82909069D01*
X133529102Y-83133097D01*
X133663820Y-83334717D01*
X133835283Y-83506180D01*
X134036903Y-83640898D01*
X134260931Y-83733693D01*
X134498757Y-83781000D01*
X134741243Y-83781000D01*
X134979069Y-83733693D01*
X135203097Y-83640898D01*
X135404717Y-83506180D01*
X135576180Y-83334717D01*
X135710898Y-83133097D01*
X135803693Y-82909069D01*
X135851000Y-82671243D01*
X135851000Y-82428757D01*
X135803693Y-82190931D01*
X135710898Y-81966903D01*
X135576180Y-81765283D01*
X135404717Y-81593820D01*
X135203097Y-81459102D01*
X134979069Y-81366307D01*
X134741243Y-81319000D01*
X134498757Y-81319000D01*
X134260931Y-81366307D01*
X134036903Y-81459102D01*
X133835283Y-81593820D01*
X133663820Y-81765283D01*
X133529102Y-81966903D01*
X133436307Y-82190931D01*
X133389000Y-82428757D01*
X133311000Y-82428757D01*
X133263693Y-82190931D01*
X133170898Y-81966903D01*
X133036180Y-81765283D01*
X132864717Y-81593820D01*
X132663097Y-81459102D01*
X132439069Y-81366307D01*
X132201243Y-81319000D01*
X131958757Y-81319000D01*
X131720931Y-81366307D01*
X131496903Y-81459102D01*
X131295283Y-81593820D01*
X131123820Y-81765283D01*
X130989102Y-81966903D01*
X130896307Y-82190931D01*
X130849000Y-82428757D01*
X126873000Y-82428757D01*
X126873000Y-79888757D01*
X130849000Y-79888757D01*
X130849000Y-80131243D01*
X130896307Y-80369069D01*
X130989102Y-80593097D01*
X131123820Y-80794717D01*
X131295283Y-80966180D01*
X131496903Y-81100898D01*
X131720931Y-81193693D01*
X131958757Y-81241000D01*
X132201243Y-81241000D01*
X132439069Y-81193693D01*
X132663097Y-81100898D01*
X132864717Y-80966180D01*
X133036180Y-80794717D01*
X133170898Y-80593097D01*
X133263693Y-80369069D01*
X133311000Y-80131243D01*
X133311000Y-79888757D01*
X133389000Y-79888757D01*
X133389000Y-80131243D01*
X133436307Y-80369069D01*
X133529102Y-80593097D01*
X133663820Y-80794717D01*
X133835283Y-80966180D01*
X134036903Y-81100898D01*
X134260931Y-81193693D01*
X134498757Y-81241000D01*
X134741243Y-81241000D01*
X134979069Y-81193693D01*
X135203097Y-81100898D01*
X135404717Y-80966180D01*
X135576180Y-80794717D01*
X135710898Y-80593097D01*
X135803693Y-80369069D01*
X135851000Y-80131243D01*
X135851000Y-79888757D01*
X135803693Y-79650931D01*
X135710898Y-79426903D01*
X135576180Y-79225283D01*
X135404717Y-79053820D01*
X135203097Y-78919102D01*
X134979069Y-78826307D01*
X134741243Y-78779000D01*
X134498757Y-78779000D01*
X134260931Y-78826307D01*
X134036903Y-78919102D01*
X133835283Y-79053820D01*
X133663820Y-79225283D01*
X133529102Y-79426903D01*
X133436307Y-79650931D01*
X133389000Y-79888757D01*
X133311000Y-79888757D01*
X133263693Y-79650931D01*
X133170898Y-79426903D01*
X133036180Y-79225283D01*
X132864717Y-79053820D01*
X132663097Y-78919102D01*
X132439069Y-78826307D01*
X132201243Y-78779000D01*
X131958757Y-78779000D01*
X131720931Y-78826307D01*
X131496903Y-78919102D01*
X131295283Y-79053820D01*
X131123820Y-79225283D01*
X130989102Y-79426903D01*
X130896307Y-79650931D01*
X130849000Y-79888757D01*
X126873000Y-79888757D01*
X126873000Y-77348757D01*
X130849000Y-77348757D01*
X130849000Y-77591243D01*
X130896307Y-77829069D01*
X130989102Y-78053097D01*
X131123820Y-78254717D01*
X131295283Y-78426180D01*
X131496903Y-78560898D01*
X131720931Y-78653693D01*
X131958757Y-78701000D01*
X132201243Y-78701000D01*
X132439069Y-78653693D01*
X132663097Y-78560898D01*
X132864717Y-78426180D01*
X133036180Y-78254717D01*
X133170898Y-78053097D01*
X133263693Y-77829069D01*
X133311000Y-77591243D01*
X133311000Y-77348757D01*
X133389000Y-77348757D01*
X133389000Y-77591243D01*
X133436307Y-77829069D01*
X133529102Y-78053097D01*
X133663820Y-78254717D01*
X133835283Y-78426180D01*
X134036903Y-78560898D01*
X134260931Y-78653693D01*
X134498757Y-78701000D01*
X134741243Y-78701000D01*
X134979069Y-78653693D01*
X135203097Y-78560898D01*
X135404717Y-78426180D01*
X135576180Y-78254717D01*
X135710898Y-78053097D01*
X135803693Y-77829069D01*
X135851000Y-77591243D01*
X135851000Y-77348757D01*
X135803693Y-77110931D01*
X135710898Y-76886903D01*
X135576180Y-76685283D01*
X135404717Y-76513820D01*
X135203097Y-76379102D01*
X134979069Y-76286307D01*
X134741243Y-76239000D01*
X134498757Y-76239000D01*
X134260931Y-76286307D01*
X134036903Y-76379102D01*
X133835283Y-76513820D01*
X133663820Y-76685283D01*
X133529102Y-76886903D01*
X133436307Y-77110931D01*
X133389000Y-77348757D01*
X133311000Y-77348757D01*
X133263693Y-77110931D01*
X133170898Y-76886903D01*
X133036180Y-76685283D01*
X132864717Y-76513820D01*
X132663097Y-76379102D01*
X132439069Y-76286307D01*
X132201243Y-76239000D01*
X131958757Y-76239000D01*
X131720931Y-76286307D01*
X131496903Y-76379102D01*
X131295283Y-76513820D01*
X131123820Y-76685283D01*
X130989102Y-76886903D01*
X130896307Y-77110931D01*
X130849000Y-77348757D01*
X126873000Y-77348757D01*
X126873000Y-74808757D01*
X130849000Y-74808757D01*
X130849000Y-75051243D01*
X130896307Y-75289069D01*
X130989102Y-75513097D01*
X131123820Y-75714717D01*
X131295283Y-75886180D01*
X131496903Y-76020898D01*
X131720931Y-76113693D01*
X131958757Y-76161000D01*
X132201243Y-76161000D01*
X132439069Y-76113693D01*
X132663097Y-76020898D01*
X132864717Y-75886180D01*
X133036180Y-75714717D01*
X133170898Y-75513097D01*
X133263693Y-75289069D01*
X133311000Y-75051243D01*
X133311000Y-74808757D01*
X133389000Y-74808757D01*
X133389000Y-75051243D01*
X133436307Y-75289069D01*
X133529102Y-75513097D01*
X133663820Y-75714717D01*
X133835283Y-75886180D01*
X134036903Y-76020898D01*
X134260931Y-76113693D01*
X134498757Y-76161000D01*
X134741243Y-76161000D01*
X134979069Y-76113693D01*
X135203097Y-76020898D01*
X135404717Y-75886180D01*
X135576180Y-75714717D01*
X135710898Y-75513097D01*
X135803693Y-75289069D01*
X135851000Y-75051243D01*
X135851000Y-74808757D01*
X135803693Y-74570931D01*
X135713214Y-74352492D01*
X172600188Y-74352492D01*
X172641035Y-74622238D01*
X172733723Y-74878832D01*
X172794140Y-74991863D01*
X173033007Y-75057388D01*
X173810395Y-74280000D01*
X174169605Y-74280000D01*
X174946993Y-75057388D01*
X175185860Y-74991863D01*
X175301760Y-74744884D01*
X175303214Y-74739004D01*
X175353723Y-74878832D01*
X175414140Y-74991863D01*
X175653007Y-75057388D01*
X176430395Y-74280000D01*
X176789605Y-74280000D01*
X177566993Y-75057388D01*
X177805860Y-74991863D01*
X177921760Y-74744884D01*
X177987250Y-74480040D01*
X177999812Y-74207508D01*
X177958965Y-73937762D01*
X177866277Y-73681168D01*
X177805860Y-73568137D01*
X177566993Y-73502612D01*
X176789605Y-74280000D01*
X176430395Y-74280000D01*
X175653007Y-73502612D01*
X175414140Y-73568137D01*
X175298240Y-73815116D01*
X175296786Y-73820996D01*
X175246277Y-73681168D01*
X175185860Y-73568137D01*
X174946993Y-73502612D01*
X174169605Y-74280000D01*
X173810395Y-74280000D01*
X173033007Y-73502612D01*
X172794140Y-73568137D01*
X172678240Y-73815116D01*
X172612750Y-74079960D01*
X172600188Y-74352492D01*
X135713214Y-74352492D01*
X135710898Y-74346903D01*
X135576180Y-74145283D01*
X135404717Y-73973820D01*
X135203097Y-73839102D01*
X134979069Y-73746307D01*
X134741243Y-73699000D01*
X134498757Y-73699000D01*
X134260931Y-73746307D01*
X134036903Y-73839102D01*
X133835283Y-73973820D01*
X133663820Y-74145283D01*
X133529102Y-74346903D01*
X133436307Y-74570931D01*
X133389000Y-74808757D01*
X133311000Y-74808757D01*
X133263693Y-74570931D01*
X133170898Y-74346903D01*
X133036180Y-74145283D01*
X132864717Y-73973820D01*
X132663097Y-73839102D01*
X132439069Y-73746307D01*
X132201243Y-73699000D01*
X131958757Y-73699000D01*
X131720931Y-73746307D01*
X131496903Y-73839102D01*
X131295283Y-73973820D01*
X131123820Y-74145283D01*
X130989102Y-74346903D01*
X130896307Y-74570931D01*
X130849000Y-74808757D01*
X126873000Y-74808757D01*
X126873000Y-72268757D01*
X130849000Y-72268757D01*
X130849000Y-72511243D01*
X130896307Y-72749069D01*
X130989102Y-72973097D01*
X131123820Y-73174717D01*
X131295283Y-73346180D01*
X131496903Y-73480898D01*
X131720931Y-73573693D01*
X131958757Y-73621000D01*
X132201243Y-73621000D01*
X132439069Y-73573693D01*
X132663097Y-73480898D01*
X132864717Y-73346180D01*
X133036180Y-73174717D01*
X133170898Y-72973097D01*
X133263693Y-72749069D01*
X133311000Y-72511243D01*
X133311000Y-72268757D01*
X133389000Y-72268757D01*
X133389000Y-72511243D01*
X133436307Y-72749069D01*
X133529102Y-72973097D01*
X133663820Y-73174717D01*
X133835283Y-73346180D01*
X134036903Y-73480898D01*
X134260931Y-73573693D01*
X134498757Y-73621000D01*
X134741243Y-73621000D01*
X134979069Y-73573693D01*
X135203097Y-73480898D01*
X135404717Y-73346180D01*
X135576180Y-73174717D01*
X135710898Y-72973097D01*
X135803693Y-72749069D01*
X135851000Y-72511243D01*
X135851000Y-72268757D01*
X135803693Y-72030931D01*
X135710898Y-71806903D01*
X135576180Y-71605283D01*
X135404717Y-71433820D01*
X135203097Y-71299102D01*
X134979069Y-71206307D01*
X134741243Y-71159000D01*
X134498757Y-71159000D01*
X134260931Y-71206307D01*
X134036903Y-71299102D01*
X133835283Y-71433820D01*
X133663820Y-71605283D01*
X133529102Y-71806903D01*
X133436307Y-72030931D01*
X133389000Y-72268757D01*
X133311000Y-72268757D01*
X133263693Y-72030931D01*
X133170898Y-71806903D01*
X133036180Y-71605283D01*
X132864717Y-71433820D01*
X132663097Y-71299102D01*
X132439069Y-71206307D01*
X132201243Y-71159000D01*
X131958757Y-71159000D01*
X131720931Y-71206307D01*
X131496903Y-71299102D01*
X131295283Y-71433820D01*
X131123820Y-71605283D01*
X130989102Y-71806903D01*
X130896307Y-72030931D01*
X130849000Y-72268757D01*
X126873000Y-72268757D01*
X126873000Y-71024738D01*
X171759000Y-71024738D01*
X171759000Y-71395262D01*
X171831286Y-71758667D01*
X171973080Y-72100987D01*
X172178932Y-72409067D01*
X172440933Y-72671068D01*
X172749013Y-72876920D01*
X173091333Y-73018714D01*
X173316680Y-73063538D01*
X173278137Y-73084140D01*
X173212612Y-73323007D01*
X173990000Y-74100395D01*
X174767388Y-73323007D01*
X175832612Y-73323007D01*
X176610000Y-74100395D01*
X177387388Y-73323007D01*
X177321863Y-73084140D01*
X177074884Y-72968240D01*
X176810040Y-72902750D01*
X176537508Y-72890188D01*
X176267762Y-72931035D01*
X176011168Y-73023723D01*
X175898137Y-73084140D01*
X175832612Y-73323007D01*
X174767388Y-73323007D01*
X174701863Y-73084140D01*
X174454884Y-72968240D01*
X174364487Y-72945887D01*
X174530987Y-72876920D01*
X174839067Y-72671068D01*
X175101068Y-72409067D01*
X175306920Y-72100987D01*
X175448714Y-71758667D01*
X175521000Y-71395262D01*
X175521000Y-71024738D01*
X177439000Y-71024738D01*
X177439000Y-71395262D01*
X177511286Y-71758667D01*
X177653080Y-72100987D01*
X177858932Y-72409067D01*
X178120933Y-72671068D01*
X178429013Y-72876920D01*
X178771333Y-73018714D01*
X179134738Y-73091000D01*
X179505262Y-73091000D01*
X179868667Y-73018714D01*
X180210987Y-72876920D01*
X180519067Y-72671068D01*
X180781068Y-72409067D01*
X180986920Y-72100987D01*
X181128714Y-71758667D01*
X181201000Y-71395262D01*
X181201000Y-71024738D01*
X181128714Y-70661333D01*
X180986920Y-70319013D01*
X180781068Y-70010933D01*
X180519067Y-69748932D01*
X180210987Y-69543080D01*
X179868667Y-69401286D01*
X179505262Y-69329000D01*
X179134738Y-69329000D01*
X178771333Y-69401286D01*
X178429013Y-69543080D01*
X178120933Y-69748932D01*
X177858932Y-70010933D01*
X177653080Y-70319013D01*
X177511286Y-70661333D01*
X177439000Y-71024738D01*
X175521000Y-71024738D01*
X175448714Y-70661333D01*
X175306920Y-70319013D01*
X175101068Y-70010933D01*
X174839067Y-69748932D01*
X174530987Y-69543080D01*
X174188667Y-69401286D01*
X173825262Y-69329000D01*
X173454738Y-69329000D01*
X173091333Y-69401286D01*
X172749013Y-69543080D01*
X172440933Y-69748932D01*
X172178932Y-70010933D01*
X171973080Y-70319013D01*
X171831286Y-70661333D01*
X171759000Y-71024738D01*
X126873000Y-71024738D01*
X126873000Y-66421000D01*
X183007000Y-66421000D01*
X183007000Y-127127000D01*
G37*
%TD.AperFunction*%
D21*
X176803748Y-112365858D02*
X176789605Y-112380000D01*
X176803748Y-112394143D01*
X176624143Y-112573748D01*
X176610000Y-112559605D01*
X176595858Y-112573748D01*
X176416253Y-112394143D01*
X176430395Y-112380000D01*
X176416253Y-112365858D01*
X176595858Y-112186253D01*
X176610000Y-112200395D01*
X176624143Y-112186253D01*
X176803748Y-112365858D01*
%TA.AperFunction,Conductor*%
D22*
G36*
X176803748Y-112365858D02*
G01*
X176789605Y-112380000D01*
X176803748Y-112394143D01*
X176624143Y-112573748D01*
X176610000Y-112559605D01*
X176595858Y-112573748D01*
X176416253Y-112394143D01*
X176430395Y-112380000D01*
X176416253Y-112365858D01*
X176595858Y-112186253D01*
X176610000Y-112200395D01*
X176624143Y-112186253D01*
X176803748Y-112365858D01*
G37*
%TD.AperFunction*%
D21*
X172859000Y-78668606D02*
X172859000Y-78891394D01*
X172902464Y-79109900D01*
X172913950Y-79137629D01*
X170092430Y-81959150D01*
X170073053Y-81975052D01*
X170057151Y-81994429D01*
X170057150Y-81994430D01*
X170009571Y-82052405D01*
X169962400Y-82140657D01*
X169947150Y-82190931D01*
X169933352Y-82236416D01*
X169923543Y-82336000D01*
X169926001Y-82360954D01*
X169926000Y-89600369D01*
X169842116Y-89684253D01*
X169758724Y-89809058D01*
X169701283Y-89947733D01*
X169672000Y-90094950D01*
X169672000Y-90245050D01*
X169701283Y-90392267D01*
X169758724Y-90530942D01*
X169842116Y-90655747D01*
X169948253Y-90761884D01*
X170073058Y-90845276D01*
X170211733Y-90902717D01*
X170358950Y-90932000D01*
X170509050Y-90932000D01*
X170656267Y-90902717D01*
X170794942Y-90845276D01*
X170919747Y-90761884D01*
X171025884Y-90655747D01*
X171109276Y-90530942D01*
X171166717Y-90392267D01*
X171196000Y-90245050D01*
X171196000Y-90094950D01*
X171191980Y-90074738D01*
X171759000Y-90074738D01*
X171759000Y-90445262D01*
X171831286Y-90808667D01*
X171973080Y-91150987D01*
X172178932Y-91459067D01*
X172440933Y-91721068D01*
X172749013Y-91926920D01*
X173091333Y-92068714D01*
X173316680Y-92113538D01*
X173278137Y-92134140D01*
X173212612Y-92373007D01*
X173990000Y-93150395D01*
X174767388Y-92373007D01*
X174701863Y-92134140D01*
X174454884Y-92018240D01*
X174364487Y-91995887D01*
X174530987Y-91926920D01*
X174839067Y-91721068D01*
X175101068Y-91459067D01*
X175306920Y-91150987D01*
X175448714Y-90808667D01*
X175521000Y-90445262D01*
X175521000Y-90074738D01*
X175448714Y-89711333D01*
X175306920Y-89369013D01*
X175101068Y-89060933D01*
X174839067Y-88798932D01*
X174530987Y-88593080D01*
X174188667Y-88451286D01*
X173825262Y-88379000D01*
X173454738Y-88379000D01*
X173091333Y-88451286D01*
X172749013Y-88593080D01*
X172440933Y-88798932D01*
X172178932Y-89060933D01*
X171973080Y-89369013D01*
X171831286Y-89711333D01*
X171759000Y-90074738D01*
X171191980Y-90074738D01*
X171166717Y-89947733D01*
X171109276Y-89809058D01*
X171025884Y-89684253D01*
X170942000Y-89600369D01*
X170942000Y-84164738D01*
X171759000Y-84164738D01*
X171759000Y-84535262D01*
X171831286Y-84898667D01*
X171973080Y-85240987D01*
X172178932Y-85549067D01*
X172440933Y-85811068D01*
X172749013Y-86016920D01*
X173091333Y-86158714D01*
X173454738Y-86231000D01*
X173825262Y-86231000D01*
X174188667Y-86158714D01*
X174530987Y-86016920D01*
X174839067Y-85811068D01*
X175101068Y-85549067D01*
X175306920Y-85240987D01*
X175448714Y-84898667D01*
X175521000Y-84535262D01*
X175521000Y-84164738D01*
X175448714Y-83801333D01*
X175306920Y-83459013D01*
X175101068Y-83150933D01*
X174839067Y-82888932D01*
X174530987Y-82683080D01*
X174188667Y-82541286D01*
X173825262Y-82469000D01*
X173454738Y-82469000D01*
X173091333Y-82541286D01*
X172749013Y-82683080D01*
X172440933Y-82888932D01*
X172178932Y-83150933D01*
X171973080Y-83459013D01*
X171831286Y-83801333D01*
X171759000Y-84164738D01*
X170942000Y-84164738D01*
X170942000Y-82546420D01*
X172857157Y-80631264D01*
X172857157Y-82030000D01*
X172864513Y-82104689D01*
X172886299Y-82176508D01*
X172921678Y-82242696D01*
X172969289Y-82300711D01*
X173027304Y-82348322D01*
X173093492Y-82383701D01*
X173165311Y-82405487D01*
X173240000Y-82412843D01*
X174740000Y-82412843D01*
X174814689Y-82405487D01*
X174886508Y-82383701D01*
X174952696Y-82348322D01*
X175010711Y-82300711D01*
X175058322Y-82242696D01*
X175093701Y-82176508D01*
X175115487Y-82104689D01*
X175122843Y-82030000D01*
X175122843Y-81788000D01*
X175596235Y-81788000D01*
X175607721Y-81815729D01*
X175731495Y-82000970D01*
X175889030Y-82158505D01*
X176074271Y-82282279D01*
X176280100Y-82367536D01*
X176498606Y-82411000D01*
X176721394Y-82411000D01*
X176939900Y-82367536D01*
X176967629Y-82356050D01*
X176996782Y-82385203D01*
X176996781Y-91998927D01*
X176810040Y-91952750D01*
X176537508Y-91940188D01*
X176267762Y-91981035D01*
X176011168Y-92073723D01*
X175898137Y-92134140D01*
X175832612Y-92373007D01*
X176610000Y-93150395D01*
X176624143Y-93136253D01*
X176803748Y-93315858D01*
X176789605Y-93330000D01*
X176803748Y-93344143D01*
X176624143Y-93523748D01*
X176610000Y-93509605D01*
X175832612Y-94286993D01*
X175898137Y-94525860D01*
X176145116Y-94641760D01*
X176409960Y-94707250D01*
X176448257Y-94709015D01*
X176280100Y-94742464D01*
X176074271Y-94827721D01*
X175889030Y-94951495D01*
X175731495Y-95109030D01*
X175607721Y-95294271D01*
X175596235Y-95322000D01*
X175003765Y-95322000D01*
X174992279Y-95294271D01*
X174868505Y-95109030D01*
X174710970Y-94951495D01*
X174525729Y-94827721D01*
X174319900Y-94742464D01*
X174143984Y-94707472D01*
X174332238Y-94678965D01*
X174588832Y-94586277D01*
X174701863Y-94525860D01*
X174767388Y-94286993D01*
X173990000Y-93509605D01*
X173212612Y-94286993D01*
X173278137Y-94525860D01*
X173525116Y-94641760D01*
X173789960Y-94707250D01*
X173828257Y-94709015D01*
X173660100Y-94742464D01*
X173454271Y-94827721D01*
X173269030Y-94951495D01*
X173111495Y-95109030D01*
X173084240Y-95149820D01*
X171336912Y-93402492D01*
X172600188Y-93402492D01*
X172641035Y-93672238D01*
X172733723Y-93928832D01*
X172794140Y-94041863D01*
X173033007Y-94107388D01*
X173810395Y-93330000D01*
X174169605Y-93330000D01*
X174946993Y-94107388D01*
X175185860Y-94041863D01*
X175301760Y-93794884D01*
X175303214Y-93789004D01*
X175353723Y-93928832D01*
X175414140Y-94041863D01*
X175653007Y-94107388D01*
X176430395Y-93330000D01*
X175653007Y-92552612D01*
X175414140Y-92618137D01*
X175298240Y-92865116D01*
X175296786Y-92870996D01*
X175246277Y-92731168D01*
X175185860Y-92618137D01*
X174946993Y-92552612D01*
X174169605Y-93330000D01*
X173810395Y-93330000D01*
X173033007Y-92552612D01*
X172794140Y-92618137D01*
X172678240Y-92865116D01*
X172612750Y-93129960D01*
X172600188Y-93402492D01*
X171336912Y-93402492D01*
X169164000Y-91229580D01*
X169164000Y-82324420D01*
X172868730Y-78619691D01*
X172859000Y-78668606D01*
%TA.AperFunction,Conductor*%
D22*
G36*
X172859000Y-78668606D02*
G01*
X172859000Y-78891394D01*
X172902464Y-79109900D01*
X172913950Y-79137629D01*
X170092430Y-81959150D01*
X170073053Y-81975052D01*
X170057151Y-81994429D01*
X170057150Y-81994430D01*
X170009571Y-82052405D01*
X169962400Y-82140657D01*
X169947150Y-82190931D01*
X169933352Y-82236416D01*
X169923543Y-82336000D01*
X169926001Y-82360954D01*
X169926000Y-89600369D01*
X169842116Y-89684253D01*
X169758724Y-89809058D01*
X169701283Y-89947733D01*
X169672000Y-90094950D01*
X169672000Y-90245050D01*
X169701283Y-90392267D01*
X169758724Y-90530942D01*
X169842116Y-90655747D01*
X169948253Y-90761884D01*
X170073058Y-90845276D01*
X170211733Y-90902717D01*
X170358950Y-90932000D01*
X170509050Y-90932000D01*
X170656267Y-90902717D01*
X170794942Y-90845276D01*
X170919747Y-90761884D01*
X171025884Y-90655747D01*
X171109276Y-90530942D01*
X171166717Y-90392267D01*
X171196000Y-90245050D01*
X171196000Y-90094950D01*
X171191980Y-90074738D01*
X171759000Y-90074738D01*
X171759000Y-90445262D01*
X171831286Y-90808667D01*
X171973080Y-91150987D01*
X172178932Y-91459067D01*
X172440933Y-91721068D01*
X172749013Y-91926920D01*
X173091333Y-92068714D01*
X173316680Y-92113538D01*
X173278137Y-92134140D01*
X173212612Y-92373007D01*
X173990000Y-93150395D01*
X174767388Y-92373007D01*
X174701863Y-92134140D01*
X174454884Y-92018240D01*
X174364487Y-91995887D01*
X174530987Y-91926920D01*
X174839067Y-91721068D01*
X175101068Y-91459067D01*
X175306920Y-91150987D01*
X175448714Y-90808667D01*
X175521000Y-90445262D01*
X175521000Y-90074738D01*
X175448714Y-89711333D01*
X175306920Y-89369013D01*
X175101068Y-89060933D01*
X174839067Y-88798932D01*
X174530987Y-88593080D01*
X174188667Y-88451286D01*
X173825262Y-88379000D01*
X173454738Y-88379000D01*
X173091333Y-88451286D01*
X172749013Y-88593080D01*
X172440933Y-88798932D01*
X172178932Y-89060933D01*
X171973080Y-89369013D01*
X171831286Y-89711333D01*
X171759000Y-90074738D01*
X171191980Y-90074738D01*
X171166717Y-89947733D01*
X171109276Y-89809058D01*
X171025884Y-89684253D01*
X170942000Y-89600369D01*
X170942000Y-84164738D01*
X171759000Y-84164738D01*
X171759000Y-84535262D01*
X171831286Y-84898667D01*
X171973080Y-85240987D01*
X172178932Y-85549067D01*
X172440933Y-85811068D01*
X172749013Y-86016920D01*
X173091333Y-86158714D01*
X173454738Y-86231000D01*
X173825262Y-86231000D01*
X174188667Y-86158714D01*
X174530987Y-86016920D01*
X174839067Y-85811068D01*
X175101068Y-85549067D01*
X175306920Y-85240987D01*
X175448714Y-84898667D01*
X175521000Y-84535262D01*
X175521000Y-84164738D01*
X175448714Y-83801333D01*
X175306920Y-83459013D01*
X175101068Y-83150933D01*
X174839067Y-82888932D01*
X174530987Y-82683080D01*
X174188667Y-82541286D01*
X173825262Y-82469000D01*
X173454738Y-82469000D01*
X173091333Y-82541286D01*
X172749013Y-82683080D01*
X172440933Y-82888932D01*
X172178932Y-83150933D01*
X171973080Y-83459013D01*
X171831286Y-83801333D01*
X171759000Y-84164738D01*
X170942000Y-84164738D01*
X170942000Y-82546420D01*
X172857157Y-80631264D01*
X172857157Y-82030000D01*
X172864513Y-82104689D01*
X172886299Y-82176508D01*
X172921678Y-82242696D01*
X172969289Y-82300711D01*
X173027304Y-82348322D01*
X173093492Y-82383701D01*
X173165311Y-82405487D01*
X173240000Y-82412843D01*
X174740000Y-82412843D01*
X174814689Y-82405487D01*
X174886508Y-82383701D01*
X174952696Y-82348322D01*
X175010711Y-82300711D01*
X175058322Y-82242696D01*
X175093701Y-82176508D01*
X175115487Y-82104689D01*
X175122843Y-82030000D01*
X175122843Y-81788000D01*
X175596235Y-81788000D01*
X175607721Y-81815729D01*
X175731495Y-82000970D01*
X175889030Y-82158505D01*
X176074271Y-82282279D01*
X176280100Y-82367536D01*
X176498606Y-82411000D01*
X176721394Y-82411000D01*
X176939900Y-82367536D01*
X176967629Y-82356050D01*
X176996782Y-82385203D01*
X176996781Y-91998927D01*
X176810040Y-91952750D01*
X176537508Y-91940188D01*
X176267762Y-91981035D01*
X176011168Y-92073723D01*
X175898137Y-92134140D01*
X175832612Y-92373007D01*
X176610000Y-93150395D01*
X176624143Y-93136253D01*
X176803748Y-93315858D01*
X176789605Y-93330000D01*
X176803748Y-93344143D01*
X176624143Y-93523748D01*
X176610000Y-93509605D01*
X175832612Y-94286993D01*
X175898137Y-94525860D01*
X176145116Y-94641760D01*
X176409960Y-94707250D01*
X176448257Y-94709015D01*
X176280100Y-94742464D01*
X176074271Y-94827721D01*
X175889030Y-94951495D01*
X175731495Y-95109030D01*
X175607721Y-95294271D01*
X175596235Y-95322000D01*
X175003765Y-95322000D01*
X174992279Y-95294271D01*
X174868505Y-95109030D01*
X174710970Y-94951495D01*
X174525729Y-94827721D01*
X174319900Y-94742464D01*
X174143984Y-94707472D01*
X174332238Y-94678965D01*
X174588832Y-94586277D01*
X174701863Y-94525860D01*
X174767388Y-94286993D01*
X173990000Y-93509605D01*
X173212612Y-94286993D01*
X173278137Y-94525860D01*
X173525116Y-94641760D01*
X173789960Y-94707250D01*
X173828257Y-94709015D01*
X173660100Y-94742464D01*
X173454271Y-94827721D01*
X173269030Y-94951495D01*
X173111495Y-95109030D01*
X173084240Y-95149820D01*
X171336912Y-93402492D01*
X172600188Y-93402492D01*
X172641035Y-93672238D01*
X172733723Y-93928832D01*
X172794140Y-94041863D01*
X173033007Y-94107388D01*
X173810395Y-93330000D01*
X174169605Y-93330000D01*
X174946993Y-94107388D01*
X175185860Y-94041863D01*
X175301760Y-93794884D01*
X175303214Y-93789004D01*
X175353723Y-93928832D01*
X175414140Y-94041863D01*
X175653007Y-94107388D01*
X176430395Y-93330000D01*
X175653007Y-92552612D01*
X175414140Y-92618137D01*
X175298240Y-92865116D01*
X175296786Y-92870996D01*
X175246277Y-92731168D01*
X175185860Y-92618137D01*
X174946993Y-92552612D01*
X174169605Y-93330000D01*
X173810395Y-93330000D01*
X173033007Y-92552612D01*
X172794140Y-92618137D01*
X172678240Y-92865116D01*
X172612750Y-93129960D01*
X172600188Y-93402492D01*
X171336912Y-93402492D01*
X169164000Y-91229580D01*
X169164000Y-82324420D01*
X172868730Y-78619691D01*
X172859000Y-78668606D01*
G37*
%TD.AperFunction*%
%TD*%
M02*
