M48
; DRILL file {KiCad 5.1.9} date Thu Nov 11 19:59:50 2021
; FORMAT={-:-/ absolute / inch / decimal}
; #@! TF.CreationDate,2021-11-11T19:59:50-07:00
; #@! TF.GenerationSoftware,Kicad,Pcbnew,5.1.9
; #@! TF.FileFunction,Plated,1,2,PTH
FMAT,2
INCH
T1C0.0150
T2C0.0315
T3C0.0362
T4C0.0394
T5C0.0906
T6C0.1063
%
G90
G05
T1
X6.2903Y-4.2097
X6.36Y-3.66
X6.4Y-3.75
X6.5Y-3.8
X6.57Y-3.99
X6.71Y-3.55
T2
X6.25Y-4.75
X6.3287Y-4.75
X6.4075Y-4.75
X6.4862Y-4.75
T3
X6.85Y-2.9244
X6.85Y-3.0228
X6.85Y-3.1016
X6.85Y-3.2
X6.85Y-3.6744
X6.85Y-3.7728
X6.85Y-3.8516
X6.85Y-3.95
X6.85Y-4.4244
X6.85Y-4.5228
X6.85Y-4.6016
X6.85Y-4.7
X6.9531Y-2.9244
X6.9531Y-3.0228
X6.9531Y-3.1016
X6.9531Y-3.2
X6.9531Y-3.6744
X6.9531Y-3.7728
X6.9531Y-3.8516
X6.9531Y-3.95
X6.9531Y-4.4244
X6.9531Y-4.5228
X6.9531Y-4.6016
X6.9531Y-4.7
T4
X5.2Y-2.85
X5.2Y-2.95
X5.2Y-3.05
X5.2Y-3.15
X5.2Y-3.25
X5.2Y-3.35
X5.2Y-3.45
X5.2Y-3.55
X5.2Y-3.65
X5.2Y-3.75
X5.2Y-3.85
X5.2Y-3.95
X5.2Y-4.05
X5.2Y-4.15
X5.2Y-4.25
X5.2Y-4.35
X5.2Y-4.45
X5.2Y-4.55
X5.2Y-4.65
X5.2Y-4.75
X5.3Y-2.85
X5.3Y-2.95
X5.3Y-3.05
X5.3Y-3.15
X5.3Y-3.25
X5.3Y-3.35
X5.3Y-3.45
X5.3Y-3.55
X5.3Y-3.65
X5.3Y-3.75
X5.3Y-3.85
X5.3Y-3.95
X5.3Y-4.05
X5.3Y-4.15
X5.3Y-4.25
X5.3Y-4.35
X5.3Y-4.45
X5.3Y-4.55
X5.3Y-4.65
X5.3Y-4.75
T5
X6.8362Y-2.8035
X6.8362Y-3.3209
X6.8362Y-3.5535
X6.8362Y-4.0709
X6.8362Y-4.3035
X6.8362Y-4.8209
X7.0598Y-2.8035
X7.0598Y-3.3209
X7.0598Y-3.5535
X7.0598Y-4.0709
X7.0598Y-4.3035
X7.0598Y-4.8209
T6
X5.6646Y-4.6
X5.6646Y-4.7969
X5.95Y-4.6
X5.95Y-4.7969
T0
M30
