%TF.GenerationSoftware,KiCad,Pcbnew,5.1.9*%
%TF.CreationDate,2021-11-11T19:59:09-07:00*%
%TF.ProjectId,pirate-board,70697261-7465-42d6-926f-6172642e6b69,v1.1*%
%TF.SameCoordinates,Original*%
%TF.FileFunction,Soldermask,Bot*%
%TF.FilePolarity,Negative*%
%FSLAX46Y46*%
G04 Gerber Fmt 4.6, Leading zero omitted, Abs format (unit mm)*
G04 Created by KiCad (PCBNEW 5.1.9) date 2021-11-11 19:59:09*
%MOMM*%
%LPD*%
G01*
G04 APERTURE LIST*
%ADD10C,1.601600*%
%ADD11C,3.101600*%
%ADD12C,3.901600*%
%ADD13C,4.101600*%
%ADD14O,1.451600X1.451600*%
%ADD15O,1.801600X1.801600*%
G04 APERTURE END LIST*
D10*
%TO.C,J6*%
X176610000Y-74280000D03*
X176610000Y-76780000D03*
X176610000Y-78780000D03*
X176610000Y-81280000D03*
D11*
X179320000Y-71210000D03*
X179320000Y-84350000D03*
D10*
X173990000Y-74280000D03*
X173990000Y-76780000D03*
X173990000Y-78780000D03*
G36*
G01*
X174740000Y-82080800D02*
X173240000Y-82080800D01*
G75*
G02*
X173189200Y-82030000I0J50800D01*
G01*
X173189200Y-80530000D01*
G75*
G02*
X173240000Y-80479200I50800J0D01*
G01*
X174740000Y-80479200D01*
G75*
G02*
X174790800Y-80530000I0J-50800D01*
G01*
X174790800Y-82030000D01*
G75*
G02*
X174740000Y-82080800I-50800J0D01*
G01*
G37*
D11*
X173640000Y-84350000D03*
X173640000Y-71210000D03*
%TD*%
D12*
%TO.C,J3*%
X143880000Y-121840000D03*
G36*
G01*
X141980000Y-114889200D02*
X145780000Y-114889200D01*
G75*
G02*
X145830800Y-114940000I0J-50800D01*
G01*
X145830800Y-118740000D01*
G75*
G02*
X145780000Y-118790800I-50800J0D01*
G01*
X141980000Y-118790800D01*
G75*
G02*
X141929200Y-118740000I0J50800D01*
G01*
X141929200Y-114940000D01*
G75*
G02*
X141980000Y-114889200I50800J0D01*
G01*
G37*
%TD*%
D13*
%TO.C,J2*%
X151130000Y-121840000D03*
G36*
G01*
X149230000Y-114889200D02*
X153030000Y-114889200D01*
G75*
G02*
X153080800Y-114940000I0J-50800D01*
G01*
X153080800Y-118740000D01*
G75*
G02*
X153030000Y-118790800I-50800J0D01*
G01*
X149230000Y-118790800D01*
G75*
G02*
X149179200Y-118740000I0J50800D01*
G01*
X149179200Y-114940000D01*
G75*
G02*
X149230000Y-114889200I50800J0D01*
G01*
G37*
%TD*%
D10*
%TO.C,J1*%
X176610000Y-93330000D03*
X176610000Y-95830000D03*
X176610000Y-97830000D03*
X176610000Y-100330000D03*
D11*
X179320000Y-90260000D03*
X179320000Y-103400000D03*
D10*
X173990000Y-93330000D03*
X173990000Y-95830000D03*
X173990000Y-97830000D03*
G36*
G01*
X174740000Y-101130800D02*
X173240000Y-101130800D01*
G75*
G02*
X173189200Y-101080000I0J50800D01*
G01*
X173189200Y-99580000D01*
G75*
G02*
X173240000Y-99529200I50800J0D01*
G01*
X174740000Y-99529200D01*
G75*
G02*
X174790800Y-99580000I0J-50800D01*
G01*
X174790800Y-101080000D01*
G75*
G02*
X174740000Y-101130800I-50800J0D01*
G01*
G37*
D11*
X173640000Y-103400000D03*
X173640000Y-90260000D03*
%TD*%
%TO.C,J4*%
X173640000Y-109310000D03*
X173640000Y-122450000D03*
G36*
G01*
X174740000Y-120180800D02*
X173240000Y-120180800D01*
G75*
G02*
X173189200Y-120130000I0J50800D01*
G01*
X173189200Y-118630000D01*
G75*
G02*
X173240000Y-118579200I50800J0D01*
G01*
X174740000Y-118579200D01*
G75*
G02*
X174790800Y-118630000I0J-50800D01*
G01*
X174790800Y-120130000D01*
G75*
G02*
X174740000Y-120180800I-50800J0D01*
G01*
G37*
D10*
X173990000Y-116880000D03*
X173990000Y-114880000D03*
X173990000Y-112380000D03*
D11*
X179320000Y-122450000D03*
X179320000Y-109310000D03*
D10*
X176610000Y-119380000D03*
X176610000Y-116880000D03*
X176610000Y-114880000D03*
X176610000Y-112380000D03*
%TD*%
%TO.C,J5*%
G36*
G01*
X159425000Y-121375800D02*
X158075000Y-121375800D01*
G75*
G02*
X158024200Y-121325000I0J50800D01*
G01*
X158024200Y-119975000D01*
G75*
G02*
X158075000Y-119924200I50800J0D01*
G01*
X159425000Y-119924200D01*
G75*
G02*
X159475800Y-119975000I0J-50800D01*
G01*
X159475800Y-121325000D01*
G75*
G02*
X159425000Y-121375800I-50800J0D01*
G01*
G37*
D14*
X160750000Y-120650000D03*
X162750000Y-120650000D03*
X164750000Y-120650000D03*
%TD*%
%TO.C,J7*%
G36*
G01*
X135520800Y-119800000D02*
X135520800Y-121500000D01*
G75*
G02*
X135470000Y-121550800I-50800J0D01*
G01*
X133770000Y-121550800D01*
G75*
G02*
X133719200Y-121500000I0J50800D01*
G01*
X133719200Y-119800000D01*
G75*
G02*
X133770000Y-119749200I50800J0D01*
G01*
X135470000Y-119749200D01*
G75*
G02*
X135520800Y-119800000I0J-50800D01*
G01*
G37*
D15*
X132080000Y-120650000D03*
X134620000Y-118110000D03*
X132080000Y-118110000D03*
X134620000Y-115570000D03*
X132080000Y-115570000D03*
X134620000Y-113030000D03*
X132080000Y-113030000D03*
X134620000Y-110490000D03*
X132080000Y-110490000D03*
X134620000Y-107950000D03*
X132080000Y-107950000D03*
X134620000Y-105410000D03*
X132080000Y-105410000D03*
X134620000Y-102870000D03*
X132080000Y-102870000D03*
X134620000Y-100330000D03*
X132080000Y-100330000D03*
X134620000Y-97790000D03*
X132080000Y-97790000D03*
X134620000Y-95250000D03*
X132080000Y-95250000D03*
X134620000Y-92710000D03*
X132080000Y-92710000D03*
X134620000Y-90170000D03*
X132080000Y-90170000D03*
X134620000Y-87630000D03*
X132080000Y-87630000D03*
X134620000Y-85090000D03*
X132080000Y-85090000D03*
X134620000Y-82550000D03*
X132080000Y-82550000D03*
X134620000Y-80010000D03*
X132080000Y-80010000D03*
X134620000Y-77470000D03*
X132080000Y-77470000D03*
X134620000Y-74930000D03*
X132080000Y-74930000D03*
X134620000Y-72390000D03*
X132080000Y-72390000D03*
%TD*%
M02*
