%TF.GenerationSoftware,KiCad,Pcbnew,5.1.9*%
%TF.CreationDate,2021-11-11T19:59:09-07:00*%
%TF.ProjectId,pirate-board,70697261-7465-42d6-926f-6172642e6b69,v1.1*%
%TF.SameCoordinates,Original*%
%TF.FileFunction,Soldermask,Top*%
%TF.FilePolarity,Negative*%
%FSLAX46Y46*%
G04 Gerber Fmt 4.6, Leading zero omitted, Abs format (unit mm)*
G04 Created by KiCad (PCBNEW 5.1.9) date 2021-11-11 19:59:09*
%MOMM*%
%LPD*%
G01*
G04 APERTURE LIST*
%ADD10C,1.601600*%
%ADD11C,3.101600*%
%ADD12C,3.901600*%
%ADD13C,4.101600*%
%ADD14O,1.451600X1.451600*%
%ADD15O,1.801600X1.801600*%
G04 APERTURE END LIST*
D10*
%TO.C,J6*%
X176610000Y-74280000D03*
X176610000Y-76780000D03*
X176610000Y-78780000D03*
X176610000Y-81280000D03*
D11*
X179320000Y-71210000D03*
X179320000Y-84350000D03*
D10*
X173990000Y-74280000D03*
X173990000Y-76780000D03*
X173990000Y-78780000D03*
G36*
G01*
X174740000Y-82080800D02*
X173240000Y-82080800D01*
G75*
G02*
X173189200Y-82030000I0J50800D01*
G01*
X173189200Y-80530000D01*
G75*
G02*
X173240000Y-80479200I50800J0D01*
G01*
X174740000Y-80479200D01*
G75*
G02*
X174790800Y-80530000I0J-50800D01*
G01*
X174790800Y-82030000D01*
G75*
G02*
X174740000Y-82080800I-50800J0D01*
G01*
G37*
D11*
X173640000Y-84350000D03*
X173640000Y-71210000D03*
%TD*%
%TO.C,R1*%
G36*
G01*
X160915800Y-108919600D02*
X160915800Y-109520400D01*
G75*
G02*
X160690400Y-109745800I-225400J0D01*
G01*
X160239600Y-109745800D01*
G75*
G02*
X160014200Y-109520400I0J225400D01*
G01*
X160014200Y-108919600D01*
G75*
G02*
X160239600Y-108694200I225400J0D01*
G01*
X160690400Y-108694200D01*
G75*
G02*
X160915800Y-108919600I0J-225400D01*
G01*
G37*
G36*
G01*
X162565800Y-108919600D02*
X162565800Y-109520400D01*
G75*
G02*
X162340400Y-109745800I-225400J0D01*
G01*
X161889600Y-109745800D01*
G75*
G02*
X161664200Y-109520400I0J225400D01*
G01*
X161664200Y-108919600D01*
G75*
G02*
X161889600Y-108694200I225400J0D01*
G01*
X162340400Y-108694200D01*
G75*
G02*
X162565800Y-108919600I0J-225400D01*
G01*
G37*
%TD*%
D12*
%TO.C,J3*%
X143880000Y-121840000D03*
G36*
G01*
X141980000Y-114889200D02*
X145780000Y-114889200D01*
G75*
G02*
X145830800Y-114940000I0J-50800D01*
G01*
X145830800Y-118740000D01*
G75*
G02*
X145780000Y-118790800I-50800J0D01*
G01*
X141980000Y-118790800D01*
G75*
G02*
X141929200Y-118740000I0J50800D01*
G01*
X141929200Y-114940000D01*
G75*
G02*
X141980000Y-114889200I50800J0D01*
G01*
G37*
%TD*%
D13*
%TO.C,J2*%
X151130000Y-121840000D03*
G36*
G01*
X149230000Y-114889200D02*
X153030000Y-114889200D01*
G75*
G02*
X153080800Y-114940000I0J-50800D01*
G01*
X153080800Y-118740000D01*
G75*
G02*
X153030000Y-118790800I-50800J0D01*
G01*
X149230000Y-118790800D01*
G75*
G02*
X149179200Y-118740000I0J50800D01*
G01*
X149179200Y-114940000D01*
G75*
G02*
X149230000Y-114889200I50800J0D01*
G01*
G37*
%TD*%
%TO.C,D1*%
G36*
G01*
X148290800Y-108938350D02*
X148290800Y-109501650D01*
G75*
G02*
X148046650Y-109745800I-244150J0D01*
G01*
X147558350Y-109745800D01*
G75*
G02*
X147314200Y-109501650I0J244150D01*
G01*
X147314200Y-108938350D01*
G75*
G02*
X147558350Y-108694200I244150J0D01*
G01*
X148046650Y-108694200D01*
G75*
G02*
X148290800Y-108938350I0J-244150D01*
G01*
G37*
G36*
G01*
X149865800Y-108938350D02*
X149865800Y-109501650D01*
G75*
G02*
X149621650Y-109745800I-244150J0D01*
G01*
X149133350Y-109745800D01*
G75*
G02*
X148889200Y-109501650I0J244150D01*
G01*
X148889200Y-108938350D01*
G75*
G02*
X149133350Y-108694200I244150J0D01*
G01*
X149621650Y-108694200D01*
G75*
G02*
X149865800Y-108938350I0J-244150D01*
G01*
G37*
%TD*%
%TO.C,D2*%
G36*
G01*
X151135800Y-77188350D02*
X151135800Y-77751650D01*
G75*
G02*
X150891650Y-77995800I-244150J0D01*
G01*
X150403350Y-77995800D01*
G75*
G02*
X150159200Y-77751650I0J244150D01*
G01*
X150159200Y-77188350D01*
G75*
G02*
X150403350Y-76944200I244150J0D01*
G01*
X150891650Y-76944200D01*
G75*
G02*
X151135800Y-77188350I0J-244150D01*
G01*
G37*
G36*
G01*
X149560800Y-77188350D02*
X149560800Y-77751650D01*
G75*
G02*
X149316650Y-77995800I-244150J0D01*
G01*
X148828350Y-77995800D01*
G75*
G02*
X148584200Y-77751650I0J244150D01*
G01*
X148584200Y-77188350D01*
G75*
G02*
X148828350Y-76944200I244150J0D01*
G01*
X149316650Y-76944200D01*
G75*
G02*
X149560800Y-77188350I0J-244150D01*
G01*
G37*
%TD*%
D10*
%TO.C,J1*%
X176610000Y-93330000D03*
X176610000Y-95830000D03*
X176610000Y-97830000D03*
X176610000Y-100330000D03*
D11*
X179320000Y-90260000D03*
X179320000Y-103400000D03*
D10*
X173990000Y-93330000D03*
X173990000Y-95830000D03*
X173990000Y-97830000D03*
G36*
G01*
X174740000Y-101130800D02*
X173240000Y-101130800D01*
G75*
G02*
X173189200Y-101080000I0J50800D01*
G01*
X173189200Y-99580000D01*
G75*
G02*
X173240000Y-99529200I50800J0D01*
G01*
X174740000Y-99529200D01*
G75*
G02*
X174790800Y-99580000I0J-50800D01*
G01*
X174790800Y-101080000D01*
G75*
G02*
X174740000Y-101130800I-50800J0D01*
G01*
G37*
D11*
X173640000Y-103400000D03*
X173640000Y-90260000D03*
%TD*%
%TO.C,J4*%
X173640000Y-109310000D03*
X173640000Y-122450000D03*
G36*
G01*
X174740000Y-120180800D02*
X173240000Y-120180800D01*
G75*
G02*
X173189200Y-120130000I0J50800D01*
G01*
X173189200Y-118630000D01*
G75*
G02*
X173240000Y-118579200I50800J0D01*
G01*
X174740000Y-118579200D01*
G75*
G02*
X174790800Y-118630000I0J-50800D01*
G01*
X174790800Y-120130000D01*
G75*
G02*
X174740000Y-120180800I-50800J0D01*
G01*
G37*
D10*
X173990000Y-116880000D03*
X173990000Y-114880000D03*
X173990000Y-112380000D03*
D11*
X179320000Y-122450000D03*
X179320000Y-109310000D03*
D10*
X176610000Y-119380000D03*
X176610000Y-116880000D03*
X176610000Y-114880000D03*
X176610000Y-112380000D03*
%TD*%
%TO.C,J5*%
G36*
G01*
X159425000Y-121375800D02*
X158075000Y-121375800D01*
G75*
G02*
X158024200Y-121325000I0J50800D01*
G01*
X158024200Y-119975000D01*
G75*
G02*
X158075000Y-119924200I50800J0D01*
G01*
X159425000Y-119924200D01*
G75*
G02*
X159475800Y-119975000I0J-50800D01*
G01*
X159475800Y-121325000D01*
G75*
G02*
X159425000Y-121375800I-50800J0D01*
G01*
G37*
D14*
X160750000Y-120650000D03*
X162750000Y-120650000D03*
X164750000Y-120650000D03*
%TD*%
%TO.C,J7*%
G36*
G01*
X135520800Y-119800000D02*
X135520800Y-121500000D01*
G75*
G02*
X135470000Y-121550800I-50800J0D01*
G01*
X133770000Y-121550800D01*
G75*
G02*
X133719200Y-121500000I0J50800D01*
G01*
X133719200Y-119800000D01*
G75*
G02*
X133770000Y-119749200I50800J0D01*
G01*
X135470000Y-119749200D01*
G75*
G02*
X135520800Y-119800000I0J-50800D01*
G01*
G37*
D15*
X132080000Y-120650000D03*
X134620000Y-118110000D03*
X132080000Y-118110000D03*
X134620000Y-115570000D03*
X132080000Y-115570000D03*
X134620000Y-113030000D03*
X132080000Y-113030000D03*
X134620000Y-110490000D03*
X132080000Y-110490000D03*
X134620000Y-107950000D03*
X132080000Y-107950000D03*
X134620000Y-105410000D03*
X132080000Y-105410000D03*
X134620000Y-102870000D03*
X132080000Y-102870000D03*
X134620000Y-100330000D03*
X132080000Y-100330000D03*
X134620000Y-97790000D03*
X132080000Y-97790000D03*
X134620000Y-95250000D03*
X132080000Y-95250000D03*
X134620000Y-92710000D03*
X132080000Y-92710000D03*
X134620000Y-90170000D03*
X132080000Y-90170000D03*
X134620000Y-87630000D03*
X132080000Y-87630000D03*
X134620000Y-85090000D03*
X132080000Y-85090000D03*
X134620000Y-82550000D03*
X132080000Y-82550000D03*
X134620000Y-80010000D03*
X132080000Y-80010000D03*
X134620000Y-77470000D03*
X132080000Y-77470000D03*
X134620000Y-74930000D03*
X132080000Y-74930000D03*
X134620000Y-72390000D03*
X132080000Y-72390000D03*
%TD*%
%TO.C,R2*%
G36*
G01*
X154120800Y-108919600D02*
X154120800Y-109520400D01*
G75*
G02*
X153895400Y-109745800I-225400J0D01*
G01*
X153444600Y-109745800D01*
G75*
G02*
X153219200Y-109520400I0J225400D01*
G01*
X153219200Y-108919600D01*
G75*
G02*
X153444600Y-108694200I225400J0D01*
G01*
X153895400Y-108694200D01*
G75*
G02*
X154120800Y-108919600I0J-225400D01*
G01*
G37*
G36*
G01*
X152470800Y-108919600D02*
X152470800Y-109520400D01*
G75*
G02*
X152245400Y-109745800I-225400J0D01*
G01*
X151794600Y-109745800D01*
G75*
G02*
X151569200Y-109520400I0J225400D01*
G01*
X151569200Y-108919600D01*
G75*
G02*
X151794600Y-108694200I225400J0D01*
G01*
X152245400Y-108694200D01*
G75*
G02*
X152470800Y-108919600I0J-225400D01*
G01*
G37*
%TD*%
%TO.C,R3*%
G36*
G01*
X155314200Y-77770400D02*
X155314200Y-77169600D01*
G75*
G02*
X155539600Y-76944200I225400J0D01*
G01*
X155990400Y-76944200D01*
G75*
G02*
X156215800Y-77169600I0J-225400D01*
G01*
X156215800Y-77770400D01*
G75*
G02*
X155990400Y-77995800I-225400J0D01*
G01*
X155539600Y-77995800D01*
G75*
G02*
X155314200Y-77770400I0J225400D01*
G01*
G37*
G36*
G01*
X153664200Y-77770400D02*
X153664200Y-77169600D01*
G75*
G02*
X153889600Y-76944200I225400J0D01*
G01*
X154340400Y-76944200D01*
G75*
G02*
X154565800Y-77169600I0J-225400D01*
G01*
X154565800Y-77770400D01*
G75*
G02*
X154340400Y-77995800I-225400J0D01*
G01*
X153889600Y-77995800D01*
G75*
G02*
X153664200Y-77770400I0J225400D01*
G01*
G37*
%TD*%
%TO.C,U1*%
G36*
G01*
X158520800Y-96095000D02*
X158520800Y-96445000D01*
G75*
G02*
X158470000Y-96495800I-50800J0D01*
G01*
X157270000Y-96495800D01*
G75*
G02*
X157219200Y-96445000I0J50800D01*
G01*
X157219200Y-96095000D01*
G75*
G02*
X157270000Y-96044200I50800J0D01*
G01*
X158470000Y-96044200D01*
G75*
G02*
X158520800Y-96095000I0J-50800D01*
G01*
G37*
G36*
G01*
X158520800Y-96595000D02*
X158520800Y-96945000D01*
G75*
G02*
X158470000Y-96995800I-50800J0D01*
G01*
X157270000Y-96995800D01*
G75*
G02*
X157219200Y-96945000I0J50800D01*
G01*
X157219200Y-96595000D01*
G75*
G02*
X157270000Y-96544200I50800J0D01*
G01*
X158470000Y-96544200D01*
G75*
G02*
X158520800Y-96595000I0J-50800D01*
G01*
G37*
G36*
G01*
X153645800Y-100120000D02*
X153645800Y-101320000D01*
G75*
G02*
X153595000Y-101370800I-50800J0D01*
G01*
X153245000Y-101370800D01*
G75*
G02*
X153194200Y-101320000I0J50800D01*
G01*
X153194200Y-100120000D01*
G75*
G02*
X153245000Y-100069200I50800J0D01*
G01*
X153595000Y-100069200D01*
G75*
G02*
X153645800Y-100120000I0J-50800D01*
G01*
G37*
G36*
G01*
X154145800Y-100120000D02*
X154145800Y-101320000D01*
G75*
G02*
X154095000Y-101370800I-50800J0D01*
G01*
X153745000Y-101370800D01*
G75*
G02*
X153694200Y-101320000I0J50800D01*
G01*
X153694200Y-100120000D01*
G75*
G02*
X153745000Y-100069200I50800J0D01*
G01*
X154095000Y-100069200D01*
G75*
G02*
X154145800Y-100120000I0J-50800D01*
G01*
G37*
G36*
G01*
X158520800Y-97095000D02*
X158520800Y-97445000D01*
G75*
G02*
X158470000Y-97495800I-50800J0D01*
G01*
X157270000Y-97495800D01*
G75*
G02*
X157219200Y-97445000I0J50800D01*
G01*
X157219200Y-97095000D01*
G75*
G02*
X157270000Y-97044200I50800J0D01*
G01*
X158470000Y-97044200D01*
G75*
G02*
X158520800Y-97095000I0J-50800D01*
G01*
G37*
G36*
G01*
X158520800Y-97595000D02*
X158520800Y-97945000D01*
G75*
G02*
X158470000Y-97995800I-50800J0D01*
G01*
X157270000Y-97995800D01*
G75*
G02*
X157219200Y-97945000I0J50800D01*
G01*
X157219200Y-97595000D01*
G75*
G02*
X157270000Y-97544200I50800J0D01*
G01*
X158470000Y-97544200D01*
G75*
G02*
X158520800Y-97595000I0J-50800D01*
G01*
G37*
G36*
G01*
X158520800Y-98095000D02*
X158520800Y-98445000D01*
G75*
G02*
X158470000Y-98495800I-50800J0D01*
G01*
X157270000Y-98495800D01*
G75*
G02*
X157219200Y-98445000I0J50800D01*
G01*
X157219200Y-98095000D01*
G75*
G02*
X157270000Y-98044200I50800J0D01*
G01*
X158470000Y-98044200D01*
G75*
G02*
X158520800Y-98095000I0J-50800D01*
G01*
G37*
G36*
G01*
X158520800Y-98595000D02*
X158520800Y-98945000D01*
G75*
G02*
X158470000Y-98995800I-50800J0D01*
G01*
X157270000Y-98995800D01*
G75*
G02*
X157219200Y-98945000I0J50800D01*
G01*
X157219200Y-98595000D01*
G75*
G02*
X157270000Y-98544200I50800J0D01*
G01*
X158470000Y-98544200D01*
G75*
G02*
X158520800Y-98595000I0J-50800D01*
G01*
G37*
G36*
G01*
X158520800Y-99095000D02*
X158520800Y-99445000D01*
G75*
G02*
X158470000Y-99495800I-50800J0D01*
G01*
X157270000Y-99495800D01*
G75*
G02*
X157219200Y-99445000I0J50800D01*
G01*
X157219200Y-99095000D01*
G75*
G02*
X157270000Y-99044200I50800J0D01*
G01*
X158470000Y-99044200D01*
G75*
G02*
X158520800Y-99095000I0J-50800D01*
G01*
G37*
G36*
G01*
X154645800Y-100120000D02*
X154645800Y-101320000D01*
G75*
G02*
X154595000Y-101370800I-50800J0D01*
G01*
X154245000Y-101370800D01*
G75*
G02*
X154194200Y-101320000I0J50800D01*
G01*
X154194200Y-100120000D01*
G75*
G02*
X154245000Y-100069200I50800J0D01*
G01*
X154595000Y-100069200D01*
G75*
G02*
X154645800Y-100120000I0J-50800D01*
G01*
G37*
G36*
G01*
X155145800Y-100120000D02*
X155145800Y-101320000D01*
G75*
G02*
X155095000Y-101370800I-50800J0D01*
G01*
X154745000Y-101370800D01*
G75*
G02*
X154694200Y-101320000I0J50800D01*
G01*
X154694200Y-100120000D01*
G75*
G02*
X154745000Y-100069200I50800J0D01*
G01*
X155095000Y-100069200D01*
G75*
G02*
X155145800Y-100120000I0J-50800D01*
G01*
G37*
G36*
G01*
X155645800Y-100120000D02*
X155645800Y-101320000D01*
G75*
G02*
X155595000Y-101370800I-50800J0D01*
G01*
X155245000Y-101370800D01*
G75*
G02*
X155194200Y-101320000I0J50800D01*
G01*
X155194200Y-100120000D01*
G75*
G02*
X155245000Y-100069200I50800J0D01*
G01*
X155595000Y-100069200D01*
G75*
G02*
X155645800Y-100120000I0J-50800D01*
G01*
G37*
G36*
G01*
X156145800Y-100120000D02*
X156145800Y-101320000D01*
G75*
G02*
X156095000Y-101370800I-50800J0D01*
G01*
X155745000Y-101370800D01*
G75*
G02*
X155694200Y-101320000I0J50800D01*
G01*
X155694200Y-100120000D01*
G75*
G02*
X155745000Y-100069200I50800J0D01*
G01*
X156095000Y-100069200D01*
G75*
G02*
X156145800Y-100120000I0J-50800D01*
G01*
G37*
G36*
G01*
X156645800Y-100120000D02*
X156645800Y-101320000D01*
G75*
G02*
X156595000Y-101370800I-50800J0D01*
G01*
X156245000Y-101370800D01*
G75*
G02*
X156194200Y-101320000I0J50800D01*
G01*
X156194200Y-100120000D01*
G75*
G02*
X156245000Y-100069200I50800J0D01*
G01*
X156595000Y-100069200D01*
G75*
G02*
X156645800Y-100120000I0J-50800D01*
G01*
G37*
G36*
G01*
X158520800Y-95595000D02*
X158520800Y-95945000D01*
G75*
G02*
X158470000Y-95995800I-50800J0D01*
G01*
X157270000Y-95995800D01*
G75*
G02*
X157219200Y-95945000I0J50800D01*
G01*
X157219200Y-95595000D01*
G75*
G02*
X157270000Y-95544200I50800J0D01*
G01*
X158470000Y-95544200D01*
G75*
G02*
X158520800Y-95595000I0J-50800D01*
G01*
G37*
G36*
G01*
X158520800Y-95095000D02*
X158520800Y-95445000D01*
G75*
G02*
X158470000Y-95495800I-50800J0D01*
G01*
X157270000Y-95495800D01*
G75*
G02*
X157219200Y-95445000I0J50800D01*
G01*
X157219200Y-95095000D01*
G75*
G02*
X157270000Y-95044200I50800J0D01*
G01*
X158470000Y-95044200D01*
G75*
G02*
X158520800Y-95095000I0J-50800D01*
G01*
G37*
G36*
G01*
X158520800Y-94595000D02*
X158520800Y-94945000D01*
G75*
G02*
X158470000Y-94995800I-50800J0D01*
G01*
X157270000Y-94995800D01*
G75*
G02*
X157219200Y-94945000I0J50800D01*
G01*
X157219200Y-94595000D01*
G75*
G02*
X157270000Y-94544200I50800J0D01*
G01*
X158470000Y-94544200D01*
G75*
G02*
X158520800Y-94595000I0J-50800D01*
G01*
G37*
G36*
G01*
X158520800Y-94095000D02*
X158520800Y-94445000D01*
G75*
G02*
X158470000Y-94495800I-50800J0D01*
G01*
X157270000Y-94495800D01*
G75*
G02*
X157219200Y-94445000I0J50800D01*
G01*
X157219200Y-94095000D01*
G75*
G02*
X157270000Y-94044200I50800J0D01*
G01*
X158470000Y-94044200D01*
G75*
G02*
X158520800Y-94095000I0J-50800D01*
G01*
G37*
G36*
G01*
X158520800Y-93595000D02*
X158520800Y-93945000D01*
G75*
G02*
X158470000Y-93995800I-50800J0D01*
G01*
X157270000Y-93995800D01*
G75*
G02*
X157219200Y-93945000I0J50800D01*
G01*
X157219200Y-93595000D01*
G75*
G02*
X157270000Y-93544200I50800J0D01*
G01*
X158470000Y-93544200D01*
G75*
G02*
X158520800Y-93595000I0J-50800D01*
G01*
G37*
G36*
G01*
X153145800Y-100120000D02*
X153145800Y-101320000D01*
G75*
G02*
X153095000Y-101370800I-50800J0D01*
G01*
X152745000Y-101370800D01*
G75*
G02*
X152694200Y-101320000I0J50800D01*
G01*
X152694200Y-100120000D01*
G75*
G02*
X152745000Y-100069200I50800J0D01*
G01*
X153095000Y-100069200D01*
G75*
G02*
X153145800Y-100120000I0J-50800D01*
G01*
G37*
G36*
G01*
X152645800Y-100120000D02*
X152645800Y-101320000D01*
G75*
G02*
X152595000Y-101370800I-50800J0D01*
G01*
X152245000Y-101370800D01*
G75*
G02*
X152194200Y-101320000I0J50800D01*
G01*
X152194200Y-100120000D01*
G75*
G02*
X152245000Y-100069200I50800J0D01*
G01*
X152595000Y-100069200D01*
G75*
G02*
X152645800Y-100120000I0J-50800D01*
G01*
G37*
G36*
G01*
X152145800Y-100120000D02*
X152145800Y-101320000D01*
G75*
G02*
X152095000Y-101370800I-50800J0D01*
G01*
X151745000Y-101370800D01*
G75*
G02*
X151694200Y-101320000I0J50800D01*
G01*
X151694200Y-100120000D01*
G75*
G02*
X151745000Y-100069200I50800J0D01*
G01*
X152095000Y-100069200D01*
G75*
G02*
X152145800Y-100120000I0J-50800D01*
G01*
G37*
G36*
G01*
X151645800Y-100120000D02*
X151645800Y-101320000D01*
G75*
G02*
X151595000Y-101370800I-50800J0D01*
G01*
X151245000Y-101370800D01*
G75*
G02*
X151194200Y-101320000I0J50800D01*
G01*
X151194200Y-100120000D01*
G75*
G02*
X151245000Y-100069200I50800J0D01*
G01*
X151595000Y-100069200D01*
G75*
G02*
X151645800Y-100120000I0J-50800D01*
G01*
G37*
G36*
G01*
X151145800Y-100120000D02*
X151145800Y-101320000D01*
G75*
G02*
X151095000Y-101370800I-50800J0D01*
G01*
X150745000Y-101370800D01*
G75*
G02*
X150694200Y-101320000I0J50800D01*
G01*
X150694200Y-100120000D01*
G75*
G02*
X150745000Y-100069200I50800J0D01*
G01*
X151095000Y-100069200D01*
G75*
G02*
X151145800Y-100120000I0J-50800D01*
G01*
G37*
G36*
G01*
X156645800Y-91720000D02*
X156645800Y-92920000D01*
G75*
G02*
X156595000Y-92970800I-50800J0D01*
G01*
X156245000Y-92970800D01*
G75*
G02*
X156194200Y-92920000I0J50800D01*
G01*
X156194200Y-91720000D01*
G75*
G02*
X156245000Y-91669200I50800J0D01*
G01*
X156595000Y-91669200D01*
G75*
G02*
X156645800Y-91720000I0J-50800D01*
G01*
G37*
G36*
G01*
X156145800Y-91720000D02*
X156145800Y-92920000D01*
G75*
G02*
X156095000Y-92970800I-50800J0D01*
G01*
X155745000Y-92970800D01*
G75*
G02*
X155694200Y-92920000I0J50800D01*
G01*
X155694200Y-91720000D01*
G75*
G02*
X155745000Y-91669200I50800J0D01*
G01*
X156095000Y-91669200D01*
G75*
G02*
X156145800Y-91720000I0J-50800D01*
G01*
G37*
G36*
G01*
X155645800Y-91720000D02*
X155645800Y-92920000D01*
G75*
G02*
X155595000Y-92970800I-50800J0D01*
G01*
X155245000Y-92970800D01*
G75*
G02*
X155194200Y-92920000I0J50800D01*
G01*
X155194200Y-91720000D01*
G75*
G02*
X155245000Y-91669200I50800J0D01*
G01*
X155595000Y-91669200D01*
G75*
G02*
X155645800Y-91720000I0J-50800D01*
G01*
G37*
G36*
G01*
X155145800Y-91720000D02*
X155145800Y-92920000D01*
G75*
G02*
X155095000Y-92970800I-50800J0D01*
G01*
X154745000Y-92970800D01*
G75*
G02*
X154694200Y-92920000I0J50800D01*
G01*
X154694200Y-91720000D01*
G75*
G02*
X154745000Y-91669200I50800J0D01*
G01*
X155095000Y-91669200D01*
G75*
G02*
X155145800Y-91720000I0J-50800D01*
G01*
G37*
G36*
G01*
X154645800Y-91720000D02*
X154645800Y-92920000D01*
G75*
G02*
X154595000Y-92970800I-50800J0D01*
G01*
X154245000Y-92970800D01*
G75*
G02*
X154194200Y-92920000I0J50800D01*
G01*
X154194200Y-91720000D01*
G75*
G02*
X154245000Y-91669200I50800J0D01*
G01*
X154595000Y-91669200D01*
G75*
G02*
X154645800Y-91720000I0J-50800D01*
G01*
G37*
G36*
G01*
X154145800Y-91720000D02*
X154145800Y-92920000D01*
G75*
G02*
X154095000Y-92970800I-50800J0D01*
G01*
X153745000Y-92970800D01*
G75*
G02*
X153694200Y-92920000I0J50800D01*
G01*
X153694200Y-91720000D01*
G75*
G02*
X153745000Y-91669200I50800J0D01*
G01*
X154095000Y-91669200D01*
G75*
G02*
X154145800Y-91720000I0J-50800D01*
G01*
G37*
G36*
G01*
X153645800Y-91720000D02*
X153645800Y-92920000D01*
G75*
G02*
X153595000Y-92970800I-50800J0D01*
G01*
X153245000Y-92970800D01*
G75*
G02*
X153194200Y-92920000I0J50800D01*
G01*
X153194200Y-91720000D01*
G75*
G02*
X153245000Y-91669200I50800J0D01*
G01*
X153595000Y-91669200D01*
G75*
G02*
X153645800Y-91720000I0J-50800D01*
G01*
G37*
G36*
G01*
X153145800Y-91720000D02*
X153145800Y-92920000D01*
G75*
G02*
X153095000Y-92970800I-50800J0D01*
G01*
X152745000Y-92970800D01*
G75*
G02*
X152694200Y-92920000I0J50800D01*
G01*
X152694200Y-91720000D01*
G75*
G02*
X152745000Y-91669200I50800J0D01*
G01*
X153095000Y-91669200D01*
G75*
G02*
X153145800Y-91720000I0J-50800D01*
G01*
G37*
G36*
G01*
X152645800Y-91720000D02*
X152645800Y-92920000D01*
G75*
G02*
X152595000Y-92970800I-50800J0D01*
G01*
X152245000Y-92970800D01*
G75*
G02*
X152194200Y-92920000I0J50800D01*
G01*
X152194200Y-91720000D01*
G75*
G02*
X152245000Y-91669200I50800J0D01*
G01*
X152595000Y-91669200D01*
G75*
G02*
X152645800Y-91720000I0J-50800D01*
G01*
G37*
G36*
G01*
X152145800Y-91720000D02*
X152145800Y-92920000D01*
G75*
G02*
X152095000Y-92970800I-50800J0D01*
G01*
X151745000Y-92970800D01*
G75*
G02*
X151694200Y-92920000I0J50800D01*
G01*
X151694200Y-91720000D01*
G75*
G02*
X151745000Y-91669200I50800J0D01*
G01*
X152095000Y-91669200D01*
G75*
G02*
X152145800Y-91720000I0J-50800D01*
G01*
G37*
G36*
G01*
X151645800Y-91720000D02*
X151645800Y-92920000D01*
G75*
G02*
X151595000Y-92970800I-50800J0D01*
G01*
X151245000Y-92970800D01*
G75*
G02*
X151194200Y-92920000I0J50800D01*
G01*
X151194200Y-91720000D01*
G75*
G02*
X151245000Y-91669200I50800J0D01*
G01*
X151595000Y-91669200D01*
G75*
G02*
X151645800Y-91720000I0J-50800D01*
G01*
G37*
G36*
G01*
X151145800Y-91720000D02*
X151145800Y-92920000D01*
G75*
G02*
X151095000Y-92970800I-50800J0D01*
G01*
X150745000Y-92970800D01*
G75*
G02*
X150694200Y-92920000I0J50800D01*
G01*
X150694200Y-91720000D01*
G75*
G02*
X150745000Y-91669200I50800J0D01*
G01*
X151095000Y-91669200D01*
G75*
G02*
X151145800Y-91720000I0J-50800D01*
G01*
G37*
G36*
G01*
X150120800Y-93595000D02*
X150120800Y-93945000D01*
G75*
G02*
X150070000Y-93995800I-50800J0D01*
G01*
X148870000Y-93995800D01*
G75*
G02*
X148819200Y-93945000I0J50800D01*
G01*
X148819200Y-93595000D01*
G75*
G02*
X148870000Y-93544200I50800J0D01*
G01*
X150070000Y-93544200D01*
G75*
G02*
X150120800Y-93595000I0J-50800D01*
G01*
G37*
G36*
G01*
X150120800Y-94095000D02*
X150120800Y-94445000D01*
G75*
G02*
X150070000Y-94495800I-50800J0D01*
G01*
X148870000Y-94495800D01*
G75*
G02*
X148819200Y-94445000I0J50800D01*
G01*
X148819200Y-94095000D01*
G75*
G02*
X148870000Y-94044200I50800J0D01*
G01*
X150070000Y-94044200D01*
G75*
G02*
X150120800Y-94095000I0J-50800D01*
G01*
G37*
G36*
G01*
X150120800Y-94595000D02*
X150120800Y-94945000D01*
G75*
G02*
X150070000Y-94995800I-50800J0D01*
G01*
X148870000Y-94995800D01*
G75*
G02*
X148819200Y-94945000I0J50800D01*
G01*
X148819200Y-94595000D01*
G75*
G02*
X148870000Y-94544200I50800J0D01*
G01*
X150070000Y-94544200D01*
G75*
G02*
X150120800Y-94595000I0J-50800D01*
G01*
G37*
G36*
G01*
X150120800Y-95095000D02*
X150120800Y-95445000D01*
G75*
G02*
X150070000Y-95495800I-50800J0D01*
G01*
X148870000Y-95495800D01*
G75*
G02*
X148819200Y-95445000I0J50800D01*
G01*
X148819200Y-95095000D01*
G75*
G02*
X148870000Y-95044200I50800J0D01*
G01*
X150070000Y-95044200D01*
G75*
G02*
X150120800Y-95095000I0J-50800D01*
G01*
G37*
G36*
G01*
X150120800Y-95595000D02*
X150120800Y-95945000D01*
G75*
G02*
X150070000Y-95995800I-50800J0D01*
G01*
X148870000Y-95995800D01*
G75*
G02*
X148819200Y-95945000I0J50800D01*
G01*
X148819200Y-95595000D01*
G75*
G02*
X148870000Y-95544200I50800J0D01*
G01*
X150070000Y-95544200D01*
G75*
G02*
X150120800Y-95595000I0J-50800D01*
G01*
G37*
G36*
G01*
X150120800Y-96095000D02*
X150120800Y-96445000D01*
G75*
G02*
X150070000Y-96495800I-50800J0D01*
G01*
X148870000Y-96495800D01*
G75*
G02*
X148819200Y-96445000I0J50800D01*
G01*
X148819200Y-96095000D01*
G75*
G02*
X148870000Y-96044200I50800J0D01*
G01*
X150070000Y-96044200D01*
G75*
G02*
X150120800Y-96095000I0J-50800D01*
G01*
G37*
G36*
G01*
X150120800Y-96595000D02*
X150120800Y-96945000D01*
G75*
G02*
X150070000Y-96995800I-50800J0D01*
G01*
X148870000Y-96995800D01*
G75*
G02*
X148819200Y-96945000I0J50800D01*
G01*
X148819200Y-96595000D01*
G75*
G02*
X148870000Y-96544200I50800J0D01*
G01*
X150070000Y-96544200D01*
G75*
G02*
X150120800Y-96595000I0J-50800D01*
G01*
G37*
G36*
G01*
X150120800Y-97095000D02*
X150120800Y-97445000D01*
G75*
G02*
X150070000Y-97495800I-50800J0D01*
G01*
X148870000Y-97495800D01*
G75*
G02*
X148819200Y-97445000I0J50800D01*
G01*
X148819200Y-97095000D01*
G75*
G02*
X148870000Y-97044200I50800J0D01*
G01*
X150070000Y-97044200D01*
G75*
G02*
X150120800Y-97095000I0J-50800D01*
G01*
G37*
G36*
G01*
X150120800Y-97595000D02*
X150120800Y-97945000D01*
G75*
G02*
X150070000Y-97995800I-50800J0D01*
G01*
X148870000Y-97995800D01*
G75*
G02*
X148819200Y-97945000I0J50800D01*
G01*
X148819200Y-97595000D01*
G75*
G02*
X148870000Y-97544200I50800J0D01*
G01*
X150070000Y-97544200D01*
G75*
G02*
X150120800Y-97595000I0J-50800D01*
G01*
G37*
G36*
G01*
X150120800Y-98095000D02*
X150120800Y-98445000D01*
G75*
G02*
X150070000Y-98495800I-50800J0D01*
G01*
X148870000Y-98495800D01*
G75*
G02*
X148819200Y-98445000I0J50800D01*
G01*
X148819200Y-98095000D01*
G75*
G02*
X148870000Y-98044200I50800J0D01*
G01*
X150070000Y-98044200D01*
G75*
G02*
X150120800Y-98095000I0J-50800D01*
G01*
G37*
G36*
G01*
X150120800Y-98595000D02*
X150120800Y-98945000D01*
G75*
G02*
X150070000Y-98995800I-50800J0D01*
G01*
X148870000Y-98995800D01*
G75*
G02*
X148819200Y-98945000I0J50800D01*
G01*
X148819200Y-98595000D01*
G75*
G02*
X148870000Y-98544200I50800J0D01*
G01*
X150070000Y-98544200D01*
G75*
G02*
X150120800Y-98595000I0J-50800D01*
G01*
G37*
G36*
G01*
X150120800Y-99095000D02*
X150120800Y-99445000D01*
G75*
G02*
X150070000Y-99495800I-50800J0D01*
G01*
X148870000Y-99495800D01*
G75*
G02*
X148819200Y-99445000I0J50800D01*
G01*
X148819200Y-99095000D01*
G75*
G02*
X148870000Y-99044200I50800J0D01*
G01*
X150070000Y-99044200D01*
G75*
G02*
X150120800Y-99095000I0J-50800D01*
G01*
G37*
%TD*%
M02*
