%TF.GenerationSoftware,KiCad,Pcbnew,5.1.9*%
%TF.CreationDate,2021-11-11T19:59:09-07:00*%
%TF.ProjectId,pirate-board,70697261-7465-42d6-926f-6172642e6b69,v1.1*%
%TF.SameCoordinates,Original*%
%TF.FileFunction,Legend,Top*%
%TF.FilePolarity,Positive*%
%FSLAX46Y46*%
G04 Gerber Fmt 4.6, Leading zero omitted, Abs format (unit mm)*
G04 Created by KiCad (PCBNEW 5.1.9) date 2021-11-11 19:59:09*
%MOMM*%
%LPD*%
G01*
G04 APERTURE LIST*
%ADD10C,0.120000*%
%ADD11C,0.100000*%
%ADD12C,0.150000*%
G04 APERTURE END LIST*
D10*
%TO.C,J6*%
X177570000Y-71470000D02*
X175390000Y-71470000D01*
X177570000Y-84090000D02*
X175390000Y-84090000D01*
X181070000Y-71470000D02*
X189040000Y-71470000D01*
X189040000Y-71470000D02*
X189040000Y-70470000D01*
X189040000Y-70470000D02*
X189660000Y-70470000D01*
X189660000Y-70470000D02*
X189660000Y-85090000D01*
X189660000Y-85090000D02*
X189040000Y-85090000D01*
X189040000Y-85090000D02*
X189040000Y-84090000D01*
X189040000Y-84090000D02*
X181070000Y-84090000D01*
X172540000Y-82970000D02*
X172540000Y-72590000D01*
X172390000Y-80880000D02*
X172390000Y-81680000D01*
%TO.C,R1*%
X161527258Y-108697500D02*
X161052742Y-108697500D01*
X161527258Y-109742500D02*
X161052742Y-109742500D01*
%TO.C,J3*%
X145290000Y-114130000D02*
X142470000Y-114130000D01*
X142470000Y-114130000D02*
X141170000Y-115830000D01*
X145290000Y-114130000D02*
X146590000Y-115830000D01*
X141170000Y-115830000D02*
X141170000Y-124550000D01*
X146590000Y-124550000D02*
X141170000Y-124550000D01*
X146590000Y-115830000D02*
X146590000Y-124550000D01*
%TO.C,J2*%
X152540000Y-114130000D02*
X149720000Y-114130000D01*
X149720000Y-114130000D02*
X148420000Y-115830000D01*
X152540000Y-114130000D02*
X153840000Y-115830000D01*
X148420000Y-115830000D02*
X148420000Y-124550000D01*
X153840000Y-124550000D02*
X148420000Y-124550000D01*
X153840000Y-115830000D02*
X153840000Y-124550000D01*
%TO.C,D1*%
X147790000Y-109955000D02*
X150075000Y-109955000D01*
X150075000Y-109955000D02*
X150075000Y-108485000D01*
X150075000Y-108485000D02*
X147790000Y-108485000D01*
%TO.C,D2*%
X151345000Y-76735000D02*
X149060000Y-76735000D01*
X151345000Y-78205000D02*
X151345000Y-76735000D01*
X149060000Y-78205000D02*
X151345000Y-78205000D01*
%TO.C,J1*%
X177570000Y-90520000D02*
X175390000Y-90520000D01*
X177570000Y-103140000D02*
X175390000Y-103140000D01*
X181070000Y-90520000D02*
X189040000Y-90520000D01*
X189040000Y-90520000D02*
X189040000Y-89520000D01*
X189040000Y-89520000D02*
X189660000Y-89520000D01*
X189660000Y-89520000D02*
X189660000Y-104140000D01*
X189660000Y-104140000D02*
X189040000Y-104140000D01*
X189040000Y-104140000D02*
X189040000Y-103140000D01*
X189040000Y-103140000D02*
X181070000Y-103140000D01*
X172540000Y-102020000D02*
X172540000Y-91640000D01*
X172390000Y-99930000D02*
X172390000Y-100730000D01*
%TO.C,J4*%
X172390000Y-118980000D02*
X172390000Y-119780000D01*
X172540000Y-121070000D02*
X172540000Y-110690000D01*
X189040000Y-122190000D02*
X181070000Y-122190000D01*
X189040000Y-123190000D02*
X189040000Y-122190000D01*
X189660000Y-123190000D02*
X189040000Y-123190000D01*
X189660000Y-108570000D02*
X189660000Y-123190000D01*
X189040000Y-108570000D02*
X189660000Y-108570000D01*
X189040000Y-109570000D02*
X189040000Y-108570000D01*
X181070000Y-109570000D02*
X189040000Y-109570000D01*
X177570000Y-122190000D02*
X175390000Y-122190000D01*
X177570000Y-109570000D02*
X175390000Y-109570000D01*
%TO.C,J5*%
X157690000Y-121710000D02*
X157690000Y-120650000D01*
X158750000Y-121710000D02*
X157690000Y-121710000D01*
X159750000Y-121710000D02*
X159750000Y-119590000D01*
X159750000Y-119590000D02*
X165810000Y-119590000D01*
X159750000Y-121710000D02*
X165810000Y-121710000D01*
X165810000Y-121710000D02*
X165810000Y-119590000D01*
%TO.C,J7*%
X135950000Y-121980000D02*
X134620000Y-121980000D01*
X135950000Y-120650000D02*
X135950000Y-121980000D01*
X133350000Y-121980000D02*
X130750000Y-121980000D01*
X133350000Y-119380000D02*
X133350000Y-121980000D01*
X135950000Y-119380000D02*
X133350000Y-119380000D01*
X130750000Y-121980000D02*
X130750000Y-71060000D01*
X135950000Y-119380000D02*
X135950000Y-71060000D01*
X135950000Y-71060000D02*
X130750000Y-71060000D01*
%TO.C,R2*%
X153082258Y-108697500D02*
X152607742Y-108697500D01*
X153082258Y-109742500D02*
X152607742Y-109742500D01*
%TO.C,R3*%
X154702742Y-76947500D02*
X155177258Y-76947500D01*
X154702742Y-77992500D02*
X155177258Y-77992500D01*
D11*
%TO.C,U1*%
X157370000Y-99520000D02*
X157770000Y-99520000D01*
X156770000Y-100120000D02*
X157370000Y-99520000D01*
X150070000Y-100120000D02*
X150070000Y-99620000D01*
X150570000Y-100120000D02*
X150070000Y-100120000D01*
X150070000Y-92920000D02*
X150570000Y-92920000D01*
X150070000Y-93420000D02*
X150070000Y-92920000D01*
X157270000Y-92920000D02*
X156770000Y-92920000D01*
X157270000Y-93420000D02*
X157270000Y-92920000D01*
%TO.C,J6*%
D12*
X170442380Y-78113333D02*
X171156666Y-78113333D01*
X171299523Y-78160952D01*
X171394761Y-78256190D01*
X171442380Y-78399047D01*
X171442380Y-78494285D01*
X170442380Y-77208571D02*
X170442380Y-77399047D01*
X170490000Y-77494285D01*
X170537619Y-77541904D01*
X170680476Y-77637142D01*
X170870952Y-77684761D01*
X171251904Y-77684761D01*
X171347142Y-77637142D01*
X171394761Y-77589523D01*
X171442380Y-77494285D01*
X171442380Y-77303809D01*
X171394761Y-77208571D01*
X171347142Y-77160952D01*
X171251904Y-77113333D01*
X171013809Y-77113333D01*
X170918571Y-77160952D01*
X170870952Y-77208571D01*
X170823333Y-77303809D01*
X170823333Y-77494285D01*
X170870952Y-77589523D01*
X170918571Y-77637142D01*
X171013809Y-77684761D01*
%TO.C,R1*%
X161123333Y-111102380D02*
X160790000Y-110626190D01*
X160551904Y-111102380D02*
X160551904Y-110102380D01*
X160932857Y-110102380D01*
X161028095Y-110150000D01*
X161075714Y-110197619D01*
X161123333Y-110292857D01*
X161123333Y-110435714D01*
X161075714Y-110530952D01*
X161028095Y-110578571D01*
X160932857Y-110626190D01*
X160551904Y-110626190D01*
X162075714Y-111102380D02*
X161504285Y-111102380D01*
X161790000Y-111102380D02*
X161790000Y-110102380D01*
X161694761Y-110245238D01*
X161599523Y-110340476D01*
X161504285Y-110388095D01*
%TO.C,J3*%
X147332380Y-119673333D02*
X148046666Y-119673333D01*
X148189523Y-119720952D01*
X148284761Y-119816190D01*
X148332380Y-119959047D01*
X148332380Y-120054285D01*
X147332380Y-119292380D02*
X147332380Y-118673333D01*
X147713333Y-119006666D01*
X147713333Y-118863809D01*
X147760952Y-118768571D01*
X147808571Y-118720952D01*
X147903809Y-118673333D01*
X148141904Y-118673333D01*
X148237142Y-118720952D01*
X148284761Y-118768571D01*
X148332380Y-118863809D01*
X148332380Y-119149523D01*
X148284761Y-119244761D01*
X148237142Y-119292380D01*
X143987142Y-113411428D02*
X143987142Y-112268571D01*
X143987142Y-126411428D02*
X143987142Y-125268571D01*
X144558571Y-125840000D02*
X143415714Y-125840000D01*
%TO.C,J2*%
X154582380Y-119673333D02*
X155296666Y-119673333D01*
X155439523Y-119720952D01*
X155534761Y-119816190D01*
X155582380Y-119959047D01*
X155582380Y-120054285D01*
X154677619Y-119244761D02*
X154630000Y-119197142D01*
X154582380Y-119101904D01*
X154582380Y-118863809D01*
X154630000Y-118768571D01*
X154677619Y-118720952D01*
X154772857Y-118673333D01*
X154868095Y-118673333D01*
X155010952Y-118720952D01*
X155582380Y-119292380D01*
X155582380Y-118673333D01*
X151237142Y-113411428D02*
X151237142Y-112268571D01*
X151237142Y-126411428D02*
X151237142Y-125268571D01*
X151808571Y-125840000D02*
X150665714Y-125840000D01*
%TO.C,D1*%
X147851904Y-111102380D02*
X147851904Y-110102380D01*
X148090000Y-110102380D01*
X148232857Y-110150000D01*
X148328095Y-110245238D01*
X148375714Y-110340476D01*
X148423333Y-110530952D01*
X148423333Y-110673809D01*
X148375714Y-110864285D01*
X148328095Y-110959523D01*
X148232857Y-111054761D01*
X148090000Y-111102380D01*
X147851904Y-111102380D01*
X149375714Y-111102380D02*
X148804285Y-111102380D01*
X149090000Y-111102380D02*
X149090000Y-110102380D01*
X148994761Y-110245238D01*
X148899523Y-110340476D01*
X148804285Y-110388095D01*
%TO.C,D2*%
X149121904Y-79352380D02*
X149121904Y-78352380D01*
X149360000Y-78352380D01*
X149502857Y-78400000D01*
X149598095Y-78495238D01*
X149645714Y-78590476D01*
X149693333Y-78780952D01*
X149693333Y-78923809D01*
X149645714Y-79114285D01*
X149598095Y-79209523D01*
X149502857Y-79304761D01*
X149360000Y-79352380D01*
X149121904Y-79352380D01*
X150074285Y-78447619D02*
X150121904Y-78400000D01*
X150217142Y-78352380D01*
X150455238Y-78352380D01*
X150550476Y-78400000D01*
X150598095Y-78447619D01*
X150645714Y-78542857D01*
X150645714Y-78638095D01*
X150598095Y-78780952D01*
X150026666Y-79352380D01*
X150645714Y-79352380D01*
%TO.C,J1*%
X170442380Y-97163333D02*
X171156666Y-97163333D01*
X171299523Y-97210952D01*
X171394761Y-97306190D01*
X171442380Y-97449047D01*
X171442380Y-97544285D01*
X171442380Y-96163333D02*
X171442380Y-96734761D01*
X171442380Y-96449047D02*
X170442380Y-96449047D01*
X170585238Y-96544285D01*
X170680476Y-96639523D01*
X170728095Y-96734761D01*
%TO.C,J4*%
X170442380Y-116213333D02*
X171156666Y-116213333D01*
X171299523Y-116260952D01*
X171394761Y-116356190D01*
X171442380Y-116499047D01*
X171442380Y-116594285D01*
X170775714Y-115308571D02*
X171442380Y-115308571D01*
X170394761Y-115546666D02*
X171109047Y-115784761D01*
X171109047Y-115165714D01*
%TO.C,J5*%
X156142380Y-120983333D02*
X156856666Y-120983333D01*
X156999523Y-121030952D01*
X157094761Y-121126190D01*
X157142380Y-121269047D01*
X157142380Y-121364285D01*
X156142380Y-120030952D02*
X156142380Y-120507142D01*
X156618571Y-120554761D01*
X156570952Y-120507142D01*
X156523333Y-120411904D01*
X156523333Y-120173809D01*
X156570952Y-120078571D01*
X156618571Y-120030952D01*
X156713809Y-119983333D01*
X156951904Y-119983333D01*
X157047142Y-120030952D01*
X157094761Y-120078571D01*
X157142380Y-120173809D01*
X157142380Y-120411904D01*
X157094761Y-120507142D01*
X157047142Y-120554761D01*
%TO.C,J7*%
X133016666Y-122432380D02*
X133016666Y-123146666D01*
X132969047Y-123289523D01*
X132873809Y-123384761D01*
X132730952Y-123432380D01*
X132635714Y-123432380D01*
X133397619Y-122432380D02*
X134064285Y-122432380D01*
X133635714Y-123432380D01*
%TO.C,R2*%
X152678333Y-111102380D02*
X152345000Y-110626190D01*
X152106904Y-111102380D02*
X152106904Y-110102380D01*
X152487857Y-110102380D01*
X152583095Y-110150000D01*
X152630714Y-110197619D01*
X152678333Y-110292857D01*
X152678333Y-110435714D01*
X152630714Y-110530952D01*
X152583095Y-110578571D01*
X152487857Y-110626190D01*
X152106904Y-110626190D01*
X153059285Y-110197619D02*
X153106904Y-110150000D01*
X153202142Y-110102380D01*
X153440238Y-110102380D01*
X153535476Y-110150000D01*
X153583095Y-110197619D01*
X153630714Y-110292857D01*
X153630714Y-110388095D01*
X153583095Y-110530952D01*
X153011666Y-111102380D01*
X153630714Y-111102380D01*
%TO.C,R3*%
X154773333Y-76492380D02*
X154440000Y-76016190D01*
X154201904Y-76492380D02*
X154201904Y-75492380D01*
X154582857Y-75492380D01*
X154678095Y-75540000D01*
X154725714Y-75587619D01*
X154773333Y-75682857D01*
X154773333Y-75825714D01*
X154725714Y-75920952D01*
X154678095Y-75968571D01*
X154582857Y-76016190D01*
X154201904Y-76016190D01*
X155106666Y-75492380D02*
X155725714Y-75492380D01*
X155392380Y-75873333D01*
X155535238Y-75873333D01*
X155630476Y-75920952D01*
X155678095Y-75968571D01*
X155725714Y-76063809D01*
X155725714Y-76301904D01*
X155678095Y-76397142D01*
X155630476Y-76444761D01*
X155535238Y-76492380D01*
X155249523Y-76492380D01*
X155154285Y-76444761D01*
X155106666Y-76397142D01*
%TO.C,U1*%
X152908095Y-102472380D02*
X152908095Y-103281904D01*
X152955714Y-103377142D01*
X153003333Y-103424761D01*
X153098571Y-103472380D01*
X153289047Y-103472380D01*
X153384285Y-103424761D01*
X153431904Y-103377142D01*
X153479523Y-103281904D01*
X153479523Y-102472380D01*
X154479523Y-103472380D02*
X153908095Y-103472380D01*
X154193809Y-103472380D02*
X154193809Y-102472380D01*
X154098571Y-102615238D01*
X154003333Y-102710476D01*
X153908095Y-102758095D01*
%TD*%
M02*
